AmstelvarA2-Roman_opsz144_wght200_wdth125.ufo
<glyph name="exclam" format="2">
  <advance width="692"/>
  <unicode hex="0021"/>
  <outline>
    <contour>
      <point x="258" y="74" type="qcurve" smooth="yes"/>
      <point x="258" y="109"/>
      <point x="307" y="161"/>
      <point x="346" y="161" type="qcurve" smooth="yes"/>
      <point x="384" y="161"/>
      <point x="433" y="109"/>
      <point x="433" y="74" type="qcurve" smooth="yes"/>
      <point x="433" y="39"/>
      <point x="384" y="-13"/>
      <point x="346" y="-13" type="qcurve" smooth="yes"/>
      <point x="307" y="-13"/>
      <point x="258" y="39"/>
    </contour>
    <contour>
      <point x="294" y="1391" type="line" smooth="yes"/>
      <point x="292" y="1459"/>
      <point x="314" y="1546"/>
      <point x="345" y="1547" type="qcurve" smooth="yes"/>
      <point x="376" y="1548"/>
      <point x="400" y="1461"/>
      <point x="398" y="1392" type="qcurve" smooth="yes"/>
      <point x="392" y="1108" type="line"/>
      <point x="343" y="800" type="line"/>
      <point x="356" y="435" type="line"/>
      <point x="334" y="435" type="line"/>
      <point x="348" y="800" type="line"/>
      <point x="300" y="1108" type="line"/>
    </contour>
  </outline>
</glyph>
<glyph name="quotedbl" format="2">
  <advance width="1236"/>
  <unicode hex="0022"/>
  <outline>
    <contour>
      <point x="324" y="964" type="line"/>
      <point x="259" y="1475" type="line"/>
      <point x="259" y="1504"/>
      <point x="297" y="1558"/>
      <point x="336" y="1558" type="qcurve" smooth="yes"/>
      <point x="375" y="1558"/>
      <point x="413" y="1504"/>
      <point x="413" y="1475" type="qcurve"/>
      <point x="346" y="964" type="line"/>
    </contour>
    <contour>
      <point x="889" y="964" type="line"/>
      <point x="824" y="1475" type="line"/>
      <point x="824" y="1504"/>
      <point x="862" y="1558"/>
      <point x="900" y="1558" type="qcurve" smooth="yes"/>
      <point x="939" y="1558"/>
      <point x="977" y="1504"/>
      <point x="977" y="1475" type="qcurve"/>
      <point x="910" y="964" type="line"/>
    </contour>
  </outline>
</glyph>
<glyph name="numbersign" format="2">
  <advance width="1604"/>
  <unicode hex="0023"/>
  <outline>
    <contour>
      <point x="128" y="517" type="line"/>
      <point x="128" y="604" type="line"/>
      <point x="1381" y="604" type="line"/>
      <point x="1381" y="517" type="line"/>
    </contour>
    <contour>
      <point x="223" y="877" type="line"/>
      <point x="223" y="964" type="line"/>
      <point x="1476" y="964" type="line"/>
      <point x="1476" y="877" type="line"/>
    </contour>
    <contour>
      <point x="214" y="-13" type="line"/>
      <point x="778" y="1524" type="line"/>
      <point x="801" y="1518" type="line"/>
      <point x="237" y="-19" type="line"/>
    </contour>
    <contour>
      <point x="819" y="-13" type="line"/>
      <point x="1383" y="1524" type="line"/>
      <point x="1407" y="1518" type="line"/>
      <point x="842" y="-19" type="line"/>
    </contour>
  </outline>
</glyph>
<glyph name="dollar" format="2">
  <advance width="1585"/>
  <unicode hex="0024"/>
  <outline>
    <contour>
      <point x="100" y="272" type="qcurve"/>
      <point x="165" y="296" type="line"/>
      <point x="239" y="176"/>
      <point x="592" y="28"/>
      <point x="846" y="28" type="qcurve" smooth="yes"/>
      <point x="1118" y="28"/>
      <point x="1373" y="223"/>
      <point x="1373" y="369" type="qcurve" smooth="yes"/>
      <point x="1373" y="548"/>
      <point x="1022" y="702"/>
      <point x="786" y="757" type="qcurve" smooth="yes"/>
      <point x="474" y="836"/>
      <point x="278" y="989"/>
      <point x="278" y="1135" type="qcurve" smooth="yes"/>
      <point x="278" y="1284"/>
      <point x="503" y="1501"/>
      <point x="798" y="1501" type="qcurve" smooth="yes"/>
      <point x="977" y="1501"/>
      <point x="1295" y="1436"/>
      <point x="1411" y="1373" type="qcurve"/>
      <point x="1388" y="1333" type="line"/>
      <point x="1300" y="1389"/>
      <point x="1020" y="1473"/>
      <point x="833" y="1473" type="qcurve" smooth="yes"/>
      <point x="581" y="1473"/>
      <point x="384" y="1323"/>
      <point x="384" y="1182" type="qcurve" smooth="yes"/>
      <point x="384" y="1039"/>
      <point x="555" y="899"/>
      <point x="845" y="824" type="qcurve" smooth="yes"/>
      <point x="1130" y="747"/>
      <point x="1476" y="585"/>
      <point x="1476" y="417" type="qcurve" smooth="yes"/>
      <point x="1476" y="248"/>
      <point x="1121" y="1"/>
      <point x="830" y="1" type="qcurve" smooth="yes"/>
      <point x="554" y="1"/>
      <point x="205" y="142"/>
    </contour>
    <contour>
      <point x="841" y="-190" type="line"/>
      <point x="841" y="12" type="line"/>
      <point x="844" y="12" type="line"/>
      <point x="844" y="820" type="line"/>
      <point x="872" y="778" type="line"/>
      <point x="872" y="12" type="line"/>
      <point x="877" y="12" type="line"/>
      <point x="877" y="-175" type="line"/>
    </contour>
    <contour>
      <point x="840" y="1639" type="line"/>
      <point x="876" y="1649" type="line"/>
      <point x="876" y="1484" type="line"/>
      <point x="872" y="1484" type="line"/>
      <point x="872" y="778" type="line"/>
      <point x="844" y="820" type="line"/>
      <point x="844" y="1484" type="line"/>
      <point x="840" y="1484" type="line"/>
    </contour>
  </outline>
</glyph>
<glyph name="ampersand" format="2">
  <advance width="2386"/>
  <unicode hex="0026"/>
  <outline>
    <contour>
      <point x="815" y="-28" type="qcurve" smooth="yes"/>
      <point x="430" y="-28"/>
      <point x="100" y="216"/>
      <point x="113" y="374" type="qcurve" smooth="yes"/>
      <point x="122" y="490"/>
      <point x="282" y="805"/>
      <point x="634" y="835" type="qcurve"/>
      <point x="1046" y="927"/>
      <point x="1289" y="1131"/>
      <point x="1289" y="1230" type="qcurve" smooth="yes"/>
      <point x="1289" y="1346"/>
      <point x="1069" y="1492"/>
      <point x="892" y="1492" type="qcurve" smooth="yes"/>
      <point x="753" y="1492"/>
      <point x="546" y="1353"/>
      <point x="546" y="1206" type="qcurve" smooth="yes"/>
      <point x="546" y="1083"/>
      <point x="691" y="911"/>
      <point x="857" y="848" type="qcurve"/>
      <point x="1568" y="261" type="line" smooth="yes"/>
      <point x="1678" y="162"/>
      <point x="1911" y="1"/>
      <point x="1990" y="1" type="qcurve" smooth="yes"/>
      <point x="2093" y="1"/>
      <point x="2250" y="76"/>
      <point x="2310" y="126" type="qcurve"/>
      <point x="2345" y="113" type="line"/>
      <point x="2279" y="44"/>
      <point x="2096" y="-36"/>
      <point x="1959" y="-37" type="qcurve" smooth="yes"/>
      <point x="1840" y="-38"/>
      <point x="1702" y="63"/>
      <point x="1488" y="201" type="qcurve" smooth="yes"/>
      <point x="729" y="843" type="line"/>
      <point x="636" y="862"/>
      <point x="432" y="1056"/>
      <point x="439" y="1187" type="qcurve" smooth="yes"/>
      <point x="445" y="1318"/>
      <point x="633" y="1516"/>
      <point x="878" y="1516" type="qcurve" smooth="yes"/>
      <point x="1136" y="1516"/>
      <point x="1375" y="1362"/>
      <point x="1375" y="1215" type="qcurve" smooth="yes"/>
      <point x="1375" y="1110"/>
      <point x="985" y="863"/>
      <point x="646" y="813" type="qcurve"/>
      <point x="453" y="762"/>
      <point x="240" y="563"/>
      <point x="225" y="403" type="qcurve" smooth="yes"/>
      <point x="208" y="215"/>
      <point x="490" y="45"/>
      <point x="781" y="45" type="qcurve" smooth="yes"/>
      <point x="1248" y="45"/>
      <point x="2066" y="564"/>
      <point x="2295" y="866" type="qcurve"/>
      <point x="2323" y="860" type="line"/>
      <point x="2120" y="559"/>
      <point x="1255" y="-28"/>
    </contour>
    <contour>
      <point x="1622" y="795" type="line"/>
      <point x="1646" y="867"/>
      <point x="1744" y="950"/>
      <point x="1810" y="950" type="qcurve" smooth="yes"/>
      <point x="1873" y="950"/>
      <point x="2077" y="875"/>
      <point x="2131" y="875" type="qcurve" smooth="yes"/>
      <point x="2171" y="875"/>
      <point x="2232" y="887"/>
      <point x="2270" y="918" type="qcurve"/>
      <point x="2324" y="891" type="line"/>
      <point x="2250" y="818"/>
      <point x="2166" y="793"/>
      <point x="2100" y="798" type="qcurve" smooth="yes"/>
      <point x="2081" y="799"/>
      <point x="1889" y="861"/>
      <point x="1833" y="861" type="qcurve" smooth="yes"/>
      <point x="1775" y="861"/>
      <point x="1690" y="807"/>
      <point x="1662" y="779" type="qcurve"/>
    </contour>
  </outline>
</glyph>
<glyph name="quotesingle" format="2">
  <advance width="672"/>
  <unicode hex="0027"/>
  <outline>
    <contour>
      <point x="326" y="964" type="line"/>
      <point x="259" y="1475" type="line"/>
      <point x="259" y="1504"/>
      <point x="297" y="1558"/>
      <point x="336" y="1558" type="qcurve" smooth="yes"/>
      <point x="375" y="1558"/>
      <point x="413" y="1504"/>
      <point x="413" y="1475" type="qcurve"/>
      <point x="344" y="964" type="line"/>
    </contour>
  </outline>
</glyph>
<glyph name="parenleft" format="2">
  <advance width="511"/>
  <unicode hex="0028"/>
  <outline>
    <contour>
      <point x="68" y="521" type="qcurve" smooth="yes"/>
      <point x="68" y="816"/>
      <point x="330" y="1389"/>
      <point x="477" y="1526" type="qcurve"/>
      <point x="491" y="1510" type="line"/>
      <point x="349" y="1358"/>
      <point x="176" y="853"/>
      <point x="176" y="522" type="qcurve" smooth="yes"/>
      <point x="176" y="191"/>
      <point x="348" y="-314"/>
      <point x="491" y="-467" type="qcurve"/>
      <point x="477" y="-485" type="line"/>
      <point x="330" y="-348"/>
      <point x="68" y="213"/>
    </contour>
  </outline>
</glyph>
<glyph name="asterisk" format="2">
  <advance width="968"/>
  <unicode hex="002A"/>
  <outline>
    <contour>
      <point x="484" y="664" type="qcurve" smooth="yes"/>
      <point x="449" y="664"/>
      <point x="420" y="712"/>
      <point x="429" y="742" type="qcurve" smooth="yes"/>
      <point x="479" y="1102" type="line"/>
      <point x="479" y="1103" type="line"/>
      <point x="192" y="879" type="line" smooth="yes"/>
      <point x="174" y="861"/>
      <point x="115" y="856"/>
      <point x="97" y="888" type="qcurve" smooth="yes"/>
      <point x="78" y="920"/>
      <point x="112" y="968"/>
      <point x="137" y="974" type="qcurve" smooth="yes"/>
      <point x="475" y="1110" type="line"/>
      <point x="474" y="1111" type="line"/>
      <point x="138" y="1249" type="line" smooth="yes"/>
      <point x="114" y="1256"/>
      <point x="79" y="1304"/>
      <point x="98" y="1336" type="qcurve" smooth="yes"/>
      <point x="116" y="1368"/>
      <point x="175" y="1362"/>
      <point x="193" y="1345" type="qcurve" smooth="yes"/>
      <point x="478" y="1119" type="line"/>
      <point x="479" y="1120" type="line"/>
      <point x="429" y="1480" type="line" smooth="yes"/>
      <point x="420" y="1512"/>
      <point x="451" y="1558"/>
      <point x="484" y="1558" type="qcurve" smooth="yes"/>
      <point x="519" y="1558"/>
      <point x="548" y="1510"/>
      <point x="539" y="1480" type="qcurve" smooth="yes"/>
      <point x="488" y="1120" type="line"/>
      <point x="489" y="1119" type="line"/>
      <point x="776" y="1343" type="line" smooth="yes"/>
      <point x="793" y="1361"/>
      <point x="852" y="1366"/>
      <point x="871" y="1334" type="qcurve" smooth="yes"/>
      <point x="890" y="1302"/>
      <point x="856" y="1254"/>
      <point x="831" y="1248" type="qcurve" smooth="yes"/>
      <point x="493" y="1112" type="line"/>
      <point x="494" y="1111" type="line"/>
      <point x="831" y="974" type="line" smooth="yes"/>
      <point x="856" y="968"/>
      <point x="890" y="919"/>
      <point x="871" y="887" type="qcurve" smooth="yes"/>
      <point x="852" y="855"/>
      <point x="793" y="860"/>
      <point x="776" y="878" type="qcurve" smooth="yes"/>
      <point x="489" y="1103" type="line"/>
      <point x="489" y="1102" type="line"/>
      <point x="539" y="742" type="line" smooth="yes"/>
      <point x="547" y="712"/>
      <point x="521" y="664"/>
    </contour>
  </outline>
</glyph>
<glyph name="plus" format="2">
  <advance width="1565"/>
  <unicode hex="002B"/>
  <outline>
    <contour>
      <point x="124" y="590" type="line"/>
      <point x="124" y="675" type="line"/>
      <point x="1441" y="675" type="line"/>
      <point x="1441" y="590" type="line"/>
    </contour>
    <contour>
      <point x="738" y="-27" type="line"/>
      <point x="738" y="1291" type="line"/>
      <point x="827" y="1291" type="line"/>
      <point x="827" y="-27" type="line"/>
    </contour>
  </outline>
</glyph>
<glyph name="comma" format="2">
  <advance width="672"/>
  <unicode hex="002C"/>
  <outline>
    <contour>
      <point x="216" y="-262" type="line"/>
      <point x="271" y="-233"/>
      <point x="416" y="-71"/>
      <point x="439" y="3" type="qcurve"/>
      <point x="361" y="-15"/>
      <point x="264" y="21"/>
      <point x="264" y="79" type="qcurve" smooth="yes"/>
      <point x="264" y="114"/>
      <point x="313" y="166"/>
      <point x="351" y="166" type="qcurve" smooth="yes"/>
      <point x="387" y="166"/>
      <point x="438" y="120"/>
      <point x="438" y="73" type="qcurve" smooth="yes"/>
      <point x="438" y="-21"/>
      <point x="311" y="-226"/>
      <point x="227" y="-277" type="qcurve"/>
    </contour>
  </outline>
</glyph>
<glyph name="hyphen" format="2">
  <advance width="1315"/>
  <unicode hex="002D"/>
  <outline>
    <contour>
      <point x="124" y="589" type="line"/>
      <point x="124" y="675" type="line"/>
      <point x="658" y="672" type="line"/>
      <point x="1191" y="675" type="line"/>
      <point x="1191" y="589" type="line"/>
      <point x="658" y="592" type="line"/>
    </contour>
  </outline>
</glyph>
<glyph name="period" format="2">
  <advance width="672"/>
  <unicode hex="002E"/>
  <outline>
    <contour>
      <point x="248" y="74" type="qcurve" smooth="yes"/>
      <point x="248" y="109"/>
      <point x="298" y="161"/>
      <point x="336" y="161" type="qcurve" smooth="yes"/>
      <point x="374" y="161"/>
      <point x="424" y="109"/>
      <point x="424" y="74" type="qcurve" smooth="yes"/>
      <point x="424" y="39"/>
      <point x="374" y="-14"/>
      <point x="336" y="-14" type="qcurve"/>
      <point x="298" y="-14"/>
      <point x="248" y="39"/>
    </contour>
  </outline>
</glyph>
<glyph name="slash" format="2">
  <advance width="1148"/>
  <unicode hex="002F"/>
  <outline>
    <contour>
      <point x="35" y="-121" type="line"/>
      <point x="1078" y="1554" type="line"/>
      <point x="1098" y="1515" type="line"/>
      <point x="55" y="-160" type="line"/>
    </contour>
  </outline>
</glyph>
<glyph name="zero" format="2">
  <advance width="1448"/>
  <unicode hex="0030"/>
  <outline>
    <contour>
      <point x="118" y="745" type="qcurve" smooth="yes"/>
      <point x="118" y="1090"/>
      <point x="462" y="1518"/>
      <point x="725" y="1518" type="qcurve" smooth="yes"/>
      <point x="996" y="1518"/>
      <point x="1330" y="1096"/>
      <point x="1330" y="753" type="qcurve" smooth="yes"/>
      <point x="1330" y="431"/>
      <point x="1000" y="-22"/>
      <point x="730" y="-22" type="qcurve" smooth="yes"/>
      <point x="457" y="-22"/>
      <point x="118" y="398"/>
    </contour>
    <contour>
      <point x="220" y="771" type="qcurve" smooth="yes"/>
      <point x="221" y="442"/>
      <point x="497" y="3"/>
      <point x="723" y="3" type="qcurve" smooth="yes"/>
      <point x="966" y="3"/>
      <point x="1226" y="406"/>
      <point x="1228" y="745" type="qcurve" smooth="yes"/>
      <point x="1230" y="1069"/>
      <point x="956" y="1490"/>
      <point x="726" y="1490" type="qcurve" smooth="yes"/>
      <point x="479" y="1490"/>
      <point x="219" y="1106"/>
    </contour>
  </outline>
</glyph>
<glyph name="one" format="2">
  <advance width="849"/>
  <unicode hex="0031"/>
  <outline>
    <contour>
      <point x="50" y="0" type="line"/>
      <point x="50" y="24" type="line"/>
      <point x="386" y="59" type="line"/>
      <point x="386" y="753" type="line"/>
      <point x="384" y="1429" type="line"/>
      <point x="48" y="1463" type="line"/>
      <point x="48" y="1488" type="line"/>
      <point x="457" y="1511" type="line"/>
      <point x="489" y="1476" type="line"/>
      <point x="483" y="753" type="line"/>
      <point x="483" y="59" type="line"/>
      <point x="819" y="24" type="line"/>
      <point x="819" y="0" type="line"/>
    </contour>
  </outline>
</glyph>
<glyph name="two" format="2">
  <advance width="1354"/>
  <unicode hex="0032"/>
  <outline>
    <contour>
      <point x="76" y="1" type="line"/>
      <point x="76" y="122" type="line"/>
      <point x="115" y="246"/>
      <point x="380" y="486"/>
      <point x="650" y="637" type="qcurve" smooth="yes"/>
      <point x="947" y="808"/>
      <point x="1136" y="1006"/>
      <point x="1136" y="1174" type="qcurve" smooth="yes"/>
      <point x="1136" y="1336"/>
      <point x="929" y="1490"/>
      <point x="749" y="1490" type="qcurve" smooth="yes"/>
      <point x="554" y="1490"/>
      <point x="214" y="1396"/>
      <point x="84" y="1273" type="qcurve"/>
      <point x="66" y="1292" type="line"/>
      <point x="133" y="1378"/>
      <point x="445" y="1518"/>
      <point x="690" y="1518" type="qcurve" smooth="yes"/>
      <point x="926" y="1518"/>
      <point x="1242" y="1319"/>
      <point x="1242" y="1132" type="qcurve" smooth="yes"/>
      <point x="1242" y="931"/>
      <point x="846" y="661"/>
      <point x="687" y="576" type="qcurve" smooth="yes"/>
      <point x="499" y="476"/>
      <point x="129" y="243"/>
      <point x="91" y="103" type="qcurve"/>
      <point x="101" y="92" type="line"/>
      <point x="1300" y="92" type="line"/>
      <point x="1300" y="1" type="line"/>
    </contour>
  </outline>
</glyph>
<glyph name="three" format="2">
  <advance width="1388"/>
  <unicode hex="0033"/>
  <outline>
    <contour>
      <point x="48" y="143" type="qcurve"/>
      <point x="64" y="165" type="line"/>
      <point x="167" y="88"/>
      <point x="489" y="5"/>
      <point x="668" y="5" type="qcurve" smooth="yes"/>
      <point x="868" y="5"/>
      <point x="1128" y="186"/>
      <point x="1128" y="375" type="qcurve" smooth="yes"/>
      <point x="1128" y="584"/>
      <point x="756" y="775"/>
      <point x="466" y="777" type="qcurve" smooth="yes"/>
      <point x="377" y="777" type="line"/>
      <point x="350" y="801" type="line"/>
      <point x="493" y="806" type="line" smooth="yes"/>
      <point x="771" y="816"/>
      <point x="1078" y="1035"/>
      <point x="1078" y="1213" type="qcurve" smooth="yes"/>
      <point x="1078" y="1347"/>
      <point x="874" y="1491"/>
      <point x="712" y="1491" type="qcurve" smooth="yes"/>
      <point x="543" y="1491"/>
      <point x="265" y="1412"/>
      <point x="125" y="1315" type="qcurve"/>
      <point x="111" y="1338" type="line"/>
      <point x="210" y="1423"/>
      <point x="474" y="1518"/>
      <point x="656" y="1518" type="qcurve" smooth="yes"/>
      <point x="899" y="1518"/>
      <point x="1184" y="1330"/>
      <point x="1184" y="1182" type="qcurve" smooth="yes"/>
      <point x="1184" y="1026"/>
      <point x="961" y="843"/>
      <point x="727" y="799" type="qcurve"/>
      <point x="726" y="792" type="line"/>
      <point x="980" y="777"/>
      <point x="1234" y="587"/>
      <point x="1234" y="397" type="qcurve" smooth="yes"/>
      <point x="1234" y="189"/>
      <point x="876" y="-22"/>
      <point x="591" y="-22" type="qcurve" smooth="yes"/>
      <point x="427" y="-22"/>
      <point x="116" y="67"/>
    </contour>
  </outline>
</glyph>
<glyph name="four" format="2">
  <advance width="1677"/>
  <unicode hex="0034"/>
  <outline>
    <contour>
      <point x="92" y="553" type="line"/>
      <point x="1157" y="1545" type="line"/>
      <point x="1212" y="1508" type="line"/>
      <point x="1231" y="1492" type="line"/>
      <point x="1225" y="526" type="line"/>
      <point x="1225" y="59" type="line"/>
      <point x="1531" y="24" type="line"/>
      <point x="1531" y="0" type="line"/>
      <point x="807" y="0" type="line"/>
      <point x="807" y="24" type="line"/>
      <point x="1123" y="59" type="line"/>
      <point x="1132" y="524" type="line"/>
      <point x="1132" y="1511" type="line"/>
      <point x="154" y="573" type="line"/>
      <point x="160" y="563" type="line"/>
      <point x="1593" y="537" type="line"/>
      <point x="1593" y="516" type="line"/>
      <point x="112" y="512" type="line"/>
    </contour>
  </outline>
</glyph>
<glyph name="five" format="2">
  <advance width="1420"/>
  <unicode hex="0035"/>
  <outline>
    <contour>
      <point x="46" y="143" type="qcurve"/>
      <point x="86" y="166" type="line"/>
      <point x="179" y="100"/>
      <point x="464" y="8"/>
      <point x="639" y="8" type="qcurve" smooth="yes"/>
      <point x="850" y="8"/>
      <point x="1126" y="191"/>
      <point x="1126" y="389" type="qcurve" smooth="yes"/>
      <point x="1126" y="584"/>
      <point x="714" y="828"/>
      <point x="313" y="828" type="qcurve" smooth="yes"/>
      <point x="193" y="828" type="line"/>
      <point x="175" y="849" type="line"/>
      <point x="243" y="1465" type="line"/>
      <point x="270" y="1498" type="line"/>
      <point x="1134" y="1498" type="line"/>
      <point x="1129" y="1401" type="line"/>
      <point x="270" y="1401" type="line"/>
      <point x="260" y="1390" type="line"/>
      <point x="199" y="857" type="line"/>
      <point x="483" y="896" type="line"/>
      <point x="799" y="896"/>
      <point x="1234" y="695"/>
      <point x="1234" y="482" type="qcurve" smooth="yes"/>
      <point x="1234" y="261"/>
      <point x="862" y="-22"/>
      <point x="611" y="-22" type="qcurve" smooth="yes"/>
      <point x="407" y="-22"/>
      <point x="125" y="63"/>
    </contour>
  </outline>
</glyph>
<glyph name="six" format="2">
  <advance width="1413"/>
  <unicode hex="0036"/>
  <outline>
    <contour>
      <point x="118" y="618" type="qcurve" smooth="yes"/>
      <point x="118" y="946"/>
      <point x="673" y="1457"/>
      <point x="1162" y="1577" type="qcurve"/>
      <point x="1171" y="1553" type="line"/>
      <point x="738" y="1450"/>
      <point x="219" y="958"/>
      <point x="219" y="615" type="qcurve" smooth="yes"/>
      <point x="219" y="333"/>
      <point x="539" y="3"/>
      <point x="780" y="3" type="qcurve" smooth="yes"/>
      <point x="986" y="3"/>
      <point x="1210" y="251"/>
      <point x="1210" y="456" type="qcurve" smooth="yes"/>
      <point x="1210" y="657"/>
      <point x="947" y="858"/>
      <point x="750" y="858" type="qcurve" smooth="yes"/>
      <point x="682" y="858"/>
      <point x="515" y="829"/>
      <point x="433" y="786" type="qcurve"/>
      <point x="416" y="806" type="line"/>
      <point x="485" y="866"/>
      <point x="696" y="925"/>
      <point x="786" y="925" type="qcurve" smooth="yes"/>
      <point x="1005" y="925"/>
      <point x="1318" y="685"/>
      <point x="1318" y="473" type="qcurve" smooth="yes"/>
      <point x="1318" y="258"/>
      <point x="991" y="-22"/>
      <point x="766" y="-22" type="qcurve" smooth="yes"/>
      <point x="473" y="-22"/>
      <point x="118" y="337"/>
    </contour>
  </outline>
</glyph>
<glyph name="seven" format="2">
  <advance width="1435"/>
  <unicode hex="0037"/>
  <outline>
    <contour>
      <point x="115" y="1273" type="line"/>
      <point x="127" y="1498" type="line"/>
      <point x="1342" y="1498" type="line"/>
      <point x="1342" y="1440" type="line"/>
      <point x="853" y="629" type="line"/>
      <point x="503" y="-13" type="line"/>
      <point x="386" y="-13" type="line"/>
      <point x="386" y="37" type="line"/>
      <point x="816" y="643" type="line"/>
      <point x="1335" y="1382" type="line"/>
      <point x="1305" y="1405" type="line"/>
      <point x="166" y="1405" type="line"/>
      <point x="145" y="1273" type="line"/>
    </contour>
  </outline>
</glyph>
<glyph name="eight" format="2">
  <advance width="1536"/>
  <unicode hex="0038"/>
  <outline>
    <contour>
      <point x="121" y="385" type="qcurve" smooth="yes"/>
      <point x="121" y="569"/>
      <point x="466" y="778"/>
      <point x="703" y="853" type="qcurve"/>
      <point x="793" y="838" type="line"/>
      <point x="510" y="769"/>
      <point x="150" y="573"/>
      <point x="150" y="389" type="qcurve" smooth="yes"/>
      <point x="150" y="239"/>
      <point x="487" y="3"/>
      <point x="774" y="3" type="qcurve" smooth="yes"/>
      <point x="1040" y="3"/>
      <point x="1369" y="219"/>
      <point x="1369" y="361" type="qcurve" smooth="yes"/>
      <point x="1369" y="492"/>
      <point x="1172" y="733"/>
      <point x="878" y="819" type="qcurve" smooth="yes"/>
      <point x="570" y="909"/>
      <point x="255" y="1047"/>
      <point x="255" y="1169" type="qcurve" smooth="yes"/>
      <point x="255" y="1332"/>
      <point x="569" y="1528"/>
      <point x="822" y="1528" type="qcurve" smooth="yes"/>
      <point x="1064" y="1528"/>
      <point x="1329" y="1348"/>
      <point x="1329" y="1220" type="qcurve" smooth="yes"/>
      <point x="1329" y="1094"/>
      <point x="1098" y="916"/>
      <point x="844" y="856" type="qcurve"/>
      <point x="798" y="872" type="line"/>
      <point x="1064" y="926"/>
      <point x="1293" y="1100"/>
      <point x="1292" y="1220" type="qcurve" smooth="yes"/>
      <point x="1291" y="1334"/>
      <point x="1052" y="1503"/>
      <point x="810" y="1503" type="qcurve" smooth="yes"/>
      <point x="608" y="1503"/>
      <point x="358" y="1334"/>
      <point x="358" y="1202" type="qcurve" smooth="yes"/>
      <point x="358" y="1085"/>
      <point x="580" y="931"/>
      <point x="913" y="844" type="qcurve" smooth="yes"/>
      <point x="1241" y="758"/>
      <point x="1462" y="554"/>
      <point x="1462" y="402" type="qcurve" smooth="yes"/>
      <point x="1462" y="233"/>
      <point x="1086" y="-22"/>
      <point x="755" y="-22" type="qcurve" smooth="yes"/>
      <point x="465" y="-22"/>
      <point x="121" y="227"/>
    </contour>
  </outline>
</glyph>
<glyph name="nine" format="2">
  <advance width="1412"/>
  <unicode hex="0039"/>
  <outline>
    <contour>
      <point x="95" y="1001" type="qcurve" smooth="yes"/>
      <point x="95" y="1232"/>
      <point x="429" y="1517"/>
      <point x="671" y="1517" type="qcurve" smooth="yes"/>
      <point x="941" y="1517"/>
      <point x="1294" y="1153"/>
      <point x="1294" y="872" type="qcurve" smooth="yes"/>
      <point x="1294" y="544"/>
      <point x="749" y="23"/>
      <point x="262" y="-87" type="qcurve"/>
      <point x="254" y="-63" type="line"/>
      <point x="697" y="60"/>
      <point x="1206" y="502"/>
      <point x="1206" y="875" type="qcurve" smooth="yes"/>
      <point x="1206" y="1174"/>
      <point x="891" y="1492"/>
      <point x="678" y="1492" type="qcurve" smooth="yes"/>
      <point x="452" y="1492"/>
      <point x="216" y="1252"/>
      <point x="216" y="1035" type="qcurve" smooth="yes"/>
      <point x="216" y="833"/>
      <point x="490" y="632"/>
      <point x="724" y="632" type="qcurve" smooth="yes"/>
      <point x="810" y="632"/>
      <point x="920" y="656"/>
      <point x="1005" y="700" type="qcurve"/>
      <point x="1015" y="665" type="line"/>
      <point x="944" y="610"/>
      <point x="773" y="565"/>
      <point x="653" y="565" type="qcurve" smooth="yes"/>
      <point x="400" y="565"/>
      <point x="95" y="805"/>
    </contour>
  </outline>
</glyph>
<glyph name="colon" format="2">
  <advance width="752"/>
  <unicode hex="003A"/>
  <outline>
    <contour>
      <point x="287" y="75" type="qcurve" smooth="yes"/>
      <point x="287" y="111"/>
      <point x="337" y="163"/>
      <point x="375" y="163" type="qcurve" smooth="yes"/>
      <point x="413" y="163"/>
      <point x="463" y="111"/>
      <point x="463" y="75" type="qcurve" smooth="yes"/>
      <point x="463" y="41"/>
      <point x="413" y="-12"/>
      <point x="375" y="-12" type="qcurve" smooth="yes"/>
      <point x="337" y="-12"/>
      <point x="287" y="41"/>
    </contour>
    <contour>
      <point x="288" y="935" type="qcurve" smooth="yes"/>
      <point x="288" y="971"/>
      <point x="338" y="1023"/>
      <point x="376" y="1023" type="qcurve" smooth="yes"/>
      <point x="414" y="1023"/>
      <point x="464" y="971"/>
      <point x="464" y="935" type="qcurve" smooth="yes"/>
      <point x="464" y="901"/>
      <point x="414" y="848"/>
      <point x="376" y="848" type="qcurve" smooth="yes"/>
      <point x="338" y="848"/>
      <point x="288" y="901"/>
    </contour>
  </outline>
</glyph>
<glyph name="semicolon" format="2">
  <advance width="752"/>
  <unicode hex="003B"/>
  <outline>
    <contour>
      <point x="256" y="-264" type="line"/>
      <point x="313" y="-234"/>
      <point x="453" y="-71"/>
      <point x="475" y="2" type="qcurve"/>
      <point x="398" y="-14"/>
      <point x="303" y="23"/>
      <point x="303" y="78" type="qcurve" smooth="yes"/>
      <point x="303" y="113"/>
      <point x="352" y="165"/>
      <point x="390" y="165" type="qcurve" smooth="yes"/>
      <point x="426" y="165"/>
      <point x="477" y="119"/>
      <point x="477" y="72" type="qcurve" smooth="yes"/>
      <point x="477" y="-21"/>
      <point x="351" y="-226"/>
      <point x="266" y="-277" type="qcurve"/>
    </contour>
    <contour>
      <point x="288" y="935" type="qcurve" smooth="yes"/>
      <point x="288" y="971"/>
      <point x="338" y="1023"/>
      <point x="376" y="1023" type="qcurve" smooth="yes"/>
      <point x="414" y="1023"/>
      <point x="464" y="971"/>
      <point x="464" y="935" type="qcurve" smooth="yes"/>
      <point x="464" y="901"/>
      <point x="414" y="848"/>
      <point x="376" y="848" type="qcurve" smooth="yes"/>
      <point x="338" y="848"/>
      <point x="288" y="901"/>
    </contour>
  </outline>
</glyph>
<glyph name="less" format="2">
  <advance width="1550"/>
  <unicode hex="003C"/>
  <outline>
    <contour>
      <point x="213" y="634" type="qcurve"/>
      <point x="216" y="638"/>
      <point x="1225" y="1102"/>
      <point x="1254" y="1093" type="qcurve" smooth="yes"/>
      <point x="1279" y="1084"/>
      <point x="1279" y="1037"/>
      <point x="1239" y="1041" type="qcurve" smooth="yes"/>
      <point x="1151" y="1057"/>
      <point x="447" y="636"/>
      <point x="441" y="636" type="qcurve"/>
      <point x="447" y="636"/>
      <point x="1145" y="243"/>
      <point x="1237" y="251" type="qcurve" smooth="yes"/>
      <point x="1272" y="257"/>
      <point x="1287" y="209"/>
      <point x="1258" y="196" type="qcurve" smooth="yes"/>
      <point x="1226" y="181"/>
      <point x="215" y="630"/>
    </contour>
  </outline>
</glyph>
<glyph name="equal" format="2">
  <advance width="1673"/>
  <unicode hex="003D"/>
  <outline>
    <contour>
      <point x="154" y="370" type="line"/>
      <point x="154" y="469" type="line"/>
      <point x="833" y="465" type="line"/>
      <point x="1519" y="469" type="line"/>
      <point x="1519" y="370" type="line"/>
      <point x="833" y="374" type="line"/>
    </contour>
    <contour>
      <point x="154" y="772" type="line"/>
      <point x="154" y="871" type="line"/>
      <point x="833" y="867" type="line"/>
      <point x="1519" y="871" type="line"/>
      <point x="1519" y="772" type="line"/>
      <point x="833" y="776" type="line"/>
    </contour>
  </outline>
</glyph>
<glyph name="greater" format="2">
  <advance width="1565"/>
  <unicode hex="003E"/>
  <outline>
    <contour>
      <point x="322" y="214" type="qcurve" smooth="yes"/>
      <point x="408" y="197"/>
      <point x="1118" y="615"/>
      <point x="1124" y="615" type="qcurve"/>
      <point x="1118" y="615"/>
      <point x="425" y="1008"/>
      <point x="332" y="1000" type="qcurve" smooth="yes"/>
      <point x="294" y="995"/>
      <point x="282" y="1042"/>
      <point x="311" y="1055" type="qcurve" smooth="yes"/>
      <point x="343" y="1071"/>
      <point x="1349" y="621"/>
      <point x="1352" y="617" type="qcurve"/>
      <point x="1349" y="613"/>
      <point x="336" y="155"/>
      <point x="308" y="162" type="qcurve" smooth="yes"/>
      <point x="282" y="170"/>
      <point x="285" y="222"/>
    </contour>
  </outline>
</glyph>
<glyph name="question" format="2">
  <advance width="1362"/>
  <unicode hex="003F"/>
  <outline>
    <contour>
      <point x="433" y="65" type="qcurve" smooth="yes"/>
      <point x="433" y="100"/>
      <point x="482" y="152"/>
      <point x="521" y="152" type="qcurve" smooth="yes"/>
      <point x="559" y="152"/>
      <point x="608" y="100"/>
      <point x="608" y="65" type="qcurve" smooth="yes"/>
      <point x="608" y="30"/>
      <point x="559" y="-22"/>
      <point x="521" y="-22" type="qcurve" smooth="yes"/>
      <point x="482" y="-22"/>
      <point x="433" y="30"/>
    </contour>
    <contour>
      <point x="132" y="1255" type="qcurve" smooth="yes"/>
      <point x="132" y="1382"/>
      <point x="377" y="1540"/>
      <point x="611" y="1540" type="qcurve" smooth="yes"/>
      <point x="835" y="1540"/>
      <point x="1100" y="1341"/>
      <point x="1100" y="1163" type="qcurve" smooth="yes"/>
      <point x="1100" y="965"/>
      <point x="911" y="839"/>
      <point x="743" y="756" type="qcurve" smooth="yes"/>
      <point x="657" y="710"/>
      <point x="521" y="602"/>
      <point x="522" y="522" type="qcurve" smooth="yes"/>
      <point x="522" y="435" type="line"/>
      <point x="499" y="435" type="line"/>
      <point x="493" y="519" type="line" smooth="yes"/>
      <point x="487" y="595"/>
      <point x="570" y="738"/>
      <point x="721" y="809" type="qcurve" smooth="yes"/>
      <point x="853" y="871"/>
      <point x="996" y="1000"/>
      <point x="996" y="1178" type="qcurve" smooth="yes"/>
      <point x="996" y="1352"/>
      <point x="770" y="1515"/>
      <point x="593" y="1515" type="qcurve" smooth="yes"/>
      <point x="417" y="1515"/>
      <point x="221" y="1412"/>
      <point x="221" y="1321" type="qcurve" smooth="yes"/>
      <point x="221" y="1267"/>
      <point x="296" y="1232"/>
      <point x="297" y="1202" type="qcurve" smooth="yes"/>
      <point x="299" y="1177"/>
      <point x="261" y="1138"/>
      <point x="224" y="1138" type="qcurve" smooth="yes"/>
      <point x="183" y="1138"/>
      <point x="132" y="1199"/>
    </contour>
  </outline>
</glyph>
<glyph name="at" format="2">
  <advance width="2398"/>
  <unicode hex="0040"/>
  <outline>
    <contour>
      <point x="124" y="734" type="qcurve" smooth="yes"/>
      <point x="124" y="1062"/>
      <point x="716" y="1520"/>
      <point x="1189" y="1520" type="qcurve" smooth="yes"/>
      <point x="1636" y="1520"/>
      <point x="2239" y="1154"/>
      <point x="2239" y="881" type="qcurve" smooth="yes"/>
      <point x="2239" y="630"/>
      <point x="2088" y="344"/>
      <point x="1806" y="344" type="qcurve" smooth="yes"/>
      <point x="1717" y="344"/>
      <point x="1628" y="420"/>
      <point x="1612" y="502" type="qcurve"/>
      <point x="1536" y="424"/>
      <point x="1255" y="317"/>
      <point x="1101" y="317" type="qcurve" smooth="yes"/>
      <point x="917" y="317"/>
      <point x="691" y="453"/>
      <point x="691" y="544" type="qcurve" smooth="yes"/>
      <point x="691" y="662"/>
      <point x="1081" y="842"/>
      <point x="1644" y="842" type="qcurve"/>
      <point x="1648" y="822" type="line"/>
      <point x="1262" y="816"/>
      <point x="780" y="667"/>
      <point x="780" y="533" type="qcurve" smooth="yes"/>
      <point x="780" y="430"/>
      <point x="974" y="363"/>
      <point x="1094" y="363" type="qcurve" smooth="yes"/>
      <point x="1237" y="363"/>
      <point x="1541" y="474"/>
      <point x="1596" y="524" type="qcurve"/>
      <point x="1602" y="924" type="line" smooth="yes"/>
      <point x="1605" y="1072"/>
      <point x="1384" y="1190"/>
      <point x="1180" y="1190" type="qcurve" smooth="yes"/>
      <point x="1016" y="1190"/>
      <point x="832" y="1135"/>
      <point x="819" y="1105" type="qcurve"/>
      <point x="853" y="1074"/>
      <point x="887" y="1014"/>
      <point x="889" y="1001" type="qcurve" smooth="yes"/>
      <point x="894" y="978"/>
      <point x="867" y="945"/>
      <point x="842" y="945" type="qcurve" smooth="yes"/>
      <point x="815" y="945"/>
      <point x="784" y="990"/>
      <point x="784" y="1030" type="qcurve" smooth="yes"/>
      <point x="784" y="1112"/>
      <point x="1009" y="1213"/>
      <point x="1218" y="1213" type="qcurve" smooth="yes"/>
      <point x="1493" y="1213"/>
      <point x="1689" y="1042"/>
      <point x="1682" y="854" type="qcurve" smooth="yes"/>
      <point x="1689" y="445" type="line" smooth="yes"/>
      <point x="1689" y="413"/>
      <point x="1752" y="374"/>
      <point x="1865" y="374" type="qcurve"/>
      <point x="2069" y="374"/>
      <point x="2209" y="658"/>
      <point x="2209" y="880" type="qcurve" smooth="yes"/>
      <point x="2209" y="1132"/>
      <point x="1640" y="1491"/>
      <point x="1181" y="1491" type="qcurve" smooth="yes"/>
      <point x="712" y="1491"/>
      <point x="155" y="1048"/>
      <point x="155" y="739" type="qcurve" smooth="yes"/>
      <point x="155" y="430"/>
      <point x="731" y="-2"/>
      <point x="1179" y="-2" type="qcurve" smooth="yes"/>
      <point x="1404" y="-2"/>
      <point x="1698" y="84"/>
      <point x="1767" y="129" type="qcurve"/>
      <point x="1775" y="108" type="line"/>
      <point x="1700" y="57"/>
      <point x="1416" y="-30"/>
      <point x="1185" y="-30" type="qcurve" smooth="yes"/>
      <point x="725" y="-30"/>
      <point x="124" y="399"/>
    </contour>
  </outline>
</glyph>
<glyph name="A" format="2">
  <advance width="1931"/>
  <unicode hex="0041"/>
  <anchor x="949" y="0" name="bottom"/>
  <anchor x="1518" y="0" name="ogonek"/>
  <anchor x="692" y="1500" name="tonos"/>
  <anchor x="953" y="1500" name="top"/>
  <outline>
    <contour>
      <point x="7" y="0" type="line"/>
      <point x="7" y="20" type="line"/>
      <point x="175" y="55" type="line"/>
      <point x="438" y="556" type="line"/>
      <point x="972" y="1508" type="line"/>
      <point x="959" y="1508" type="line"/>
      <point x="1495" y="548" type="line"/>
      <point x="1770" y="55" type="line"/>
      <point x="1928" y="20" type="line"/>
      <point x="1928" y="0" type="line"/>
      <point x="1439" y="0" type="line"/>
      <point x="1439" y="20" type="line"/>
      <point x="1659" y="51" type="line"/>
      <point x="1398" y="507" type="line"/>
      <point x="991" y="1222" type="line"/>
      <point x="924" y="1336" type="line"/>
      <point x="907" y="1336" type="line"/>
      <point x="851" y="1222" type="line"/>
      <point x="473" y="493" type="line"/>
      <point x="213" y="50" type="line"/>
      <point x="429" y="20" type="line"/>
      <point x="429" y="0" type="line"/>
    </contour>
    <contour>
      <point x="957" y="513" type="line"/>
      <point x="1388" y="514" type="line"/>
      <point x="1430" y="489" type="line"/>
      <point x="957" y="489" type="line"/>
    </contour>
    <contour>
      <point x="449" y="489" type="line"/>
      <point x="493" y="516" type="line"/>
      <point x="957" y="513" type="line"/>
      <point x="957" y="489" type="line"/>
    </contour>
  </outline>
</glyph>
<glyph name="B" format="2">
  <advance width="1437"/>
  <unicode hex="0042"/>
  <anchor x="739" y="0" name="bottom"/>
  <anchor x="739" y="1500" name="top"/>
  <outline>
    <contour>
      <point x="114" y="0" type="line"/>
      <point x="114" y="20" type="line"/>
      <point x="334" y="56" type="line"/>
      <point x="337" y="784" type="line"/>
      <point x="334" y="1443" type="line"/>
      <point x="114" y="1477" type="line"/>
      <point x="114" y="1500" type="line"/>
      <point x="710" y="1500" type="line" smooth="yes"/>
      <point x="961" y="1500"/>
      <point x="1199" y="1315"/>
      <point x="1199" y="1172" type="qcurve" smooth="yes"/>
      <point x="1199" y="1037"/>
      <point x="1072" y="854"/>
      <point x="958" y="831" type="qcurve"/>
      <point x="958" y="821" type="line"/>
      <point x="1112" y="797"/>
      <point x="1327" y="601"/>
      <point x="1327" y="433" type="qcurve" smooth="yes"/>
      <point x="1327" y="246"/>
      <point x="1014" y="0"/>
      <point x="735" y="0" type="qcurve" smooth="yes"/>
    </contour>
    <contour>
      <point x="434" y="51" type="line"/>
      <point x="467" y="26" type="line"/>
      <point x="692" y="26" type="line" smooth="yes"/>
      <point x="965" y="26"/>
      <point x="1225" y="216"/>
      <point x="1225" y="421" type="qcurve" smooth="yes"/>
      <point x="1225" y="596"/>
      <point x="999" y="783"/>
      <point x="789" y="783" type="qcurve" smooth="yes"/>
      <point x="443" y="783" type="line"/>
      <point x="434" y="766" type="line"/>
    </contour>
    <contour>
      <point x="433" y="825" type="line"/>
      <point x="442" y="808" type="line"/>
      <point x="676" y="808" type="line" smooth="yes"/>
      <point x="884" y="808"/>
      <point x="1097" y="986"/>
      <point x="1097" y="1164" type="qcurve" smooth="yes"/>
      <point x="1097" y="1325"/>
      <point x="890" y="1472"/>
      <point x="691" y="1472" type="qcurve" smooth="yes"/>
      <point x="464" y="1472" type="line"/>
      <point x="435" y="1449" type="line"/>
    </contour>
  </outline>
</glyph>
<glyph name="C" format="2">
  <advance width="1848"/>
  <unicode hex="0043"/>
  <anchor x="964" y="0" name="bottom"/>
  <anchor x="966" y="1500" name="top"/>
  <outline>
    <contour>
      <point x="124" y="746" type="qcurve" smooth="yes"/>
      <point x="124" y="1085"/>
      <point x="600" y="1520"/>
      <point x="1026" y="1520" type="qcurve" smooth="yes"/>
      <point x="1185" y="1520"/>
      <point x="1458" y="1462"/>
      <point x="1530" y="1422" type="qcurve"/>
      <point x="1544" y="1500" type="line"/>
      <point x="1562" y="1500" type="line"/>
      <point x="1562" y="1149" type="line"/>
      <point x="1529" y="1149" type="line"/>
      <point x="1484" y="1299" type="line" smooth="yes"/>
      <point x="1456" y="1397"/>
      <point x="1200" y="1492"/>
      <point x="1018" y="1492" type="qcurve" smooth="yes"/>
      <point x="653" y="1492"/>
      <point x="224" y="1110"/>
      <point x="228" y="740" type="qcurve" smooth="yes"/>
      <point x="230" y="387"/>
      <point x="642" y="1"/>
      <point x="985" y="1" type="qcurve" smooth="yes"/>
      <point x="1232" y="1"/>
      <point x="1597" y="137"/>
      <point x="1714" y="263" type="qcurve"/>
      <point x="1764" y="245" type="line"/>
      <point x="1634" y="110"/>
      <point x="1247" y="-30"/>
      <point x="1029" y="-30" type="qcurve" smooth="yes"/>
      <point x="607" y="-30"/>
      <point x="124" y="371"/>
    </contour>
  </outline>
</glyph>
<glyph name="D" format="2">
  <advance width="1914"/>
  <unicode hex="0044"/>
  <anchor x="921" y="0" name="bottom"/>
  <anchor x="297" y="754" name="center"/>
  <anchor x="921" y="1500" name="top"/>
  <outline>
    <contour>
      <point x="114" y="0" type="line"/>
      <point x="114" y="20" type="line"/>
      <point x="334" y="55" type="line"/>
      <point x="335" y="754" type="line"/>
      <point x="334" y="1443" type="line"/>
      <point x="114" y="1477" type="line"/>
      <point x="114" y="1500" type="line"/>
      <point x="799" y="1500" type="line" smooth="yes"/>
      <point x="1246" y="1500"/>
      <point x="1790" y="1119"/>
      <point x="1790" y="777" type="qcurve" smooth="yes"/>
      <point x="1790" y="410"/>
      <point x="1243" y="0"/>
      <point x="740" y="0" type="qcurve" smooth="yes"/>
    </contour>
    <contour>
      <point x="434" y="41" type="line"/>
      <point x="485" y="33"/>
      <point x="631" y="26"/>
      <point x="811" y="26" type="qcurve" smooth="yes"/>
      <point x="1196" y="26"/>
      <point x="1681" y="394"/>
      <point x="1685" y="761" type="qcurve" smooth="yes"/>
      <point x="1687" y="1105"/>
      <point x="1179" y="1473"/>
      <point x="757" y="1473" type="qcurve" smooth="yes"/>
      <point x="632" y="1473"/>
      <point x="489" y="1464"/>
      <point x="434" y="1456" type="qcurve"/>
      <point x="431" y="754" type="line"/>
    </contour>
  </outline>
</glyph>
<glyph name="E" format="2">
  <advance width="1611"/>
  <unicode hex="0045"/>
  <anchor x="748" y="0" name="bottom"/>
  <anchor x="1279" y="0" name="ogonek"/>
  <anchor x="826" y="1500" name="top"/>
  <anchor x="73" y="1500" name="tonos"/>
  <outline>
    <contour>
      <point x="114" y="0" type="line"/>
      <point x="114" y="20" type="line"/>
      <point x="334" y="57" type="line"/>
      <point x="335" y="783" type="line"/>
      <point x="334" y="1443" type="line"/>
      <point x="114" y="1477" type="line"/>
      <point x="114" y="1500" type="line"/>
      <point x="1378" y="1500" type="line"/>
      <point x="1378" y="1235" type="line"/>
      <point x="1346" y="1235" type="line"/>
      <point x="1315" y="1474" type="line"/>
      <point x="462" y="1474" type="line"/>
      <point x="433" y="1454" type="line"/>
      <point x="432" y="783" type="line"/>
      <point x="433" y="48" type="line"/>
      <point x="463" y="24" type="line"/>
      <point x="1378" y="24" type="line"/>
      <point x="1446" y="299" type="line"/>
      <point x="1479" y="299" type="line"/>
      <point x="1442" y="0" type="line"/>
    </contour>
    <contour>
      <point x="385" y="774" type="line"/>
      <point x="385" y="796" type="line"/>
      <point x="1169" y="798" type="line"/>
      <point x="1200" y="958" type="line"/>
      <point x="1232" y="958" type="line"/>
      <point x="1232" y="612" type="line"/>
      <point x="1200" y="612" type="line"/>
      <point x="1169" y="772" type="line"/>
    </contour>
  </outline>
</glyph>
<glyph name="F" format="2">
  <advance width="1414"/>
  <unicode hex="0046"/>
  <anchor x="605" y="0" name="bottom"/>
  <anchor x="759" y="1500" name="top"/>
  <outline>
    <contour>
      <point x="114" y="0" type="line"/>
      <point x="114" y="20" type="line"/>
      <point x="334" y="57" type="line"/>
      <point x="335" y="760" type="line"/>
      <point x="334" y="1443" type="line"/>
      <point x="114" y="1477" type="line"/>
      <point x="114" y="1500" type="line"/>
      <point x="1282" y="1500" type="line"/>
      <point x="1282" y="1226" type="line"/>
      <point x="1250" y="1226" type="line"/>
      <point x="1219" y="1474" type="line"/>
      <point x="464" y="1474" type="line"/>
      <point x="434" y="1454" type="line"/>
      <point x="432" y="760" type="line"/>
      <point x="434" y="52" type="line"/>
      <point x="674" y="20" type="line"/>
      <point x="674" y="0" type="line"/>
    </contour>
    <contour>
      <point x="384" y="748" type="line"/>
      <point x="384" y="771" type="line"/>
      <point x="1073" y="772" type="line"/>
      <point x="1104" y="941" type="line"/>
      <point x="1136" y="941" type="line"/>
      <point x="1136" y="569" type="line"/>
      <point x="1104" y="569" type="line"/>
      <point x="1073" y="747" type="line"/>
    </contour>
  </outline>
</glyph>
<glyph name="G" format="2">
  <advance width="1963"/>
  <unicode hex="0047"/>
  <anchor x="1060" y="0" name="bottom"/>
  <anchor x="1042" y="1500" name="top"/>
  <outline>
    <contour>
      <point x="124" y="744" type="qcurve" smooth="yes"/>
      <point x="124" y="1068"/>
      <point x="661" y="1520"/>
      <point x="1090" y="1520" type="qcurve" smooth="yes"/>
      <point x="1287" y="1520"/>
      <point x="1592" y="1459"/>
      <point x="1662" y="1427" type="qcurve"/>
      <point x="1689" y="1500" type="line"/>
      <point x="1714" y="1499" type="line"/>
      <point x="1714" y="1043" type="line"/>
      <point x="1684" y="1044" type="line"/>
      <point x="1627" y="1193" type="line" smooth="yes"/>
      <point x="1578" y="1345"/>
      <point x="1307" y="1491"/>
      <point x="1109" y="1491" type="qcurve" smooth="yes"/>
      <point x="686" y="1491"/>
      <point x="226" y="1107"/>
      <point x="229" y="768" type="qcurve" smooth="yes"/>
      <point x="231" y="432"/>
      <point x="713" y="-3"/>
      <point x="1134" y="-3" type="qcurve" smooth="yes"/>
      <point x="1306" y="-3"/>
      <point x="1608" y="129"/>
      <point x="1697" y="226" type="qcurve"/>
      <point x="1697" y="603" type="line"/>
      <point x="1486" y="638" type="line"/>
      <point x="1486" y="658" type="line"/>
      <point x="1935" y="658" type="line"/>
      <point x="1935" y="638" type="line"/>
      <point x="1792" y="603" type="line"/>
      <point x="1792" y="219" type="line"/>
      <point x="1692" y="122"/>
      <point x="1345" y="-30"/>
      <point x="1112" y="-30" type="qcurve" smooth="yes"/>
      <point x="677" y="-30"/>
      <point x="124" y="394"/>
    </contour>
  </outline>
</glyph>
<glyph name="K" format="2">
  <advance width="1753"/>
  <unicode hex="004B"/>
  <anchor x="840" y="0" name="bottom"/>
  <anchor x="798" y="1500" name="top"/>
  <outline>
    <contour>
      <point x="114" y="0" type="line"/>
      <point x="114" y="20" type="line"/>
      <point x="334" y="55" type="line"/>
      <point x="335" y="754" type="line"/>
      <point x="334" y="1443" type="line"/>
      <point x="114" y="1477" type="line"/>
      <point x="114" y="1500" type="line"/>
      <point x="644" y="1500" type="line"/>
      <point x="644" y="1477" type="line"/>
      <point x="434" y="1443" type="line"/>
      <point x="432" y="752" type="line"/>
      <point x="434" y="53" type="line"/>
      <point x="654" y="20" type="line"/>
      <point x="654" y="0" type="line"/>
    </contour>
    <contour>
      <point x="420" y="600" type="line"/>
      <point x="420" y="619" type="line"/>
      <point x="1468" y="1429" type="line"/>
      <point x="1225" y="1477" type="line"/>
      <point x="1225" y="1500" type="line"/>
      <point x="1630" y="1500" type="line"/>
      <point x="1630" y="1477" type="line"/>
      <point x="1526" y="1429" type="line"/>
      <point x="740" y="793" type="line"/>
      <point x="695" y="770" type="line"/>
    </contour>
    <contour>
      <point x="695" y="816" type="line"/>
      <point x="773" y="860" type="line"/>
      <point x="1646" y="55" type="line"/>
      <point x="1757" y="20" type="line"/>
      <point x="1757" y="0" type="line"/>
      <point x="1286" y="0" type="line"/>
      <point x="1286" y="20" type="line"/>
      <point x="1524" y="55" type="line"/>
    </contour>
  </outline>
</glyph>
<glyph name="L" format="2">
  <advance width="1589"/>
  <unicode hex="004C"/>
  <anchor x="843" y="0" name="bottom"/>
  <anchor x="1066" y="750" name="centerright"/>
  <anchor x="770" y="1500" name="top"/>
  <anchor x="922" y="1001" name="topright"/>
  <anchor x="383" y="750" name="center"/>
  <outline>
    <contour>
      <point x="114" y="0" type="line"/>
      <point x="114" y="20" type="line"/>
      <point x="334" y="52" type="line"/>
      <point x="335" y="754" type="line"/>
      <point x="334" y="1443" type="line"/>
      <point x="114" y="1477" type="line"/>
      <point x="114" y="1500" type="line"/>
      <point x="677" y="1500" type="line"/>
      <point x="677" y="1477" type="line"/>
      <point x="434" y="1443" type="line"/>
      <point x="432" y="754" type="line"/>
      <point x="434" y="51" type="line"/>
      <point x="474" y="24" type="line"/>
      <point x="1391" y="24" type="line"/>
      <point x="1475" y="329" type="line"/>
      <point x="1507" y="329" type="line"/>
      <point x="1457" y="0" type="line"/>
    </contour>
  </outline>
</glyph>
<glyph name="M" format="2">
  <advance width="2462"/>
  <unicode hex="004D"/>
  <anchor x="1223" y="0" name="bottom"/>
  <anchor x="1256" y="1500" name="top"/>
  <outline>
    <contour>
      <point x="114" y="0" type="line"/>
      <point x="114" y="20" type="line"/>
      <point x="334" y="55" type="line"/>
      <point x="332" y="754" type="line"/>
      <point x="334" y="1443" type="line"/>
      <point x="114" y="1477" type="line"/>
      <point x="114" y="1500" type="line"/>
      <point x="372" y="1500" type="line"/>
      <point x="822" y="778" type="line"/>
      <point x="1185" y="152" type="line"/>
      <point x="1248" y="38" type="line"/>
      <point x="1258" y="38" type="line"/>
      <point x="1323" y="152" type="line"/>
      <point x="1678" y="794" type="line"/>
      <point x="2101" y="1500" type="line"/>
      <point x="2348" y="1500" type="line"/>
      <point x="2348" y="1477" type="line"/>
      <point x="2128" y="1443" type="line"/>
      <point x="2126" y="754" type="line"/>
      <point x="2128" y="55" type="line"/>
      <point x="2348" y="20" type="line"/>
      <point x="2348" y="0" type="line"/>
      <point x="1779" y="0" type="line"/>
      <point x="1779" y="20" type="line"/>
      <point x="2029" y="55" type="line"/>
      <point x="2030" y="754" type="line"/>
      <point x="2029" y="1210" type="line"/>
      <point x="2033" y="1329" type="line"/>
      <point x="2023" y="1331" type="line"/>
      <point x="1965" y="1224" type="line"/>
      <point x="1679" y="739" type="line"/>
      <point x="1205" y="-8" type="line"/>
      <point x="1174" y="-8" type="line"/>
      <point x="712" y="741" type="line"/>
      <point x="425" y="1226" type="line"/>
      <point x="364" y="1333" type="line"/>
      <point x="354" y="1329" type="line"/>
      <point x="359" y="1212" type="line"/>
      <point x="359" y="754" type="line"/>
      <point x="361" y="55" type="line"/>
      <point x="591" y="20" type="line"/>
      <point x="591" y="0" type="line"/>
    </contour>
  </outline>
</glyph>
<glyph name="N" format="2">
  <advance width="1903"/>
  <unicode hex="004E"/>
  <anchor x="915" y="0" name="bottom"/>
  <anchor x="915" y="1500" name="top"/>
  <outline>
    <contour>
      <point x="114" y="0" type="line"/>
      <point x="114" y="20" type="line"/>
      <point x="334" y="55" type="line"/>
      <point x="334" y="754" type="line"/>
      <point x="334" y="1443" type="line"/>
      <point x="114" y="1477" type="line"/>
      <point x="114" y="1500" type="line"/>
      <point x="372" y="1500" type="line"/>
      <point x="984" y="859" type="line"/>
      <point x="1455" y="299" type="line"/>
      <point x="1541" y="193" type="line"/>
      <point x="1550" y="196" type="line"/>
      <point x="1545" y="317" type="line"/>
      <point x="1546" y="754" type="line"/>
      <point x="1546" y="1443" type="line"/>
      <point x="1306" y="1477" type="line"/>
      <point x="1306" y="1500" type="line"/>
      <point x="1792" y="1500" type="line"/>
      <point x="1792" y="1477" type="line"/>
      <point x="1572" y="1443" type="line"/>
      <point x="1572" y="754" type="line"/>
      <point x="1571" y="0" type="line"/>
      <point x="1590" y="0" type="line"/>
      <point x="932" y="762" type="line"/>
      <point x="450" y="1283" type="line"/>
      <point x="363" y="1391" type="line"/>
      <point x="354" y="1388" type="line"/>
      <point x="360" y="1268" type="line"/>
      <point x="360" y="754" type="line"/>
      <point x="360" y="55" type="line"/>
      <point x="590" y="20" type="line"/>
      <point x="590" y="0" type="line"/>
    </contour>
  </outline>
</glyph>
<glyph name="O" format="2">
  <advance width="2001"/>
  <unicode hex="004F"/>
  <anchor x="1000" y="0" name="bottom"/>
  <anchor x="1000" y="750" name="center"/>
  <anchor x="1257" y="0" name="ogonek"/>
  <anchor x="1000" y="1500" name="top"/>
  <anchor x="1204" y="1500" name="topright"/>
  <anchor x="222" y="1500" name="tonos"/>
  <outline>
    <contour>
      <point x="124" y="737" type="qcurve" smooth="yes"/>
      <point x="124" y="1068"/>
      <point x="608" y="1520"/>
      <point x="1000" y="1520" type="qcurve" smooth="yes"/>
      <point x="1393" y="1520"/>
      <point x="1877" y="1097"/>
      <point x="1877" y="752" type="qcurve" smooth="yes"/>
      <point x="1877" y="423"/>
      <point x="1397" y="-31"/>
      <point x="1004" y="-31" type="qcurve" smooth="yes"/>
      <point x="618" y="-31"/>
      <point x="124" y="396"/>
    </contour>
    <contour>
      <point x="229" y="771" type="qcurve" smooth="yes"/>
      <point x="229" y="432"/>
      <point x="660" y="-2"/>
      <point x="1002" y="-2" type="qcurve" smooth="yes"/>
      <point x="1379" y="-2"/>
      <point x="1771" y="386"/>
      <point x="1771" y="745" type="qcurve" smooth="yes"/>
      <point x="1771" y="1067"/>
      <point x="1350" y="1490"/>
      <point x="1002" y="1490" type="qcurve" smooth="yes"/>
      <point x="626" y="1490"/>
      <point x="229" y="1103"/>
    </contour>
  </outline>
</glyph>
<glyph name="P" format="2">
  <advance width="1445"/>
  <unicode hex="0050"/>
  <anchor x="604" y="0" name="bottom"/>
  <anchor x="746" y="1500" name="top"/>
  <outline>
    <contour>
      <point x="114" y="0" type="line"/>
      <point x="114" y="20" type="line"/>
      <point x="334" y="57" type="line"/>
      <point x="335" y="754" type="line"/>
      <point x="334" y="1443" type="line"/>
      <point x="114" y="1477" type="line"/>
      <point x="114" y="1500" type="line"/>
      <point x="769" y="1500" type="line" smooth="yes"/>
      <point x="1055" y="1500"/>
      <point x="1351" y="1284"/>
      <point x="1351" y="1072" type="qcurve" smooth="yes"/>
      <point x="1351" y="866"/>
      <point x="1035" y="599"/>
      <point x="748" y="599" type="qcurve" smooth="yes"/>
      <point x="617" y="599"/>
      <point x="411" y="613"/>
      <point x="347" y="620" type="qcurve"/>
      <point x="351" y="649" type="line"/>
      <point x="431" y="639"/>
      <point x="624" y="626"/>
      <point x="731" y="626" type="qcurve" smooth="yes"/>
      <point x="981" y="626"/>
      <point x="1244" y="862"/>
      <point x="1244" y="1072" type="qcurve" smooth="yes"/>
      <point x="1244" y="1273"/>
      <point x="994" y="1474"/>
      <point x="759" y="1474" type="qcurve" smooth="yes"/>
      <point x="466" y="1474" type="line"/>
      <point x="434" y="1452" type="line"/>
      <point x="431" y="764" type="line"/>
      <point x="432" y="52" type="line"/>
      <point x="780" y="20" type="line"/>
      <point x="780" y="0" type="line"/>
    </contour>
  </outline>
</glyph>
<glyph name="Q" format="2">
  <advance width="1999"/>
  <unicode hex="0051"/>
  <anchor x="1012" y="0" name="bottom"/>
  <anchor x="1080" y="1485" name="top"/>
  <outline>
    <contour>
      <point x="136" y="746" type="qcurve" smooth="yes"/>
      <point x="136" y="1068"/>
      <point x="614" y="1520"/>
      <point x="1012" y="1520" type="qcurve" smooth="yes"/>
      <point x="1433" y="1520"/>
      <point x="1887" y="1097"/>
      <point x="1887" y="754" type="qcurve" smooth="yes"/>
      <point x="1887" y="404"/>
      <point x="1415" y="-20"/>
      <point x="1012" y="-20" type="qcurve" smooth="yes"/>
      <point x="599" y="-20"/>
      <point x="136" y="419"/>
    </contour>
    <contour>
      <point x="242" y="772" type="qcurve" smooth="yes"/>
      <point x="244" y="448"/>
      <point x="665" y="6"/>
      <point x="1010" y="6" type="qcurve" smooth="yes"/>
      <point x="1380" y="6"/>
      <point x="1780" y="413"/>
      <point x="1782" y="747" type="qcurve" smooth="yes"/>
      <point x="1784" y="1071"/>
      <point x="1361" y="1490"/>
      <point x="1014" y="1490" type="qcurve" smooth="yes"/>
      <point x="640" y="1490"/>
      <point x="240" y="1107"/>
    </contour>
    <contour>
      <point x="582" y="-66" type="qcurve" identifier="jWZBD98qkQ"/>
      <point x="1567" y="-278" type="line" identifier="7ZXZEQkAbx"/>
      <point x="1625" y="-300"/>
      <point x="1777" y="-229"/>
      <point x="1819" y="-135" type="qcurve"/>
      <point x="1840" y="-147" type="line"/>
      <point x="1809" y="-254"/>
      <point x="1650" y="-380"/>
      <point x="1537" y="-363" type="qcurve" identifier="bSft9tBggp"/>
      <point x="566" y="-153" type="line" identifier="aDYWDNvZlZ"/>
      <point x="499" y="-138"/>
      <point x="358" y="-189"/>
      <point x="307" y="-261" type="qcurve"/>
      <point x="287" y="-242" type="line"/>
      <point x="342" y="-147"/>
      <point x="485" y="-66"/>
    </contour>
    <contour>
      <point x="666" y="-112" type="line"/>
      <point x="915" y="312" type="line"/>
      <point x="948" y="295" type="line"/>
      <point x="695" y="-121" type="line"/>
    </contour>
  </outline>
</glyph>
<glyph name="R" format="2">
  <advance width="1654"/>
  <unicode hex="0052"/>
  <anchor x="766" y="0" name="bottom"/>
  <anchor x="817" y="1500" name="top"/>
  <outline>
    <contour>
      <point x="114" y="0" type="line"/>
      <point x="114" y="20" type="line"/>
      <point x="334" y="56" type="line"/>
      <point x="335" y="794" type="line"/>
      <point x="334" y="1443" type="line"/>
      <point x="116" y="1477" type="line"/>
      <point x="116" y="1500" type="line"/>
      <point x="759" y="1500" type="line" smooth="yes"/>
      <point x="1004" y="1500"/>
      <point x="1238" y="1315"/>
      <point x="1238" y="1149" type="qcurve" smooth="yes"/>
      <point x="1238" y="966"/>
      <point x="951" y="736"/>
      <point x="757" y="736" type="qcurve" smooth="yes"/>
      <point x="674" y="736"/>
      <point x="417" y="735"/>
      <point x="340" y="734" type="qcurve"/>
      <point x="340" y="761" type="line"/>
      <point x="690" y="761" type="line" smooth="yes"/>
      <point x="920" y="761"/>
      <point x="1130" y="967"/>
      <point x="1130" y="1137" type="qcurve" smooth="yes"/>
      <point x="1130" y="1296"/>
      <point x="948" y="1474"/>
      <point x="746" y="1474" type="qcurve" smooth="yes"/>
      <point x="464" y="1474" type="line"/>
      <point x="435" y="1456" type="line"/>
      <point x="431" y="794" type="line"/>
      <point x="434" y="56" type="line"/>
      <point x="762" y="20" type="line"/>
      <point x="762" y="0" type="line"/>
    </contour>
    <contour>
      <point x="674" y="745" type="line"/>
      <point x="810" y="749" type="line"/>
      <point x="1311" y="235" type="line" smooth="yes"/>
      <point x="1450" y="97"/>
      <point x="1599" y="21"/>
      <point x="1678" y="20" type="qcurve"/>
      <point x="1678" y="0" type="line"/>
      <point x="1435" y="0" type="line"/>
      <point x="1391" y="20" type="line"/>
    </contour>
  </outline>
</glyph>
<glyph name="S" format="2">
  <advance width="1368"/>
  <unicode hex="0053"/>
  <anchor x="726" y="0" name="bottom"/>
  <anchor x="641" y="1500" name="top"/>
  <outline>
    <contour>
      <point x="143" y="-47" type="line"/>
      <point x="143" y="483" type="line"/>
      <point x="173" y="483" type="line"/>
      <point x="202" y="284" type="line" smooth="yes"/>
      <point x="243" y="138"/>
      <point x="550" y="7"/>
      <point x="755" y="7" type="qcurve" smooth="yes"/>
      <point x="988" y="7"/>
      <point x="1220" y="180"/>
      <point x="1220" y="345" type="qcurve" smooth="yes"/>
      <point x="1220" y="514"/>
      <point x="936" y="688"/>
      <point x="646" y="763" type="qcurve" smooth="yes"/>
      <point x="422" y="817"/>
      <point x="198" y="999"/>
      <point x="198" y="1154" type="qcurve" smooth="yes"/>
      <point x="198" y="1297"/>
      <point x="445" y="1520"/>
      <point x="676" y="1520" type="qcurve" smooth="yes"/>
      <point x="781" y="1520"/>
      <point x="1012" y="1474"/>
      <point x="1082" y="1421" type="qcurve"/>
      <point x="1106" y="1534" type="line"/>
      <point x="1127" y="1534" type="line"/>
      <point x="1127" y="1062" type="line"/>
      <point x="1098" y="1062" type="line"/>
      <point x="1063" y="1308" type="line" smooth="yes"/>
      <point x="1043" y="1394"/>
      <point x="816" y="1491"/>
      <point x="652" y="1491" type="qcurve" smooth="yes"/>
      <point x="468" y="1491"/>
      <point x="262" y="1347"/>
      <point x="262" y="1218" type="qcurve" smooth="yes"/>
      <point x="262" y="1077"/>
      <point x="468" y="924"/>
      <point x="773" y="847" type="qcurve" smooth="yes"/>
      <point x="1011" y="787"/>
      <point x="1285" y="582"/>
      <point x="1285" y="416" type="qcurve" smooth="yes"/>
      <point x="1285" y="225"/>
      <point x="1005" y="-20"/>
      <point x="754" y="-20" type="qcurve" smooth="yes"/>
      <point x="586" y="-20"/>
      <point x="305" y="50"/>
      <point x="224" y="113" type="qcurve"/>
      <point x="163" y="-47" type="line"/>
    </contour>
  </outline>
</glyph>
<glyph name="T" format="2">
  <advance width="1782"/>
  <unicode hex="0054"/>
  <anchor x="891" y="0" name="bottom"/>
  <anchor x="891" y="750" name="center"/>
  <anchor x="891" y="1500" name="top"/>
  <outline>
    <contour>
      <point x="121" y="1050" type="line"/>
      <point x="121" y="1500" type="line"/>
      <point x="1661" y="1500" type="line"/>
      <point x="1661" y="1049" type="line"/>
      <point x="1633" y="1049" type="line"/>
      <point x="1598" y="1474" type="line"/>
      <point x="960" y="1474" type="line"/>
      <point x="941" y="1454" type="line"/>
      <point x="940" y="754" type="line"/>
      <point x="941" y="56" type="line"/>
      <point x="1170" y="20" type="line"/>
      <point x="1170" y="0" type="line"/>
      <point x="610" y="0" type="line"/>
      <point x="610" y="20" type="line"/>
      <point x="841" y="56" type="line"/>
      <point x="842" y="754" type="line"/>
      <point x="841" y="1454" type="line"/>
      <point x="832" y="1474" type="line"/>
      <point x="184" y="1474" type="line"/>
      <point x="149" y="1050" type="line"/>
    </contour>
  </outline>
</glyph>
<glyph name="U" format="2">
  <advance width="1879"/>
  <unicode hex="0055"/>
  <anchor x="987" y="0" name="bottom"/>
  <anchor x="1251" y="0" name="ogonek"/>
  <anchor x="987" y="1500" name="top"/>
  <anchor x="1943" y="1500" name="topright"/>
  <outline>
    <contour>
      <point x="96" y="1477" type="line"/>
      <point x="96" y="1500" type="line"/>
      <point x="625" y="1500" type="line"/>
      <point x="625" y="1477" type="line"/>
      <point x="406" y="1443" type="line"/>
      <point x="402" y="794" type="line"/>
      <point x="406" y="474" type="line" smooth="yes"/>
      <point x="407" y="221"/>
      <point x="710" y="0"/>
      <point x="943" y="0" type="qcurve" smooth="yes"/>
      <point x="1209" y="0"/>
      <point x="1583" y="242"/>
      <point x="1583" y="494" type="qcurve" smooth="yes"/>
      <point x="1585" y="794" type="line"/>
      <point x="1583" y="1443" type="line"/>
      <point x="1353" y="1477" type="line"/>
      <point x="1353" y="1500" type="line"/>
      <point x="1833" y="1500" type="line"/>
      <point x="1833" y="1477" type="line"/>
      <point x="1613" y="1443" type="line"/>
      <point x="1613" y="794" type="line"/>
      <point x="1613" y="493" type="line" smooth="yes"/>
      <point x="1614" y="233"/>
      <point x="1226" y="-31"/>
      <point x="947" y="-31" type="qcurve" smooth="yes"/>
      <point x="648" y="-31"/>
      <point x="305" y="242"/>
      <point x="306" y="481" type="qcurve" smooth="yes"/>
      <point x="307" y="794" type="line"/>
      <point x="306" y="1443" type="line"/>
    </contour>
  </outline>
</glyph>
<glyph name="V" format="2">
  <advance width="1895"/>
  <unicode hex="0056"/>
  <anchor x="969" y="0" name="bottom"/>
  <anchor x="979" y="1500" name="top"/>
  <outline>
    <contour>
      <point x="0" y="1477" type="line"/>
      <point x="0" y="1500" type="line"/>
      <point x="472" y="1500" type="line"/>
      <point x="472" y="1477" type="line"/>
      <point x="256" y="1436" type="line"/>
      <point x="627" y="747" type="line"/>
      <point x="939" y="184" type="line"/>
      <point x="979" y="70" type="line"/>
      <point x="989" y="70" type="line"/>
      <point x="1037" y="184" type="line"/>
      <point x="1372" y="798" type="line"/>
      <point x="1726" y="1443" type="line"/>
      <point x="1493" y="1477" type="line"/>
      <point x="1493" y="1500" type="line"/>
      <point x="1913" y="1508" type="line"/>
      <point x="1913" y="1485" type="line"/>
      <point x="1758" y="1438" type="line"/>
      <point x="1371" y="737" type="line"/>
      <point x="948" y="-8" type="line"/>
      <point x="962" y="-8" type="line"/>
      <point x="566" y="674" type="line"/>
      <point x="145" y="1438" type="line"/>
    </contour>
  </outline>
</glyph>
<glyph name="W" format="2">
  <advance width="2587"/>
  <unicode hex="0057"/>
  <anchor x="1227" y="0" name="bottom"/>
  <anchor x="1227" y="1500" name="top"/>
  <outline>
    <contour>
      <point x="833" y="-8" type="line"/>
      <point x="528" y="630" type="line"/>
      <point x="148" y="1437" type="line"/>
      <point x="2" y="1477" type="line"/>
      <point x="2" y="1500" type="line"/>
      <point x="493" y="1500" type="line"/>
      <point x="493" y="1477" type="line"/>
      <point x="262" y="1435" type="line"/>
      <point x="618" y="664" type="line"/>
      <point x="828" y="240" type="line"/>
      <point x="877" y="126" type="line"/>
      <point x="888" y="126" type="line"/>
      <point x="928" y="240" type="line"/>
      <point x="1093" y="650" type="line"/>
      <point x="1245" y="1006" type="line"/>
      <point x="1071" y="1440" type="line"/>
      <point x="922" y="1479" type="line"/>
      <point x="922" y="1500" type="line"/>
      <point x="1402" y="1500" type="line"/>
      <point x="1402" y="1479" type="line"/>
      <point x="1185" y="1438" type="line"/>
      <point x="1440" y="842" type="line"/>
      <point x="1685" y="247" type="line" smooth="yes"/>
      <point x="1727" y="133" type="line"/>
      <point x="1740" y="133" type="line"/>
      <point x="1792" y="247" type="line" smooth="yes"/>
      <point x="2068" y="787" type="line"/>
      <point x="2401" y="1437" type="line"/>
      <point x="2164" y="1477" type="line"/>
      <point x="2164" y="1500" type="line"/>
      <point x="2605" y="1500" type="line"/>
      <point x="2605" y="1477" type="line"/>
      <point x="2436" y="1432" type="line"/>
      <point x="2093" y="775" type="line"/>
      <point x="1671" y="-8" type="line"/>
      <point x="1684" y="-8" type="line"/>
      <point x="1313" y="868" type="line"/>
      <point x="1270" y="984" type="line"/>
      <point x="1260" y="984" type="line"/>
      <point x="1213" y="868" type="line"/>
      <point x="822" y="-8" type="line"/>
    </contour>
  </outline>
</glyph>
<glyph name="X" format="2">
  <advance width="1708"/>
  <unicode hex="0058"/>
  <anchor x="802" y="0" name="bottom"/>
  <anchor x="814" y="1500" name="top"/>
  <outline>
    <contour>
      <point x="12" y="0" type="line"/>
      <point x="12" y="20" type="line"/>
      <point x="140" y="55" type="line"/>
      <point x="783" y="812" type="line"/>
      <point x="194" y="1446" type="line"/>
      <point x="85" y="1477" type="line"/>
      <point x="85" y="1500" type="line"/>
      <point x="553" y="1500" type="line"/>
      <point x="553" y="1477" type="line"/>
      <point x="307" y="1444" type="line"/>
      <point x="769" y="905" type="line"/>
      <point x="865" y="816" type="line"/>
      <point x="875" y="816" type="line"/>
      <point x="963" y="907" type="line"/>
      <point x="1402" y="1451" type="line"/>
      <point x="1154" y="1477" type="line"/>
      <point x="1154" y="1500" type="line"/>
      <point x="1566" y="1500" type="line"/>
      <point x="1566" y="1477" type="line"/>
      <point x="1436" y="1446" type="line"/>
      <point x="898" y="800" type="line"/>
      <point x="1590" y="55" type="line"/>
      <point x="1716" y="20" type="line"/>
      <point x="1716" y="0" type="line"/>
      <point x="1236" y="0" type="line"/>
      <point x="1236" y="20" type="line"/>
      <point x="1475" y="55" type="line"/>
      <point x="902" y="723" type="line"/>
      <point x="817" y="800" type="line"/>
      <point x="807" y="800" type="line"/>
      <point x="724" y="721" type="line"/>
      <point x="172" y="50" type="line"/>
      <point x="413" y="20" type="line"/>
      <point x="413" y="0" type="line"/>
    </contour>
  </outline>
</glyph>
<glyph name="Y" format="2">
  <advance width="1579"/>
  <unicode hex="0059"/>
  <anchor x="790" y="0" name="bottom"/>
  <anchor x="787" y="1502" name="top"/>
  <anchor x="-68" y="1500" name="tonos"/>
  <outline>
    <contour>
      <point x="507" y="0" type="line"/>
      <point x="507" y="20" type="line"/>
      <point x="740" y="55" type="line"/>
      <point x="741" y="621" type="line"/>
      <point x="447" y="1013" type="line"/>
      <point x="123" y="1450" type="line"/>
      <point x="2" y="1477" type="line"/>
      <point x="2" y="1500" type="line"/>
      <point x="463" y="1500" type="line"/>
      <point x="463" y="1477" type="line"/>
      <point x="244" y="1441" type="line"/>
      <point x="524" y="1057" type="line"/>
      <point x="820" y="649" type="line"/>
      <point x="830" y="649" type="line"/>
      <point x="1117" y="1034" type="line"/>
      <point x="1410" y="1448" type="line"/>
      <point x="1162" y="1477" type="line"/>
      <point x="1162" y="1500" type="line"/>
      <point x="1577" y="1500" type="line"/>
      <point x="1577" y="1477" type="line"/>
      <point x="1451" y="1449" type="line"/>
      <point x="1138" y="1016" type="line"/>
      <point x="839" y="624" type="line"/>
      <point x="840" y="55" type="line"/>
      <point x="1070" y="20" type="line"/>
      <point x="1070" y="0" type="line"/>
    </contour>
  </outline>
</glyph>
<glyph name="Z" format="2">
  <advance width="1376"/>
  <unicode hex="005A"/>
  <anchor x="704" y="0" name="bottom"/>
  <anchor x="704" y="1500" name="top"/>
  <outline>
    <contour>
      <point x="114" y="0" type="line"/>
      <point x="84" y="92" type="line"/>
      <point x="1183" y="1466" type="line"/>
      <point x="1174" y="1474" type="line"/>
      <point x="233" y="1474" type="line"/>
      <point x="201" y="1184" type="line"/>
      <point x="166" y="1184" type="line"/>
      <point x="166" y="1500" type="line"/>
      <point x="1267" y="1500" type="line"/>
      <point x="1267" y="1409" type="line"/>
      <point x="165" y="30" type="line"/>
      <point x="173" y="24" type="line"/>
      <point x="1186" y="24" type="line"/>
      <point x="1254" y="266" type="line"/>
      <point x="1287" y="266" type="line"/>
      <point x="1250" y="0" type="line"/>
    </contour>
  </outline>
</glyph>
<glyph name="bracketleft" format="2">
  <advance width="947"/>
  <unicode hex="005B"/>
  <outline>
    <contour>
      <point x="189" y="508" type="line"/>
      <point x="177" y="1457" type="line"/>
      <point x="158" y="1477" type="line"/>
      <point x="158" y="1500" type="line"/>
      <point x="839" y="1500" type="line"/>
      <point x="839" y="1476" type="line"/>
      <point x="288" y="1457" type="line"/>
      <point x="276" y="508" type="line"/>
      <point x="288" y="-437" type="line"/>
      <point x="839" y="-456" type="line"/>
      <point x="839" y="-480" type="line"/>
      <point x="158" y="-480" type="line"/>
      <point x="158" y="-457" type="line"/>
      <point x="177" y="-437" type="line"/>
    </contour>
  </outline>
</glyph>
<glyph name="backslash" format="2">
  <advance width="1148"/>
  <unicode hex="005C"/>
  <outline>
    <contour>
      <point x="52" y="1515" type="line"/>
      <point x="71" y="1554" type="line"/>
      <point x="1115" y="-121" type="line"/>
      <point x="1095" y="-160" type="line"/>
    </contour>
  </outline>
</glyph>
<glyph name="bracketright" format="2">
  <advance width="949"/>
  <unicode hex="005D"/>
  <outline>
    <contour>
      <point x="108" y="-480" type="line"/>
      <point x="108" y="-456" type="line"/>
      <point x="661" y="-437" type="line"/>
      <point x="673" y="508" type="line"/>
      <point x="661" y="1457" type="line"/>
      <point x="108" y="1476" type="line"/>
      <point x="108" y="1500" type="line"/>
      <point x="791" y="1500" type="line"/>
      <point x="791" y="1477" type="line"/>
      <point x="772" y="1457" type="line"/>
      <point x="760" y="508" type="line"/>
      <point x="772" y="-437" type="line"/>
      <point x="791" y="-457" type="line"/>
      <point x="791" y="-480" type="line"/>
    </contour>
  </outline>
</glyph>
<glyph name="asciicircum" format="2">
  <advance width="1911"/>
  <unicode hex="005E"/>
  <outline>
    <contour>
      <point x="200" y="890" type="line"/>
      <point x="237" y="904"/>
      <point x="894" y="1500"/>
      <point x="926" y="1524" type="qcurve"/>
      <point x="957" y="1502"/>
      <point x="1671" y="902"/>
      <point x="1709" y="889" type="qcurve"/>
      <point x="1685" y="867" type="line"/>
      <point x="1581" y="931"/>
      <point x="949" y="1385"/>
      <point x="927" y="1400" type="qcurve"/>
      <point x="900" y="1376"/>
      <point x="318" y="935"/>
      <point x="223" y="869" type="qcurve"/>
    </contour>
  </outline>
</glyph>
<glyph name="underscore" format="2">
  <advance width="2574"/>
  <unicode hex="005F"/>
  <outline>
    <contour>
      <point x="24" y="-480" type="line"/>
      <point x="24" y="-450" type="line"/>
      <point x="1293" y="-444" type="line"/>
      <point x="2550" y="-450" type="line"/>
      <point x="2550" y="-480" type="line"/>
      <point x="1293" y="-496" type="line"/>
    </contour>
  </outline>
</glyph>
<glyph name="a" format="2">
  <advance width="1393"/>
  <unicode hex="0061"/>
  <anchor x="602" y="0" name="bottom"/>
  <anchor x="1343" y="0" name="ogonek"/>
  <anchor x="652" y="921" name="top"/>
  <outline>
    <contour>
      <point x="124" y="212" type="qcurve" smooth="yes"/>
      <point x="124" y="329"/>
      <point x="610" y="503"/>
      <point x="1136" y="544" type="qcurve"/>
      <point x="1136" y="524" type="line"/>
      <point x="695" y="483"/>
      <point x="224" y="344"/>
      <point x="224" y="198" type="qcurve" smooth="yes"/>
      <point x="224" y="111"/>
      <point x="398" y="24"/>
      <point x="538" y="24" type="qcurve" smooth="yes"/>
      <point x="680" y="24"/>
      <point x="1002" y="110"/>
      <point x="1059" y="163" type="qcurve"/>
      <point x="1063" y="574" type="line" smooth="yes"/>
      <point x="1066" y="780"/>
      <point x="849" y="913"/>
      <point x="678" y="913" type="qcurve" smooth="yes"/>
      <point x="520" y="913"/>
      <point x="323" y="832"/>
      <point x="265" y="736" type="qcurve"/>
      <point x="277" y="722"/>
      <point x="292" y="693"/>
      <point x="294" y="680" type="qcurve" smooth="yes"/>
      <point x="298" y="654"/>
      <point x="271" y="619"/>
      <point x="245" y="619" type="qcurve" smooth="yes"/>
      <point x="216" y="619"/>
      <point x="183" y="664"/>
      <point x="183" y="703" type="qcurve" smooth="yes"/>
      <point x="183" y="805"/>
      <point x="469" y="939"/>
      <point x="678" y="939" type="qcurve" smooth="yes"/>
      <point x="908" y="939"/>
      <point x="1151" y="776"/>
      <point x="1151" y="602" type="qcurve" smooth="yes"/>
      <point x="1151" y="55" type="line"/>
      <point x="1323" y="20" type="line"/>
      <point x="1323" y="0" type="line"/>
      <point x="1130" y="0" type="line"/>
      <point x="1068" y="60" type="line"/>
      <point x="1058" y="136" type="line"/>
      <point x="998" y="77"/>
      <point x="705" y="-13"/>
      <point x="531" y="-13" type="qcurve" smooth="yes"/>
      <point x="353" y="-13"/>
      <point x="124" y="118"/>
    </contour>
  </outline>
</glyph>
<glyph name="b" format="2">
  <advance width="1405"/>
  <unicode hex="0062"/>
  <anchor x="540" y="0" name="bottom"/>
  <anchor x="540" y="1499" name="top"/>
  <outline>
    <contour>
      <point x="199" y="0" type="line"/>
      <point x="205" y="427" type="line"/>
      <point x="199" y="1413" type="line"/>
      <point x="-8" y="1443" type="line"/>
      <point x="-8" y="1466" type="line"/>
      <point x="235" y="1500" type="line"/>
      <point x="265" y="1500" type="line"/>
      <point x="293" y="1468" type="line"/>
      <point x="292" y="791" type="line"/>
      <point x="359" y="855"/>
      <point x="584" y="936"/>
      <point x="741" y="936" type="qcurve" smooth="yes"/>
      <point x="982" y="936"/>
      <point x="1297" y="692"/>
      <point x="1297" y="486" type="qcurve" smooth="yes"/>
      <point x="1297" y="261"/>
      <point x="969" y="-12"/>
      <point x="677" y="-12" type="qcurve" smooth="yes"/>
      <point x="557" y="-12"/>
      <point x="353" y="43"/>
      <point x="293" y="80" type="qcurve"/>
      <point x="247" y="0" type="line"/>
    </contour>
    <contour>
      <point x="287" y="473" type="line"/>
      <point x="291" y="109" type="line"/>
      <point x="356" y="70"/>
      <point x="582" y="15"/>
      <point x="737" y="15" type="qcurve" smooth="yes"/>
      <point x="951" y="15"/>
      <point x="1196" y="262"/>
      <point x="1196" y="475" type="qcurve" smooth="yes"/>
      <point x="1196" y="679"/>
      <point x="952" y="904"/>
      <point x="758" y="904" type="qcurve" smooth="yes"/>
      <point x="609" y="904"/>
      <point x="364" y="827"/>
      <point x="291" y="759" type="qcurve"/>
    </contour>
  </outline>
</glyph>
<glyph name="c" format="2">
  <advance width="1286"/>
  <unicode hex="0063"/>
  <anchor x="682" y="0" name="bottom"/>
  <anchor x="682" y="921" name="top"/>
  <outline>
    <contour>
      <point x="108" y="451" type="qcurve" smooth="yes"/>
      <point x="108" y="669"/>
      <point x="454" y="942"/>
      <point x="733" y="942" type="qcurve" smooth="yes"/>
      <point x="845" y="942"/>
      <point x="1006" y="908"/>
      <point x="1049" y="885" type="qcurve"/>
      <point x="1068" y="926" type="line"/>
      <point x="1092" y="926" type="line"/>
      <point x="1092" y="705" type="line"/>
      <point x="1069" y="705" type="line"/>
      <point x="1052" y="721" type="line" smooth="yes"/>
      <point x="1026" y="814"/>
      <point x="833" y="917"/>
      <point x="665" y="917" type="qcurve" smooth="yes"/>
      <point x="458" y="917"/>
      <point x="208" y="696"/>
      <point x="208" y="467" type="qcurve" smooth="yes"/>
      <point x="208" y="241"/>
      <point x="475" y="8"/>
      <point x="695" y="8" type="qcurve" smooth="yes"/>
      <point x="860" y="8"/>
      <point x="1105" y="112"/>
      <point x="1177" y="183" type="qcurve"/>
      <point x="1188" y="168" type="line"/>
      <point x="1123" y="86"/>
      <point x="892" y="-22"/>
      <point x="704" y="-22" type="qcurve" smooth="yes"/>
      <point x="454" y="-22"/>
      <point x="108" y="229"/>
    </contour>
  </outline>
</glyph>
<glyph name="d" format="2">
  <advance width="1418"/>
  <unicode hex="0064"/>
  <anchor x="668" y="0" name="bottom"/>
  <anchor x="1102" y="1184" name="center"/>
  <anchor x="668" y="1500" name="top"/>
  <anchor x="1187" y="968" name="topright"/>
  <outline>
    <contour>
      <point x="112" y="438" type="qcurve" smooth="yes"/>
      <point x="112" y="662"/>
      <point x="449" y="936"/>
      <point x="724" y="936" type="qcurve" smooth="yes"/>
      <point x="825" y="936"/>
      <point x="1022" y="894"/>
      <point x="1082" y="862" type="qcurve"/>
      <point x="1077" y="1413" type="line"/>
      <point x="866" y="1443" type="line"/>
      <point x="866" y="1466" type="line"/>
      <point x="1112" y="1500" type="line"/>
      <point x="1143" y="1500" type="line"/>
      <point x="1171" y="1468" type="line"/>
      <point x="1170" y="538" type="line"/>
      <point x="1175" y="55" type="line"/>
      <point x="1364" y="20" type="line"/>
      <point x="1364" y="0" type="line"/>
      <point x="1153" y="0" type="line"/>
      <point x="1094" y="69" type="line"/>
      <point x="1084" y="137" type="line"/>
      <point x="1022" y="76"/>
      <point x="827" y="-9"/>
      <point x="667" y="-9" type="qcurve" smooth="yes"/>
      <point x="419" y="-9"/>
      <point x="112" y="237"/>
    </contour>
    <contour>
      <point x="214" y="448" type="qcurve" smooth="yes"/>
      <point x="214" y="244"/>
      <point x="455" y="23"/>
      <point x="658" y="23" type="qcurve" smooth="yes"/>
      <point x="807" y="23"/>
      <point x="1021" y="109"/>
      <point x="1083" y="164" type="qcurve"/>
      <point x="1086" y="473" type="line"/>
      <point x="1086" y="775" type="line"/>
      <point x="1027" y="837"/>
      <point x="832" y="912"/>
      <point x="698" y="912" type="qcurve" smooth="yes"/>
      <point x="476" y="912"/>
      <point x="214" y="644"/>
    </contour>
  </outline>
</glyph>
<glyph name="e" format="2">
  <advance width="1538"/>
  <unicode hex="0065"/>
  <anchor x="846" y="0" name="bottom"/>
  <anchor x="1099" y="0" name="ogonek"/>
  <anchor x="807" y="921" name="top"/>
  <outline>
    <contour>
      <point x="107" y="463" type="qcurve" smooth="yes"/>
      <point x="107" y="664"/>
      <point x="490" y="943"/>
      <point x="801" y="943" type="qcurve" smooth="yes"/>
      <point x="1074" y="943"/>
      <point x="1398" y="734"/>
      <point x="1421" y="543" type="qcurve"/>
      <point x="1421" y="516" type="line"/>
      <point x="164" y="516" type="line"/>
      <point x="167" y="538" type="line"/>
      <point x="1328" y="538" type="line"/>
      <point x="1287" y="722"/>
      <point x="1002" y="918"/>
      <point x="780" y="918" type="qcurve" smooth="yes"/>
      <point x="507" y="918"/>
      <point x="206" y="693"/>
      <point x="209" y="483" type="qcurve" smooth="yes"/>
      <point x="210" y="244"/>
      <point x="569" y="9"/>
      <point x="850" y="9" type="qcurve" smooth="yes"/>
      <point x="1032" y="9"/>
      <point x="1301" y="83"/>
      <point x="1380" y="143" type="qcurve"/>
      <point x="1380" y="128" type="line"/>
      <point x="1310" y="64"/>
      <point x="1036" y="-22"/>
      <point x="848" y="-22" type="qcurve" smooth="yes"/>
      <point x="505" y="-22"/>
      <point x="107" y="228"/>
    </contour>
  </outline>
</glyph>
<glyph name="f" format="2">
  <advance width="829"/>
  <unicode hex="0066"/>
  <anchor x="391" y="0" name="bottom"/>
  <anchor x="509" y="1504" name="top"/>
  <outline>
    <contour>
      <point x="133" y="0" type="line"/>
      <point x="133" y="20" type="line"/>
      <point x="341" y="55" type="line"/>
      <point x="342" y="527" type="line"/>
      <point x="341" y="873" type="line"/>
      <point x="107" y="868" type="line"/>
      <point x="107" y="897" type="line"/>
      <point x="342" y="899" type="line"/>
      <point x="344" y="1178" type="line" smooth="yes"/>
      <point x="345" y="1325"/>
      <point x="491" y="1506"/>
      <point x="601" y="1506" type="qcurve" smooth="yes"/>
      <point x="647" y="1506"/>
      <point x="733" y="1491"/>
      <point x="755" y="1481" type="qcurve" smooth="yes"/>
      <point x="776" y="1472" type="line"/>
      <point x="767" y="1454" type="line"/>
      <point x="739" y="1463" type="line" smooth="yes"/>
      <point x="714" y="1469"/>
      <point x="666" y="1475"/>
      <point x="639" y="1475" type="qcurve" smooth="yes"/>
      <point x="537" y="1475"/>
      <point x="427" y="1335"/>
      <point x="428" y="1209" type="qcurve" smooth="yes"/>
      <point x="432" y="900" type="line"/>
      <point x="748" y="900" type="line"/>
      <point x="748" y="874" type="line"/>
      <point x="432" y="874" type="line"/>
      <point x="433" y="527" type="line"/>
      <point x="436" y="55" type="line"/>
      <point x="666" y="20" type="line"/>
      <point x="666" y="0" type="line"/>
    </contour>
  </outline>
</glyph>
<glyph name="g" format="2">
  <advance width="1303"/>
  <unicode hex="0067"/>
  <anchor x="645" y="-416" name="bottom"/>
  <anchor x="605" y="921" name="top"/>
  <outline>
    <contour>
      <point x="59" y="-262" type="qcurve" smooth="yes"/>
      <point x="59" y="-173"/>
      <point x="191" y="-74"/>
      <point x="339" y="-46" type="qcurve"/>
      <point x="349" y="-35" type="line"/>
      <point x="258" y="-63"/>
      <point x="137" y="-153"/>
      <point x="137" y="-237" type="qcurve" smooth="yes"/>
      <point x="137" y="-339"/>
      <point x="386" y="-472"/>
      <point x="690" y="-472" type="qcurve" smooth="yes"/>
      <point x="936" y="-472"/>
      <point x="1250" y="-376"/>
      <point x="1250" y="-268" type="qcurve" smooth="yes"/>
      <point x="1250" y="-178"/>
      <point x="999" y="-101"/>
      <point x="659" y="-90" type="qcurve" smooth="yes"/>
      <point x="393" y="-82"/>
      <point x="130" y="3"/>
      <point x="130" y="84" type="qcurve" smooth="yes"/>
      <point x="131" y="155"/>
      <point x="296" y="212"/>
      <point x="383" y="230" type="qcurve"/>
      <point x="387" y="242" type="line"/>
      <point x="301" y="220"/>
      <point x="186" y="164"/>
      <point x="186" y="116" type="qcurve" smooth="yes"/>
      <point x="185" y="58"/>
      <point x="400" y="5"/>
      <point x="659" y="-2" type="qcurve" smooth="yes"/>
      <point x="998" y="-11"/>
      <point x="1268" y="-113"/>
      <point x="1268" y="-206" type="qcurve" smooth="yes"/>
      <point x="1268" y="-320"/>
      <point x="945" y="-498"/>
      <point x="591" y="-498" type="qcurve" smooth="yes"/>
      <point x="268" y="-498"/>
      <point x="59" y="-361"/>
    </contour>
    <contour>
      <point x="165" y="558" type="qcurve" smooth="yes"/>
      <point x="165" y="725"/>
      <point x="410" y="943"/>
      <point x="607" y="943" type="qcurve" smooth="yes"/>
      <point x="805" y="943"/>
      <point x="1052" y="741"/>
      <point x="1052" y="562" type="qcurve" smooth="yes"/>
      <point x="1052" y="395"/>
      <point x="810" y="154"/>
      <point x="614" y="154" type="qcurve" smooth="yes"/>
      <point x="414" y="154"/>
      <point x="165" y="376"/>
    </contour>
    <contour>
      <point x="262" y="563" type="qcurve" smooth="yes"/>
      <point x="262" y="379"/>
      <point x="452" y="177"/>
      <point x="619" y="177" type="qcurve" smooth="yes"/>
      <point x="773" y="177"/>
      <point x="954" y="363"/>
      <point x="954" y="552" type="qcurve" smooth="yes"/>
      <point x="954" y="723"/>
      <point x="765" y="918"/>
      <point x="599" y="918" type="qcurve" smooth="yes"/>
      <point x="444" y="918"/>
      <point x="262" y="742"/>
    </contour>
    <contour>
      <point x="734" y="902" type="line"/>
      <point x="601" y="921" type="line"/>
      <point x="1238" y="921" type="line"/>
      <point x="1238" y="844" type="line"/>
    </contour>
  </outline>
</glyph>
<glyph name="h" format="2">
  <advance width="1492"/>
  <unicode hex="0068"/>
  <anchor x="714" y="0" name="bottom"/>
  <anchor x="388" y="1202" name="center"/>
  <anchor x="345" y="1534" name="top"/>
  <outline>
    <contour>
      <point x="80" y="0" type="line"/>
      <point x="80" y="20" type="line"/>
      <point x="262" y="55" type="line"/>
      <point x="263" y="447" type="line"/>
      <point x="262" y="1413" type="line"/>
      <point x="56" y="1443" type="line"/>
      <point x="56" y="1466" type="line"/>
      <point x="296" y="1500" type="line"/>
      <point x="328" y="1500" type="line"/>
      <point x="356" y="1468" type="line"/>
      <point x="355" y="773" type="line"/>
      <point x="453" y="856"/>
      <point x="680" y="942"/>
      <point x="806" y="942" type="qcurve" smooth="yes"/>
      <point x="1011" y="942"/>
      <point x="1236" y="793"/>
      <point x="1236" y="619" type="qcurve" smooth="yes"/>
      <point x="1236" y="589"/>
      <point x="1232" y="447"/>
      <point x="1232" y="447" type="qcurve"/>
      <point x="1234" y="55" type="line"/>
      <point x="1422" y="20" type="line"/>
      <point x="1422" y="0" type="line"/>
      <point x="942" y="0" type="line"/>
      <point x="942" y="20" type="line"/>
      <point x="1140" y="55" type="line"/>
      <point x="1142" y="447" type="line"/>
      <point x="1142" y="674" type="line" smooth="yes"/>
      <point x="1142" y="810"/>
      <point x="949" y="892"/>
      <point x="787" y="892" type="qcurve" smooth="yes"/>
      <point x="675" y="892"/>
      <point x="451" y="823"/>
      <point x="355" y="739" type="qcurve"/>
      <point x="355" y="530" type="line"/>
      <point x="356" y="55" type="line"/>
      <point x="534" y="20" type="line"/>
      <point x="534" y="0" type="line"/>
    </contour>
  </outline>
</glyph>
<glyph name="k" format="2">
  <advance width="1448"/>
  <unicode hex="006B"/>
  <anchor x="576" y="0" name="bottom"/>
  <anchor x="546" y="1500" name="top"/>
  <outline>
    <contour>
      <point x="80" y="0" type="line"/>
      <point x="80" y="20" type="line"/>
      <point x="262" y="55" type="line"/>
      <point x="263" y="527" type="line"/>
      <point x="262" y="1413" type="line"/>
      <point x="56" y="1443" type="line"/>
      <point x="56" y="1466" type="line"/>
      <point x="296" y="1500" type="line"/>
      <point x="328" y="1500" type="line"/>
      <point x="356" y="1468" type="line"/>
      <point x="355" y="516" type="line"/>
      <point x="356" y="55" type="line"/>
      <point x="534" y="20" type="line"/>
      <point x="534" y="0" type="line"/>
    </contour>
    <contour>
      <point x="337" y="426" type="line"/>
      <point x="332" y="442" type="line"/>
      <point x="1130" y="869" type="line"/>
      <point x="867" y="899" type="line"/>
      <point x="867" y="921" type="line"/>
      <point x="1285" y="921" type="line"/>
      <point x="1285" y="899" type="line"/>
      <point x="1164" y="864" type="line"/>
    </contour>
    <contour>
      <point x="596" y="590" type="line"/>
      <point x="677" y="626" type="line"/>
      <point x="1305" y="55" type="line"/>
      <point x="1420" y="20" type="line"/>
      <point x="1420" y="0" type="line"/>
      <point x="1023" y="0" type="line"/>
      <point x="1021" y="19" type="line"/>
      <point x="1169" y="51" type="line"/>
    </contour>
  </outline>
</glyph>
<glyph name="l" format="2">
  <advance width="644"/>
  <unicode hex="006C"/>
  <anchor x="325" y="0" name="bottom"/>
  <anchor x="325" y="750" name="center"/>
  <anchor x="325" y="1500" name="top"/>
  <anchor x="411" y="1000" name="topright"/>
  <anchor x="714" y="680" name="centerright"/>
  <outline>
    <contour>
      <point x="80" y="0" type="line"/>
      <point x="80" y="20" type="line"/>
      <point x="282" y="55" type="line"/>
      <point x="283" y="527" type="line"/>
      <point x="282" y="1413" type="line"/>
      <point x="56" y="1443" type="line"/>
      <point x="56" y="1466" type="line"/>
      <point x="316" y="1500" type="line"/>
      <point x="348" y="1500" type="line"/>
      <point x="376" y="1468" type="line"/>
      <point x="375" y="527" type="line"/>
      <point x="376" y="55" type="line"/>
      <point x="574" y="20" type="line"/>
      <point x="574" y="0" type="line"/>
    </contour>
  </outline>
</glyph>
<glyph name="m" format="2">
  <advance width="2233"/>
  <unicode hex="006D"/>
  <anchor x="1123" y="0" name="bottom"/>
  <anchor x="1123" y="921" name="top"/>
  <outline>
    <contour>
      <point x="80" y="0" type="line"/>
      <point x="80" y="20" type="line"/>
      <point x="268" y="55" type="line"/>
      <point x="269" y="442" type="line"/>
      <point x="268" y="834" type="line"/>
      <point x="80" y="864" type="line"/>
      <point x="80" y="887" type="line"/>
      <point x="303" y="921" type="line"/>
      <point x="338" y="894" type="line"/>
      <point x="363" y="775" type="line"/>
      <point x="436" y="851"/>
      <point x="667" y="942"/>
      <point x="789" y="942" type="qcurve" smooth="yes"/>
      <point x="938" y="942"/>
      <point x="1091" y="847"/>
      <point x="1131" y="761" type="qcurve"/>
      <point x="1231" y="841"/>
      <point x="1468" y="942"/>
      <point x="1598" y="942" type="qcurve" smooth="yes"/>
      <point x="1785" y="942"/>
      <point x="1975" y="793"/>
      <point x="1975" y="663" type="qcurve" smooth="yes"/>
      <point x="1975" y="593"/>
      <point x="1972" y="471"/>
      <point x="1972" y="442" type="qcurve" smooth="yes"/>
      <point x="1975" y="55" type="line"/>
      <point x="2163" y="20" type="line"/>
      <point x="2163" y="0" type="line"/>
      <point x="1683" y="0" type="line"/>
      <point x="1683" y="20" type="line"/>
      <point x="1881" y="55" type="line"/>
      <point x="1882" y="442" type="line"/>
      <point x="1882" y="718" type="line" smooth="yes"/>
      <point x="1882" y="796"/>
      <point x="1731" y="893"/>
      <point x="1600" y="893" type="qcurve" smooth="yes"/>
      <point x="1467" y="893"/>
      <point x="1238" y="816"/>
      <point x="1168" y="747" type="qcurve"/>
      <point x="1165" y="666"/>
      <point x="1166" y="468"/>
      <point x="1166" y="442" type="qcurve" smooth="yes"/>
      <point x="1168" y="55" type="line"/>
      <point x="1356" y="20" type="line"/>
      <point x="1356" y="0" type="line"/>
      <point x="876" y="0" type="line"/>
      <point x="876" y="20" type="line"/>
      <point x="1074" y="55" type="line"/>
      <point x="1075" y="442" type="line"/>
      <point x="1075" y="718" type="line" smooth="yes"/>
      <point x="1075" y="796"/>
      <point x="911" y="893"/>
      <point x="788" y="893" type="qcurve" smooth="yes"/>
      <point x="658" y="893"/>
      <point x="433" y="811"/>
      <point x="363" y="741" type="qcurve"/>
      <point x="362" y="442" type="line"/>
      <point x="363" y="55" type="line"/>
      <point x="540" y="20" type="line"/>
      <point x="540" y="0" type="line"/>
    </contour>
  </outline>
</glyph>
<glyph name="n" format="2">
  <advance width="1433"/>
  <unicode hex="006E"/>
  <anchor x="795" y="-79" name="bottom"/>
  <anchor x="732" y="921" name="top"/>
  <outline>
    <contour>
      <point x="80" y="0" type="line"/>
      <point x="80" y="20" type="line"/>
      <point x="268" y="55" type="line"/>
      <point x="269" y="442" type="line"/>
      <point x="268" y="834" type="line"/>
      <point x="80" y="864" type="line"/>
      <point x="80" y="887" type="line"/>
      <point x="303" y="921" type="line"/>
      <point x="338" y="894" type="line"/>
      <point x="363" y="775" type="line"/>
      <point x="437" y="846"/>
      <point x="669" y="942"/>
      <point x="794" y="942" type="qcurve" smooth="yes"/>
      <point x="983" y="942"/>
      <point x="1175" y="793"/>
      <point x="1175" y="663" type="qcurve" smooth="yes"/>
      <point x="1175" y="596"/>
      <point x="1170" y="465"/>
      <point x="1170" y="442" type="qcurve" smooth="yes"/>
      <point x="1173" y="55" type="line"/>
      <point x="1363" y="20" type="line"/>
      <point x="1363" y="0" type="line"/>
      <point x="881" y="0" type="line"/>
      <point x="881" y="20" type="line"/>
      <point x="1079" y="55" type="line"/>
      <point x="1081" y="442" type="line"/>
      <point x="1081" y="718" type="line" smooth="yes"/>
      <point x="1081" y="801"/>
      <point x="922" y="893"/>
      <point x="791" y="893" type="qcurve" smooth="yes"/>
      <point x="660" y="893"/>
      <point x="428" y="809"/>
      <point x="362" y="741" type="qcurve"/>
      <point x="361" y="442" type="line"/>
      <point x="362" y="55" type="line"/>
      <point x="541" y="20" type="line"/>
      <point x="541" y="0" type="line"/>
    </contour>
  </outline>
</glyph>
<glyph name="o" format="2">
  <advance width="1336"/>
  <unicode hex="006F"/>
  <anchor x="670" y="0" name="bottom"/>
  <anchor x="670" y="458" name="center"/>
  <anchor x="867" y="0" name="ogonek"/>
  <anchor x="670" y="921" name="top"/>
  <anchor x="871" y="921" name="topright"/>
  <anchor x="670" y="921" name="GRKtop"/>
  <outline>
    <contour>
      <point x="108" y="458" type="qcurve" smooth="yes"/>
      <point x="108" y="659"/>
      <point x="415" y="942"/>
      <point x="668" y="942" type="qcurve" smooth="yes"/>
      <point x="919" y="942"/>
      <point x="1228" y="678"/>
      <point x="1228" y="464" type="qcurve" smooth="yes"/>
      <point x="1228" y="265"/>
      <point x="924" y="-22"/>
      <point x="674" y="-22" type="qcurve" smooth="yes"/>
      <point x="422" y="-22"/>
      <point x="108" y="243"/>
    </contour>
    <contour>
      <point x="213" y="478" type="qcurve" smooth="yes"/>
      <point x="214" y="278"/>
      <point x="464" y="3"/>
      <point x="671" y="3" type="qcurve" smooth="yes"/>
      <point x="890" y="3"/>
      <point x="1131" y="256"/>
      <point x="1131" y="464" type="qcurve" smooth="yes"/>
      <point x="1131" y="661"/>
      <point x="879" y="916"/>
      <point x="673" y="916" type="qcurve" smooth="yes"/>
      <point x="449" y="916"/>
      <point x="212" y="684"/>
    </contour>
  </outline>
</glyph>
<glyph name="p" format="2">
  <advance width="1399"/>
  <unicode hex="0070"/>
  <anchor x="749" y="0" name="bottom"/>
  <anchor x="749" y="921" name="top"/>
  <outline>
    <contour>
      <point x="65" y="-460" type="line"/>
      <point x="65" y="-440" type="line"/>
      <point x="248" y="-405" type="line"/>
      <point x="250" y="388" type="line"/>
      <point x="248" y="834" type="line"/>
      <point x="60" y="864" type="line"/>
      <point x="60" y="887" type="line"/>
      <point x="292" y="921" type="line"/>
      <point x="327" y="894" type="line"/>
      <point x="344" y="783" type="line"/>
      <point x="405" y="851"/>
      <point x="617" y="936"/>
      <point x="750" y="936" type="qcurve" smooth="yes"/>
      <point x="990" y="936"/>
      <point x="1287" y="693"/>
      <point x="1287" y="491" type="qcurve" smooth="yes"/>
      <point x="1287" y="265"/>
      <point x="980" y="-12"/>
      <point x="722" y="-12" type="qcurve" smooth="yes"/>
      <point x="595" y="-12"/>
      <point x="397" y="48"/>
      <point x="340" y="89" type="qcurve"/>
      <point x="342" y="-405" type="line"/>
      <point x="534" y="-440" type="line"/>
      <point x="534" y="-460" type="line"/>
    </contour>
    <contour>
      <point x="340" y="122" type="line"/>
      <point x="402" y="77"/>
      <point x="613" y="16"/>
      <point x="755" y="16" type="qcurve" smooth="yes"/>
      <point x="956" y="16"/>
      <point x="1187" y="272"/>
      <point x="1187" y="466" type="qcurve" smooth="yes"/>
      <point x="1187" y="654"/>
      <point x="958" y="900"/>
      <point x="747" y="900" type="qcurve" smooth="yes"/>
      <point x="625" y="900"/>
      <point x="405" y="815"/>
      <point x="343" y="749" type="qcurve"/>
      <point x="339" y="388" type="line"/>
    </contour>
  </outline>
</glyph>
<glyph name="q" format="2">
  <advance width="1435"/>
  <unicode hex="0071"/>
  <anchor x="868" y="0" name="bottom"/>
  <anchor x="868" y="921" name="top"/>
  <outline>
    <contour>
      <point x="112" y="438" type="qcurve" smooth="yes"/>
      <point x="112" y="662"/>
      <point x="462" y="936"/>
      <point x="749" y="936" type="qcurve" smooth="yes"/>
      <point x="858" y="936"/>
      <point x="1062" y="891"/>
      <point x="1127" y="856" type="qcurve"/>
      <point x="1177" y="926" type="line"/>
      <point x="1389" y="891" type="line"/>
      <point x="1389" y="867" type="line"/>
      <point x="1200" y="833" type="line"/>
      <point x="1196" y="392" type="line"/>
      <point x="1198" y="-405" type="line"/>
      <point x="1390" y="-440" type="line"/>
      <point x="1390" y="-460" type="line"/>
      <point x="886" y="-460" type="line"/>
      <point x="886" y="-440" type="line"/>
      <point x="1099" y="-405" type="line"/>
      <point x="1107" y="120" type="line"/>
      <point x="1037" y="62"/>
      <point x="816" y="-9"/>
      <point x="670" y="-9" type="qcurve" smooth="yes"/>
      <point x="431" y="-9"/>
      <point x="112" y="233"/>
    </contour>
    <contour>
      <point x="212" y="448" type="qcurve" smooth="yes"/>
      <point x="212" y="245"/>
      <point x="465" y="22"/>
      <point x="655" y="22" type="qcurve" smooth="yes"/>
      <point x="795" y="22"/>
      <point x="1034" y="93"/>
      <point x="1108" y="152" type="qcurve"/>
      <point x="1109" y="788" type="line"/>
      <point x="1052" y="844"/>
      <point x="845" y="911"/>
      <point x="707" y="911" type="qcurve" smooth="yes"/>
      <point x="489" y="911"/>
      <point x="212" y="644"/>
    </contour>
  </outline>
</glyph>
<glyph name="r" format="2">
  <advance width="1035"/>
  <unicode hex="0072"/>
  <anchor x="423" y="0" name="bottom"/>
  <anchor x="575" y="921" name="top"/>
  <outline>
    <contour>
      <point x="80" y="0" type="line"/>
      <point x="80" y="20" type="line"/>
      <point x="268" y="55" type="line"/>
      <point x="269" y="448" type="line"/>
      <point x="268" y="834" type="line"/>
      <point x="80" y="864" type="line"/>
      <point x="80" y="887" type="line"/>
      <point x="302" y="921" type="line"/>
      <point x="337" y="894" type="line"/>
      <point x="362" y="781" type="line"/>
      <point x="450" y="858"/>
      <point x="749" y="922"/>
      <point x="867" y="921" type="qcurve" smooth="yes"/>
      <point x="929" y="921" type="line"/>
      <point x="929" y="790" type="line"/>
      <point x="902" y="790" type="line"/>
      <point x="860" y="886" type="line"/>
      <point x="728" y="887"/>
      <point x="428" y="814"/>
      <point x="361" y="748" type="qcurve"/>
      <point x="361" y="448" type="line"/>
      <point x="362" y="55" type="line"/>
      <point x="560" y="20" type="line"/>
      <point x="560" y="0" type="line"/>
    </contour>
  </outline>
</glyph>
<glyph name="s" format="2">
  <advance width="1096"/>
  <unicode hex="0073"/>
  <anchor x="567" y="0" name="bottom"/>
  <anchor x="515" y="921" name="top"/>
  <outline>
    <contour>
      <point x="119" y="0" type="line"/>
      <point x="119" y="260" type="line"/>
      <point x="145" y="260" type="line"/>
      <point x="163" y="195" type="line" smooth="yes"/>
      <point x="180" y="109"/>
      <point x="405" y="4"/>
      <point x="594" y="4" type="qcurve" smooth="yes"/>
      <point x="749" y="4"/>
      <point x="963" y="103"/>
      <point x="963" y="205" type="qcurve" smooth="yes"/>
      <point x="963" y="305"/>
      <point x="759" y="412"/>
      <point x="502" y="464" type="qcurve" smooth="yes"/>
      <point x="276" y="506"/>
      <point x="133" y="619"/>
      <point x="133" y="710" type="qcurve" smooth="yes"/>
      <point x="133" y="812"/>
      <point x="344" y="943"/>
      <point x="535" y="943" type="qcurve" smooth="yes"/>
      <point x="632" y="943"/>
      <point x="812" y="910"/>
      <point x="859" y="880" type="qcurve"/>
      <point x="875" y="921" type="line"/>
      <point x="898" y="921" type="line"/>
      <point x="898" y="705" type="line"/>
      <point x="871" y="705" type="line"/>
      <point x="853" y="753" type="line" smooth="yes"/>
      <point x="844" y="813"/>
      <point x="648" y="918"/>
      <point x="521" y="918" type="qcurve" smooth="yes"/>
      <point x="336" y="918"/>
      <point x="177" y="841"/>
      <point x="177" y="760" type="qcurve" smooth="yes"/>
      <point x="177" y="684"/>
      <point x="315" y="595"/>
      <point x="603" y="543" type="qcurve" smooth="yes"/>
      <point x="815" y="510"/>
      <point x="1004" y="380"/>
      <point x="1004" y="255" type="qcurve" smooth="yes"/>
      <point x="1004" y="136"/>
      <point x="748" y="-21"/>
      <point x="554" y="-21" type="qcurve" smooth="yes"/>
      <point x="400" y="-21"/>
      <point x="232" y="23"/>
      <point x="180" y="73" type="qcurve"/>
      <point x="141" y="0" type="line"/>
    </contour>
  </outline>
</glyph>
<glyph name="t" format="2">
  <advance width="989"/>
  <unicode hex="0074"/>
  <anchor x="564" y="0" name="bottom"/>
  <anchor x="397" y="622" name="center"/>
  <anchor x="429" y="1179" name="top"/>
  <anchor x="779" y="1000" name="topright"/>
  <outline>
    <contour>
      <point x="70" y="879" type="line"/>
      <point x="70" y="897" type="line"/>
      <point x="193" y="915"/>
      <point x="463" y="998"/>
      <point x="485" y="1180" type="qcurve"/>
      <point x="487" y="1180" type="line"/>
      <point x="505" y="1159" type="line"/>
      <point x="498" y="902" type="line"/>
      <point x="882" y="903" type="line"/>
      <point x="882" y="876" type="line"/>
      <point x="498" y="879" type="line"/>
      <point x="493" y="462" type="line"/>
      <point x="495" y="156" type="line" smooth="yes"/>
      <point x="496" y="91"/>
      <point x="599" y="48"/>
      <point x="750" y="49" type="qcurve" smooth="yes"/>
      <point x="881" y="49" type="line"/>
      <point x="881" y="29" type="line"/>
      <point x="605" y="-8" type="line"/>
      <point x="528" y="-8"/>
      <point x="400" y="108"/>
      <point x="400" y="198" type="qcurve" smooth="yes"/>
      <point x="400" y="462" type="line"/>
      <point x="400" y="877" type="line"/>
    </contour>
  </outline>
</glyph>
<glyph name="u" format="2">
  <advance width="1473"/>
  <unicode hex="0075"/>
  <anchor x="690" y="0" name="bottom"/>
  <anchor x="1327" y="20" name="ogonek"/>
  <anchor x="690" y="920" name="top"/>
  <anchor x="1190" y="920" name="topright"/>
  <outline>
    <contour>
      <point x="60" y="869" type="line"/>
      <point x="60" y="892" type="line"/>
      <point x="283" y="926" type="line"/>
      <point x="317" y="926" type="line"/>
      <point x="342" y="890" type="line"/>
      <point x="341" y="482" type="line"/>
      <point x="341" y="238" type="line" smooth="yes"/>
      <point x="341" y="155"/>
      <point x="505" y="19"/>
      <point x="655" y="19" type="qcurve" smooth="yes"/>
      <point x="779" y="19"/>
      <point x="1035" y="103"/>
      <point x="1121" y="177" type="qcurve"/>
      <point x="1121" y="482" type="line"/>
      <point x="1120" y="839" type="line"/>
      <point x="942" y="869" type="line"/>
      <point x="942" y="892" type="line"/>
      <point x="1155" y="926" type="line"/>
      <point x="1190" y="926" type="line"/>
      <point x="1215" y="890" type="line"/>
      <point x="1214" y="484" type="line"/>
      <point x="1215" y="85" type="line"/>
      <point x="1403" y="55" type="line"/>
      <point x="1403" y="34" type="line"/>
      <point x="1180" y="0" type="line"/>
      <point x="1145" y="27" type="line"/>
      <point x="1121" y="147" type="line"/>
      <point x="1036" y="72"/>
      <point x="757" y="-21"/>
      <point x="605" y="-21" type="qcurve" smooth="yes"/>
      <point x="428" y="-21"/>
      <point x="248" y="128"/>
      <point x="248" y="258" type="qcurve" smooth="yes"/>
      <point x="248" y="334"/>
      <point x="251" y="458"/>
      <point x="251" y="484" type="qcurve" smooth="yes"/>
      <point x="248" y="839" type="line"/>
    </contour>
  </outline>
</glyph>
<glyph name="v" format="2">
  <advance width="1196"/>
  <unicode hex="0076"/>
  <anchor x="621" y="0" name="bottom"/>
  <anchor x="621" y="921" name="top"/>
  <outline>
    <contour>
      <point x="-6" y="899" type="line"/>
      <point x="-6" y="921" type="line"/>
      <point x="423" y="921" type="line"/>
      <point x="423" y="899" type="line"/>
      <point x="225" y="861" type="line"/>
      <point x="432" y="472" type="line"/>
      <point x="564" y="263" type="line"/>
      <point x="625" y="157" type="line"/>
      <point x="635" y="157" type="line"/>
      <point x="694" y="263" type="line"/>
      <point x="831" y="496" type="line"/>
      <point x="1027" y="868" type="line"/>
      <point x="826" y="899" type="line"/>
      <point x="826" y="921" type="line"/>
      <point x="1222" y="921" type="line"/>
      <point x="1222" y="899" type="line"/>
      <point x="1060" y="864" type="line"/>
      <point x="850" y="461" type="line"/>
      <point x="595" y="-8" type="line"/>
      <point x="611" y="-8" type="line"/>
      <point x="357" y="436" type="line"/>
      <point x="125" y="864" type="line"/>
    </contour>
  </outline>
</glyph>
<glyph name="w" format="2">
  <advance width="2112"/>
  <unicode hex="0077"/>
  <anchor x="478" y="0" name="bottom"/>
  <anchor x="942" y="920" name="top"/>
  <outline>
    <contour>
      <point x="614" y="-8" type="line"/>
      <point x="363" y="421" type="line"/>
      <point x="126" y="864" type="line"/>
      <point x="-6" y="899" type="line"/>
      <point x="-6" y="921" type="line"/>
      <point x="423" y="921" type="line"/>
      <point x="423" y="899" type="line"/>
      <point x="226" y="861" type="line"/>
      <point x="462" y="467" type="line"/>
      <point x="575" y="273" type="line"/>
      <point x="625" y="172" type="line"/>
      <point x="641" y="172" type="line"/>
      <point x="702" y="273" type="line"/>
      <point x="851" y="510" type="line"/>
      <point x="994" y="627" type="line"/>
      <point x="871" y="864" type="line"/>
      <point x="740" y="899" type="line"/>
      <point x="740" y="921" type="line"/>
      <point x="1166" y="921" type="line"/>
      <point x="1166" y="899" type="line"/>
      <point x="970" y="861" type="line"/>
      <point x="1262" y="468" type="line"/>
      <point x="1404" y="269" type="line"/>
      <point x="1476" y="169" type="line"/>
      <point x="1486" y="169" type="line"/>
      <point x="1551" y="269" type="line"/>
      <point x="1682" y="461" type="line"/>
      <point x="1934" y="869" type="line"/>
      <point x="1735" y="899" type="line"/>
      <point x="1735" y="921" type="line"/>
      <point x="2138" y="921" type="line"/>
      <point x="2138" y="899" type="line"/>
      <point x="1965" y="864" type="line"/>
      <point x="1707" y="381" type="line"/>
      <point x="1449" y="-8" type="line"/>
      <point x="1462" y="-8" type="line"/>
      <point x="1094" y="537" type="line"/>
      <point x="1031" y="635" type="line"/>
      <point x="1022" y="635" type="line"/>
      <point x="959" y="537" type="line"/>
      <point x="599" y="-8" type="line"/>
    </contour>
  </outline>
</glyph>
<glyph name="x" format="2">
  <advance width="1351"/>
  <unicode hex="0078"/>
  <anchor x="638" y="0" name="bottom"/>
  <anchor x="638" y="920" name="top"/>
  <outline>
    <contour>
      <point x="53" y="0" type="line"/>
      <point x="53" y="20" type="line"/>
      <point x="207" y="55" type="line"/>
      <point x="589" y="455" type="line"/>
      <point x="130" y="864" type="line"/>
      <point x="24" y="899" type="line"/>
      <point x="24" y="921" type="line"/>
      <point x="480" y="921" type="line"/>
      <point x="480" y="899" type="line"/>
      <point x="264" y="862" type="line"/>
      <point x="554" y="575" type="line"/>
      <point x="663" y="477" type="line"/>
      <point x="673" y="477" type="line"/>
      <point x="774" y="575" type="line"/>
      <point x="1049" y="869" type="line"/>
      <point x="824" y="899" type="line"/>
      <point x="824" y="921" type="line"/>
      <point x="1214" y="921" type="line"/>
      <point x="1214" y="899" type="line"/>
      <point x="1077" y="864" type="line"/>
      <point x="701" y="463" type="line"/>
      <point x="1167" y="55" type="line"/>
      <point x="1288" y="20" type="line"/>
      <point x="1288" y="0" type="line"/>
      <point x="821" y="0" type="line"/>
      <point x="821" y="20" type="line"/>
      <point x="1032" y="57" type="line"/>
      <point x="734" y="346" type="line"/>
      <point x="627" y="443" type="line"/>
      <point x="617" y="443" type="line"/>
      <point x="518" y="346" type="line"/>
      <point x="239" y="50" type="line"/>
      <point x="447" y="20" type="line"/>
      <point x="447" y="0" type="line"/>
    </contour>
  </outline>
</glyph>
<glyph name="y" format="2">
  <advance width="1235"/>
  <unicode hex="0079"/>
  <anchor x="956" y="0" name="bottom"/>
  <anchor x="647" y="921" name="top"/>
  <outline>
    <contour>
      <point x="25" y="899" type="line"/>
      <point x="25" y="921" type="line"/>
      <point x="454" y="921" type="line"/>
      <point x="454" y="899" type="line"/>
      <point x="257" y="861" type="line"/>
      <point x="476" y="459" type="line"/>
      <point x="594" y="282" type="line"/>
      <point x="657" y="176" type="line"/>
      <point x="667" y="176" type="line"/>
      <point x="728" y="282" type="line"/>
      <point x="849" y="487" type="line"/>
      <point x="1056" y="869" type="line"/>
      <point x="774" y="899" type="line"/>
      <point x="774" y="921" type="line"/>
      <point x="1261" y="921" type="line"/>
      <point x="1261" y="899" type="line"/>
      <point x="1097" y="864" type="line"/>
      <point x="865" y="446" type="line"/>
      <point x="439" y="-268" type="line" smooth="yes"/>
      <point x="378" y="-375"/>
      <point x="284" y="-473"/>
      <point x="187" y="-473" type="qcurve"/>
      <point x="55" y="-457" type="line"/>
      <point x="55" y="-431" type="line"/>
      <point x="141" y="-431" type="line" smooth="yes"/>
      <point x="241" y="-431"/>
      <point x="356" y="-363"/>
      <point x="446" y="-176" type="qcurve" smooth="yes"/>
      <point x="605" y="131" type="line"/>
      <point x="598" y="131" type="line"/>
      <point x="399" y="429" type="line"/>
      <point x="156" y="864" type="line"/>
    </contour>
  </outline>
</glyph>
<glyph name="z" format="2">
  <advance width="1140"/>
  <unicode hex="007A"/>
  <anchor x="608" y="0" name="bottom"/>
  <anchor x="608" y="921" name="top"/>
  <outline>
    <contour>
      <point x="76" y="0" type="line"/>
      <point x="76" y="90" type="line"/>
      <point x="940" y="895" type="line"/>
      <point x="166" y="895" type="line"/>
      <point x="139" y="796" type="line"/>
      <point x="112" y="796" type="line"/>
      <point x="112" y="921" type="line"/>
      <point x="1046" y="921" type="line"/>
      <point x="1046" y="832" type="line"/>
      <point x="175" y="26" type="line"/>
      <point x="1001" y="26" type="line"/>
      <point x="1028" y="125" type="line"/>
      <point x="1055" y="125" type="line"/>
      <point x="1055" y="0" type="line"/>
    </contour>
  </outline>
</glyph>
<glyph name="braceleft" format="2">
  <advance width="914"/>
  <unicode hex="007B"/>
  <outline>
    <contour>
      <point x="104" y="522" type="line"/>
      <point x="104" y="541" type="line"/>
      <point x="235" y="558" type="line" smooth="yes"/>
      <point x="291" y="565"/>
      <point x="340" y="660"/>
      <point x="340" y="716" type="qcurve" smooth="yes"/>
      <point x="340" y="834"/>
      <point x="221" y="1075"/>
      <point x="221" y="1184" type="qcurve" smooth="yes"/>
      <point x="221" y="1343"/>
      <point x="373" y="1510"/>
      <point x="506" y="1510" type="qcurve" smooth="yes"/>
      <point x="568" y="1510"/>
      <point x="806" y="1503"/>
      <point x="859" y="1500" type="qcurve"/>
      <point x="859" y="1478" type="line"/>
      <point x="777" y="1480"/>
      <point x="708" y="1480"/>
      <point x="631" y="1480" type="qcurve" smooth="yes"/>
      <point x="500" y="1480"/>
      <point x="338" y="1372"/>
      <point x="338" y="1260" type="qcurve" smooth="yes"/>
      <point x="338" y="1142"/>
      <point x="428" y="875"/>
      <point x="428" y="755" type="qcurve" smooth="yes"/>
      <point x="428" y="674"/>
      <point x="389" y="574"/>
      <point x="351" y="550" type="qcurve"/>
      <point x="396" y="516"/>
      <point x="429" y="421"/>
      <point x="429" y="337" type="qcurve" smooth="yes"/>
      <point x="429" y="232"/>
      <point x="295" y="-123"/>
      <point x="295" y="-241" type="qcurve" smooth="yes"/>
      <point x="295" y="-353"/>
      <point x="461" y="-464"/>
      <point x="590" y="-464" type="qcurve" smooth="yes"/>
      <point x="669" y="-464"/>
      <point x="772" y="-464"/>
      <point x="853" y="-462" type="qcurve"/>
      <point x="853" y="-484" type="line"/>
      <point x="801" y="-487"/>
      <point x="679" y="-495"/>
      <point x="578" y="-495" type="qcurve" smooth="yes"/>
      <point x="438" y="-495"/>
      <point x="195" y="-327"/>
      <point x="195" y="-168" type="qcurve" smooth="yes"/>
      <point x="195" y="-50"/>
      <point x="339" y="246"/>
      <point x="339" y="364" type="qcurve"/>
      <point x="339" y="522" type="line"/>
    </contour>
  </outline>
</glyph>
<glyph name="bar" format="2">
  <advance width="692"/>
  <unicode hex="007C"/>
  <outline>
    <contour>
      <point x="309" y="-540" type="line"/>
      <point x="331" y="-58" type="line"/>
      <point x="332" y="250" type="line"/>
      <point x="331" y="830" type="line"/>
      <point x="330" y="1138" type="line"/>
      <point x="307" y="1521" type="line"/>
      <point x="389" y="1550" type="line"/>
      <point x="364" y="1138" type="line"/>
      <point x="361" y="830" type="line"/>
      <point x="362" y="250" type="line"/>
      <point x="364" y="-58" type="line"/>
      <point x="387" y="-511" type="line"/>
    </contour>
  </outline>
</glyph>
<glyph name="braceright" format="2">
  <advance width="910"/>
  <unicode hex="007D"/>
  <outline>
    <contour>
      <point x="60" y="-484" type="qcurve"/>
      <point x="60" y="-461" type="line"/>
      <point x="142" y="-464"/>
      <point x="222" y="-464"/>
      <point x="300" y="-464" type="qcurve" smooth="yes"/>
      <point x="430" y="-464"/>
      <point x="591" y="-353"/>
      <point x="591" y="-240" type="qcurve" smooth="yes"/>
      <point x="591" y="-123"/>
      <point x="481" y="232"/>
      <point x="481" y="337" type="qcurve" smooth="yes"/>
      <point x="481" y="421"/>
      <point x="514" y="516"/>
      <point x="559" y="550" type="qcurve"/>
      <point x="521" y="574"/>
      <point x="482" y="674"/>
      <point x="482" y="755" type="qcurve" smooth="yes"/>
      <point x="482" y="860"/>
      <point x="592" y="1133"/>
      <point x="592" y="1253" type="qcurve" smooth="yes"/>
      <point x="592" y="1369"/>
      <point x="435" y="1479"/>
      <point x="305" y="1479" type="qcurve" smooth="yes"/>
      <point x="228" y="1479"/>
      <point x="136" y="1479"/>
      <point x="54" y="1477" type="qcurve"/>
      <point x="54" y="1500" type="line"/>
      <point x="107" y="1503"/>
      <point x="220" y="1510"/>
      <point x="323" y="1510" type="qcurve" smooth="yes"/>
      <point x="548" y="1510"/>
      <point x="697" y="1343"/>
      <point x="697" y="1184" type="qcurve" smooth="yes"/>
      <point x="697" y="1075"/>
      <point x="570" y="834"/>
      <point x="570" y="716" type="qcurve" smooth="yes"/>
      <point x="570" y="660"/>
      <point x="619" y="565"/>
      <point x="675" y="558" type="qcurve" smooth="yes"/>
      <point x="806" y="541" type="line"/>
      <point x="806" y="522" type="line"/>
      <point x="571" y="522" type="line"/>
      <point x="571" y="364" type="line"/>
      <point x="571" y="246"/>
      <point x="701" y="-50"/>
      <point x="701" y="-168" type="qcurve" smooth="yes"/>
      <point x="701" y="-327"/>
      <point x="540" y="-495"/>
      <point x="315" y="-495" type="qcurve" smooth="yes"/>
      <point x="212" y="-495"/>
      <point x="113" y="-487"/>
    </contour>
  </outline>
</glyph>
<glyph name="asciitilde" format="2">
  <advance width="1672"/>
  <unicode hex="007E"/>
  <outline>
    <contour>
      <point x="62" y="601" type="line"/>
      <point x="124" y="694"/>
      <point x="445" y="772"/>
      <point x="571" y="772" type="qcurve"/>
      <point x="1214" y="614" type="line"/>
      <point x="1274" y="614"/>
      <point x="1492" y="666"/>
      <point x="1583" y="776" type="qcurve"/>
      <point x="1610" y="761" type="line"/>
      <point x="1550" y="638"/>
      <point x="1251" y="551"/>
      <point x="1119" y="551" type="qcurve"/>
      <point x="455" y="723" type="line"/>
      <point x="376" y="725"/>
      <point x="138" y="641"/>
      <point x="82" y="583" type="qcurve"/>
    </contour>
  </outline>
</glyph>
<glyph name="exclamdown" format="2">
  <advance width="692"/>
  <unicode hex="00A1"/>
  <outline>
    <contour>
      <point x="490" y="1205" type="qcurve" smooth="yes"/>
      <point x="490" y="1147"/>
      <point x="409" y="1061"/>
      <point x="346" y="1061" type="qcurve" smooth="yes"/>
      <point x="283" y="1061"/>
      <point x="202" y="1147"/>
      <point x="202" y="1205" type="qcurve" smooth="yes"/>
      <point x="202" y="1262"/>
      <point x="283" y="1348"/>
      <point x="346" y="1348" type="qcurve" smooth="yes"/>
      <point x="409" y="1348"/>
      <point x="490" y="1262"/>
    </contour>
    <contour>
      <point x="440" y="-95" type="line" smooth="yes"/>
      <point x="443" y="-163"/>
      <point x="403" y="-250"/>
      <point x="348" y="-251" type="qcurve" smooth="yes"/>
      <point x="293" y="-252"/>
      <point x="249" y="-165"/>
      <point x="252" y="-96" type="qcurve" smooth="yes"/>
      <point x="266" y="218" type="line"/>
      <point x="287" y="526" type="line"/>
      <point x="300" y="891" type="line"/>
      <point x="394" y="891" type="line"/>
      <point x="407" y="526" type="line"/>
      <point x="426" y="218" type="line"/>
    </contour>
  </outline>
</glyph>
<glyph name="cent" format="2">
  <advance width="1280"/>
  <unicode hex="00A2"/>
  <outline>
    <contour>
      <point x="108" y="495" type="qcurve" smooth="yes"/>
      <point x="108" y="714"/>
      <point x="415" y="1022"/>
      <point x="684" y="1022" type="qcurve" smooth="yes"/>
      <point x="775" y="1022"/>
      <point x="946" y="993"/>
      <point x="993" y="965" type="qcurve"/>
      <point x="1025" y="1019" type="line"/>
      <point x="1113" y="990" type="line"/>
      <point x="1129" y="664" type="line"/>
      <point x="1031" y="647" type="line"/>
      <point x="1003" y="715" type="line" smooth="yes"/>
      <point x="971" y="794"/>
      <point x="770" y="911"/>
      <point x="660" y="911" type="qcurve" smooth="yes"/>
      <point x="456" y="911"/>
      <point x="208" y="711"/>
      <point x="208" y="517" type="qcurve" smooth="yes"/>
      <point x="208" y="315"/>
      <point x="493" y="108"/>
      <point x="752" y="108" type="qcurve" smooth="yes"/>
      <point x="867" y="108"/>
      <point x="1071" y="177"/>
      <point x="1174" y="257" type="qcurve"/>
      <point x="1228" y="198" type="line"/>
      <point x="1142" y="97"/>
      <point x="881" y="-22"/>
      <point x="729" y="-22" type="qcurve" smooth="yes"/>
      <point x="447" y="-22"/>
      <point x="108" y="246"/>
    </contour>
    <contour>
      <point x="586" y="-210" type="line"/>
      <point x="586" y="52" type="line"/>
      <point x="613" y="52" type="line"/>
      <point x="613" y="520" type="line"/>
      <point x="717" y="478" type="line"/>
      <point x="717" y="52" type="line"/>
      <point x="745" y="52" type="line"/>
      <point x="745" y="-160" type="line"/>
    </contour>
    <contour>
      <point x="585" y="1170" type="line"/>
      <point x="743" y="1209" type="line"/>
      <point x="743" y="988" type="line"/>
      <point x="717" y="988" type="line"/>
      <point x="717" y="478" type="line"/>
      <point x="613" y="520" type="line"/>
      <point x="613" y="988" type="line"/>
      <point x="585" y="988" type="line"/>
    </contour>
  </outline>
</glyph>
<glyph name="sterling" format="2">
  <advance width="1369"/>
  <unicode hex="00A3"/>
  <outline>
    <contour>
      <point x="743" y="538" type="qcurve" smooth="yes"/>
      <point x="743" y="414"/>
      <point x="535" y="185"/>
      <point x="409" y="141" type="qcurve"/>
      <point x="417" y="108" type="line"/>
      <point x="1037" y="108" type="line"/>
      <point x="1171" y="372" type="line"/>
      <point x="1283" y="372" type="line"/>
      <point x="1184" y="0" type="line"/>
      <point x="114" y="0" type="line"/>
      <point x="54" y="100" type="line"/>
      <point x="81" y="125" type="line"/>
      <point x="359" y="123"/>
      <point x="646" y="376"/>
      <point x="646" y="505" type="qcurve" smooth="yes"/>
      <point x="646" y="564"/>
      <point x="533" y="710"/>
      <point x="457" y="781" type="qcurve" smooth="yes"/>
      <point x="357" y="875"/>
      <point x="172" y="1059"/>
      <point x="172" y="1154" type="qcurve" smooth="yes"/>
      <point x="172" y="1281"/>
      <point x="455" y="1501"/>
      <point x="672" y="1501" type="qcurve" smooth="yes"/>
      <point x="867" y="1501"/>
      <point x="1146" y="1403"/>
      <point x="1249" y="1328" type="qcurve"/>
      <point x="1156" y="1222" type="line"/>
      <point x="1068" y="1279"/>
      <point x="826" y="1371"/>
      <point x="656" y="1371" type="qcurve" smooth="yes"/>
      <point x="462" y="1371"/>
      <point x="266" y="1246"/>
      <point x="266" y="1163" type="qcurve" smooth="yes"/>
      <point x="266" y="1087"/>
      <point x="431" y="922"/>
      <point x="529" y="831" type="qcurve" smooth="yes"/>
      <point x="610" y="759"/>
      <point x="743" y="609"/>
    </contour>
    <contour>
      <point x="188" y="571" type="line"/>
      <point x="164" y="707" type="line"/>
      <point x="1149" y="707" type="line"/>
      <point x="1119" y="571" type="line"/>
    </contour>
  </outline>
</glyph>
<glyph name="currency" format="2">
  <advance width="1457"/>
  <unicode hex="00A4"/>
  <outline>
    <contour>
      <point x="197" y="760" type="qcurve" smooth="yes"/>
      <point x="197" y="977"/>
      <point x="483" y="1282"/>
      <point x="715" y="1282" type="qcurve" smooth="yes"/>
      <point x="948" y="1282"/>
      <point x="1237" y="997"/>
      <point x="1237" y="766" type="qcurve" smooth="yes"/>
      <point x="1237" y="550"/>
      <point x="953" y="238"/>
      <point x="721" y="238" type="qcurve" smooth="yes"/>
      <point x="488" y="238"/>
      <point x="197" y="527"/>
    </contour>
    <contour>
      <point x="349" y="779" type="qcurve" smooth="yes"/>
      <point x="350" y="609"/>
      <point x="549" y="374"/>
      <point x="713" y="374" type="qcurve" smooth="yes"/>
      <point x="889" y="374"/>
      <point x="1079" y="588"/>
      <point x="1079" y="765" type="qcurve" smooth="yes"/>
      <point x="1079" y="928"/>
      <point x="880" y="1140"/>
      <point x="715" y="1140" type="qcurve" smooth="yes"/>
      <point x="537" y="1140"/>
      <point x="348" y="947"/>
    </contour>
    <contour>
      <point x="351" y="1018" type="line"/>
      <point x="90" y="1279" type="line"/>
      <point x="206" y="1402" type="line"/>
      <point x="467" y="1141" type="line"/>
    </contour>
    <contour>
      <point x="1106" y="1018" type="line"/>
      <point x="990" y="1141" type="line"/>
      <point x="1251" y="1402" type="line"/>
      <point x="1367" y="1279" type="line"/>
    </contour>
    <contour>
      <point x="351" y="482" type="line"/>
      <point x="467" y="359" type="line"/>
      <point x="206" y="98" type="line"/>
      <point x="90" y="221" type="line"/>
    </contour>
    <contour>
      <point x="1106" y="482" type="line"/>
      <point x="1367" y="221" type="line"/>
      <point x="1251" y="98" type="line"/>
      <point x="990" y="359" type="line"/>
    </contour>
  </outline>
</glyph>
<glyph name="yen" format="2">
  <advance width="1611"/>
  <unicode hex="00A5"/>
  <outline>
    <contour>
      <point x="385" y="631" type="line"/>
      <point x="355" y="757" type="line"/>
      <point x="1248" y="757" type="line"/>
      <point x="1218" y="631" type="line"/>
    </contour>
    <contour>
      <point x="755" y="630" type="line"/>
      <point x="466" y="1016" type="line"/>
      <point x="200" y="1360" type="line"/>
      <point x="34" y="1386" type="line"/>
      <point x="34" y="1500" type="line"/>
      <point x="473" y="1500" type="line"/>
      <point x="473" y="1386" type="line"/>
      <point x="318" y="1351" type="line"/>
      <point x="544" y="1060" type="line"/>
      <point x="792" y="739" type="line"/>
      <point x="1047" y="1078" type="line"/>
      <point x="1255" y="1358" type="line"/>
      <point x="1069" y="1386" type="line"/>
      <point x="1069" y="1500" type="line"/>
      <point x="1577" y="1500" type="line"/>
      <point x="1577" y="1386" type="line"/>
      <point x="1409" y="1359" type="line"/>
      <point x="1143" y="1011" type="line"/>
      <point x="852" y="628" type="line"/>
      <point x="853" y="135" type="line"/>
      <point x="1071" y="100" type="line"/>
      <point x="1071" y="0" type="line"/>
      <point x="533" y="0" type="line"/>
      <point x="533" y="100" type="line"/>
      <point x="754" y="135" type="line"/>
    </contour>
    <contour>
      <point x="445" y="331" type="line"/>
      <point x="415" y="457" type="line"/>
      <point x="1188" y="457" type="line"/>
      <point x="1158" y="331" type="line"/>
    </contour>
  </outline>
</glyph>
<glyph name="brokenbar" format="2">
  <advance width="692"/>
  <unicode hex="00A6"/>
  <outline>
    <contour>
      <point x="266" y="688" type="line"/>
      <point x="275" y="900" type="line"/>
      <point x="263" y="1208" type="line"/>
      <point x="251" y="1480" type="line"/>
      <point x="441" y="1550" type="line"/>
      <point x="429" y="1208" type="line"/>
      <point x="415" y="900" type="line"/>
      <point x="417" y="738" type="line"/>
    </contour>
    <contour>
      <point x="251" y="-540" type="line"/>
      <point x="263" y="-128" type="line"/>
      <point x="277" y="180" type="line"/>
      <point x="275" y="348" type="line"/>
      <point x="426" y="408" type="line"/>
      <point x="417" y="180" type="line"/>
      <point x="429" y="-128" type="line"/>
      <point x="441" y="-451" type="line"/>
    </contour>
  </outline>
</glyph>
<glyph name="section" format="2">
  <advance width="1026"/>
  <unicode hex="00A7"/>
  <outline>
    <contour>
      <point x="879" y="117" type="qcurve" smooth="yes"/>
      <point x="879" y="-35"/>
      <point x="708" y="-253"/>
      <point x="567" y="-253" type="qcurve" smooth="yes"/>
      <point x="488" y="-253"/>
      <point x="383" y="-187"/>
      <point x="333" y="-135" type="qcurve"/>
      <point x="292" y="-235" type="line"/>
      <point x="196" y="-235" type="line"/>
      <point x="196" y="196" type="line"/>
      <point x="302" y="196" type="line"/>
      <point x="328" y="103" type="line" smooth="yes"/>
      <point x="364" y="-26"/>
      <point x="507" y="-134"/>
      <point x="616" y="-134" type="qcurve" smooth="yes"/>
      <point x="774" y="-134"/>
      <point x="914" y="-9"/>
      <point x="914" y="95" type="qcurve" smooth="yes"/>
      <point x="914" y="238"/>
      <point x="679" y="374"/>
      <point x="424" y="443" type="qcurve" smooth="yes"/>
      <point x="291" y="470"/>
      <point x="172" y="650"/>
      <point x="172" y="776" type="qcurve" smooth="yes"/>
      <point x="172" y="873"/>
      <point x="253" y="992"/>
      <point x="333" y="1041" type="qcurve"/>
      <point x="293" y="1076"/>
      <point x="240" y="1173"/>
      <point x="240" y="1250" type="qcurve" smooth="yes"/>
      <point x="240" y="1349"/>
      <point x="353" y="1512"/>
      <point x="456" y="1512" type="qcurve" smooth="yes"/>
      <point x="518" y="1512"/>
      <point x="603" y="1472"/>
      <point x="635" y="1449" type="qcurve"/>
      <point x="649" y="1480" type="line"/>
      <point x="740" y="1480" type="line"/>
      <point x="740" y="1184" type="line"/>
      <point x="634" y="1184" type="line"/>
      <point x="604" y="1297" type="line" smooth="yes"/>
      <point x="590" y="1345"/>
      <point x="489" y="1401"/>
      <point x="408" y="1401" type="qcurve" smooth="yes"/>
      <point x="301" y="1401"/>
      <point x="205" y="1329"/>
      <point x="205" y="1267" type="qcurve" smooth="yes"/>
      <point x="205" y="1189"/>
      <point x="312" y="1099"/>
      <point x="508" y="1057" type="qcurve" smooth="yes"/>
      <point x="666" y="1027"/>
      <point x="858" y="888"/>
      <point x="858" y="767" type="qcurve" smooth="yes"/>
      <point x="858" y="665"/>
      <point x="763" y="529"/>
      <point x="629" y="495" type="qcurve"/>
      <point x="765" y="452"/>
      <point x="879" y="263"/>
    </contour>
    <contour>
      <point x="141" y="795" type="qcurve" smooth="yes"/>
      <point x="141" y="690"/>
      <point x="324" y="560"/>
      <point x="513" y="512" type="qcurve"/>
      <point x="711" y="540"/>
      <point x="891" y="657"/>
      <point x="891" y="753" type="qcurve" smooth="yes"/>
      <point x="891" y="846"/>
      <point x="704" y="928"/>
      <point x="581" y="943" type="qcurve" smooth="yes"/>
      <point x="478" y="973"/>
      <point x="388" y="1023"/>
      <point x="358" y="1044" type="qcurve"/>
      <point x="249" y="1013"/>
      <point x="141" y="883"/>
    </contour>
  </outline>
</glyph>
<glyph name="copyright" format="2">
  <advance width="2136"/>
  <unicode hex="00A9"/>
  <outline>
    <contour>
      <point x="593" y="662" type="qcurve" smooth="yes"/>
      <point x="593" y="901"/>
      <point x="854" y="1209"/>
      <point x="1080" y="1209" type="qcurve" smooth="yes"/>
      <point x="1143" y="1209"/>
      <point x="1264" y="1176"/>
      <point x="1294" y="1152" type="qcurve"/>
      <point x="1326" y="1206" type="line"/>
      <point x="1414" y="1177" type="line"/>
      <point x="1430" y="851" type="line"/>
      <point x="1332" y="834" type="line"/>
      <point x="1283" y="1019" type="line"/>
      <point x="1241" y="1053"/>
      <point x="1138" y="1098"/>
      <point x="1081" y="1098" type="qcurve" smooth="yes"/>
      <point x="942" y="1098"/>
      <point x="773" y="898"/>
      <point x="773" y="704" type="qcurve" smooth="yes"/>
      <point x="773" y="502"/>
      <point x="973" y="295"/>
      <point x="1104" y="295" type="qcurve" smooth="yes"/>
      <point x="1223" y="295"/>
      <point x="1406" y="398"/>
      <point x="1454" y="455" type="qcurve"/>
      <point x="1514" y="380" type="line"/>
      <point x="1452" y="287"/>
      <point x="1214" y="165"/>
      <point x="1104" y="165" type="qcurve" smooth="yes"/>
      <point x="873" y="165"/>
      <point x="593" y="433"/>
    </contour>
    <contour>
      <point x="145" y="685" type="qcurve" smooth="yes"/>
      <point x="145" y="1061"/>
      <point x="666" y="1570"/>
      <point x="1070" y="1570" type="qcurve" smooth="yes"/>
      <point x="1472" y="1570"/>
      <point x="1991" y="1087"/>
      <point x="1991" y="706" type="qcurve" smooth="yes"/>
      <point x="1991" y="288"/>
      <point x="1479" y="-242"/>
      <point x="1082" y="-242" type="qcurve" smooth="yes"/>
      <point x="673" y="-242"/>
      <point x="145" y="276"/>
    </contour>
    <contour>
      <point x="310" y="681" type="qcurve" smooth="yes"/>
      <point x="310" y="335"/>
      <point x="767" y="-118"/>
      <point x="1098" y="-118" type="qcurve" smooth="yes"/>
      <point x="1419" y="-118"/>
      <point x="1826" y="360"/>
      <point x="1826" y="698" type="qcurve" smooth="yes"/>
      <point x="1826" y="1007"/>
      <point x="1396" y="1446"/>
      <point x="1050" y="1446" type="qcurve" smooth="yes"/>
      <point x="722" y="1446"/>
      <point x="310" y="998"/>
    </contour>
  </outline>
</glyph>
<glyph name="ordfeminine" format="2">
  <advance width="1081"/>
  <unicode hex="00AA"/>
  <outline>
    <contour>
      <point x="114" y="882" type="qcurve" smooth="yes"/>
      <point x="114" y="1005"/>
      <point x="445" y="1183"/>
      <point x="807" y="1214" type="qcurve"/>
      <point x="816" y="1126" type="line"/>
      <point x="540" y="1102"/>
      <point x="202" y="1010"/>
      <point x="202" y="899" type="qcurve" smooth="yes"/>
      <point x="202" y="837"/>
      <point x="327" y="782"/>
      <point x="421" y="782" type="qcurve" smooth="yes"/>
      <point x="520" y="782"/>
      <point x="735" y="860"/>
      <point x="778" y="905" type="qcurve"/>
      <point x="781" y="1202" type="line" smooth="yes"/>
      <point x="782" y="1351"/>
      <point x="651" y="1439"/>
      <point x="529" y="1439" type="qcurve" smooth="yes"/>
      <point x="413" y="1439"/>
      <point x="265" y="1404"/>
      <point x="223" y="1383" type="qcurve"/>
      <point x="239" y="1373"/>
      <point x="255" y="1344"/>
      <point x="257" y="1333" type="qcurve" smooth="yes"/>
      <point x="260" y="1311"/>
      <point x="229" y="1280"/>
      <point x="205" y="1280" type="qcurve" smooth="yes"/>
      <point x="177" y="1280"/>
      <point x="145" y="1324"/>
      <point x="145" y="1351" type="qcurve" smooth="yes"/>
      <point x="145" y="1430"/>
      <point x="361" y="1543"/>
      <point x="533" y="1543" type="qcurve" smooth="yes"/>
      <point x="694" y="1543"/>
      <point x="863" y="1385"/>
      <point x="863" y="1194" type="qcurve" smooth="yes"/>
      <point x="865" y="780" type="line"/>
      <point x="995" y="751" type="line"/>
      <point x="995" y="684" type="line"/>
      <point x="840" y="684" type="line"/>
      <point x="796" y="734" type="line"/>
      <point x="787" y="791" type="line"/>
      <point x="733" y="746"/>
      <point x="510" y="670"/>
      <point x="386" y="670" type="qcurve" smooth="yes"/>
      <point x="266" y="670"/>
      <point x="114" y="775"/>
    </contour>
  </outline>
</glyph>
<glyph name="logicalnot" format="2">
  <advance width="1565"/>
  <unicode hex="00AC"/>
  <outline>
    <contour>
      <point x="123" y="675" type="line"/>
      <point x="1440" y="675" type="line"/>
      <point x="1440" y="200" type="line"/>
      <point x="1280" y="200" type="line"/>
      <point x="1280" y="590" type="line"/>
      <point x="123" y="590" type="line"/>
    </contour>
  </outline>
</glyph>
<glyph name="registered" format="2">
  <advance width="2136"/>
  <unicode hex="00AE"/>
  <outline>
    <contour>
      <point x="145" y="685" type="qcurve" smooth="yes"/>
      <point x="145" y="1061"/>
      <point x="666" y="1570"/>
      <point x="1070" y="1570" type="qcurve" smooth="yes"/>
      <point x="1472" y="1570"/>
      <point x="1991" y="1087"/>
      <point x="1991" y="706" type="qcurve" smooth="yes"/>
      <point x="1991" y="288"/>
      <point x="1479" y="-242"/>
      <point x="1082" y="-242" type="qcurve" smooth="yes"/>
      <point x="673" y="-242"/>
      <point x="145" y="276"/>
    </contour>
    <contour>
      <point x="310" y="681" type="qcurve" smooth="yes"/>
      <point x="310" y="335"/>
      <point x="767" y="-118"/>
      <point x="1098" y="-118" type="qcurve" smooth="yes"/>
      <point x="1419" y="-118"/>
      <point x="1826" y="360"/>
      <point x="1826" y="698" type="qcurve" smooth="yes"/>
      <point x="1826" y="1007"/>
      <point x="1396" y="1446"/>
      <point x="1050" y="1446" type="qcurve" smooth="yes"/>
      <point x="722" y="1446"/>
      <point x="310" y="998"/>
    </contour>
    <contour>
      <point x="639" y="176" type="line"/>
      <point x="629" y="266" type="line"/>
      <point x="746" y="290" type="line"/>
      <point x="757" y="723" type="line"/>
      <point x="746" y="1088" type="line"/>
      <point x="619" y="1111" type="line"/>
      <point x="619" y="1209" type="line"/>
      <point x="1092" y="1209" type="line" smooth="yes"/>
      <point x="1250" y="1209"/>
      <point x="1403" y="1082"/>
      <point x="1403" y="968" type="qcurve" smooth="yes"/>
      <point x="1403" y="841"/>
      <point x="1216" y="664"/>
      <point x="1090" y="664" type="qcurve" smooth="yes"/>
      <point x="1039" y="664"/>
      <point x="899" y="673"/>
      <point x="875" y="673" type="qcurve"/>
      <point x="875" y="758" type="line"/>
      <point x="1032" y="758" type="line" smooth="yes"/>
      <point x="1151" y="758"/>
      <point x="1235" y="868"/>
      <point x="1235" y="959" type="qcurve" smooth="yes"/>
      <point x="1235" y="1039"/>
      <point x="1143" y="1108"/>
      <point x="1040" y="1108" type="qcurve" smooth="yes"/>
      <point x="933" y="1108" type="line"/>
      <point x="912" y="1095" type="line"/>
      <point x="899" y="723" type="line"/>
      <point x="910" y="290" type="line"/>
      <point x="1042" y="266" type="line"/>
      <point x="1042" y="176" type="line"/>
    </contour>
    <contour>
      <point x="993" y="710" type="line"/>
      <point x="1144" y="738" type="line"/>
      <point x="1394" y="393" type="line" smooth="yes"/>
      <point x="1465" y="295"/>
      <point x="1560" y="266"/>
      <point x="1602" y="266" type="qcurve"/>
      <point x="1602" y="176" type="line"/>
      <point x="1411" y="176" type="line"/>
      <point x="1369" y="190" type="line"/>
    </contour>
  </outline>
</glyph>
<glyph name="degree" format="2">
  <advance width="970"/>
  <unicode hex="00B0"/>
  <outline>
    <contour>
      <point x="168" y="1243" type="qcurve" smooth="yes"/>
      <point x="168" y="1371"/>
      <point x="346" y="1560"/>
      <point x="485" y="1560" type="qcurve" smooth="yes"/>
      <point x="624" y="1560"/>
      <point x="802" y="1371"/>
      <point x="802" y="1243" type="qcurve" smooth="yes"/>
      <point x="802" y="1118"/>
      <point x="624" y="928"/>
      <point x="485" y="928" type="qcurve" smooth="yes"/>
      <point x="346" y="928"/>
      <point x="168" y="1118"/>
    </contour>
    <contour>
      <point x="289" y="1243" type="qcurve" smooth="yes"/>
      <point x="289" y="1167"/>
      <point x="400" y="1049"/>
      <point x="485" y="1049" type="qcurve" smooth="yes"/>
      <point x="571" y="1049"/>
      <point x="681" y="1167"/>
      <point x="681" y="1243" type="qcurve" smooth="yes"/>
      <point x="681" y="1323"/>
      <point x="571" y="1439"/>
      <point x="485" y="1439" type="qcurve" smooth="yes"/>
      <point x="400" y="1439"/>
      <point x="289" y="1323"/>
    </contour>
  </outline>
</glyph>
<glyph name="plusminus" format="2">
  <advance width="1565"/>
  <unicode hex="00B1"/>
  <outline>
    <contour>
      <point x="124" y="738" type="line"/>
      <point x="124" y="822" type="line"/>
      <point x="1441" y="822" type="line"/>
      <point x="1441" y="738" type="line"/>
    </contour>
    <contour>
      <point x="738" y="238" type="line"/>
      <point x="738" y="1308" type="line"/>
      <point x="827" y="1308" type="line"/>
      <point x="827" y="238" type="line"/>
    </contour>
    <contour>
      <point x="124" y="53" type="line"/>
      <point x="124" y="134" type="line"/>
      <point x="1441" y="134" type="line"/>
      <point x="1441" y="53" type="line"/>
    </contour>
  </outline>
</glyph>
<glyph name="twosuperior" format="2">
  <advance width="1022"/>
  <unicode hex="00B2"/>
  <outline>
    <contour>
      <point x="127" y="671" type="line"/>
      <point x="124" y="777" type="line"/>
      <point x="147" y="851"/>
      <point x="313" y="1007"/>
      <point x="525" y="1083" type="qcurve" smooth="yes"/>
      <point x="699" y="1145"/>
      <point x="793" y="1233"/>
      <point x="789" y="1298" type="qcurve" smooth="yes"/>
      <point x="785" y="1355"/>
      <point x="655" y="1409"/>
      <point x="572" y="1409" type="qcurve" smooth="yes"/>
      <point x="442" y="1409"/>
      <point x="277" y="1365"/>
      <point x="190" y="1315" type="qcurve"/>
      <point x="116" y="1398" type="line"/>
      <point x="176" y="1449"/>
      <point x="370" y="1520"/>
      <point x="516" y="1520" type="qcurve" smooth="yes"/>
      <point x="671" y="1520"/>
      <point x="873" y="1413"/>
      <point x="873" y="1306" type="qcurve" smooth="yes"/>
      <point x="873" y="1197"/>
      <point x="710" y="1088"/>
      <point x="568" y="1035" type="qcurve" smooth="yes"/>
      <point x="407" y="979"/>
      <point x="273" y="880"/>
      <point x="261" y="826" type="qcurve"/>
      <point x="261" y="743" type="line"/>
      <point x="902" y="743" type="line"/>
      <point x="902" y="671" type="line"/>
    </contour>
  </outline>
</glyph>
<glyph name="threesuperior" format="2">
  <advance width="965"/>
  <unicode hex="00B3"/>
  <outline>
    <contour>
      <point x="86" y="739" type="qcurve"/>
      <point x="136" y="832" type="line"/>
      <point x="224" y="789"/>
      <point x="384" y="755"/>
      <point x="503" y="755" type="qcurve" smooth="yes"/>
      <point x="620" y="755"/>
      <point x="757" y="825"/>
      <point x="757" y="908" type="qcurve" smooth="yes"/>
      <point x="757" y="989"/>
      <point x="558" y="1059"/>
      <point x="364" y="1059" type="qcurve" smooth="yes"/>
      <point x="313" y="1059" type="line"/>
      <point x="297" y="1154" type="line"/>
      <point x="389" y="1157" type="line" smooth="yes"/>
      <point x="565" y="1163"/>
      <point x="720" y="1240"/>
      <point x="720" y="1310" type="qcurve" smooth="yes"/>
      <point x="720" y="1364"/>
      <point x="626" y="1416"/>
      <point x="526" y="1416" type="qcurve" smooth="yes"/>
      <point x="418" y="1416"/>
      <point x="269" y="1381"/>
      <point x="187" y="1347" type="qcurve"/>
      <point x="141" y="1422" type="line"/>
      <point x="213" y="1468"/>
      <point x="392" y="1520"/>
      <point x="503" y="1520" type="qcurve" smooth="yes"/>
      <point x="648" y="1520"/>
      <point x="812" y="1418"/>
      <point x="812" y="1337" type="qcurve" smooth="yes"/>
      <point x="812" y="1252"/>
      <point x="680" y="1141"/>
      <point x="549" y="1118" type="qcurve"/>
      <point x="549" y="1114" type="line"/>
      <point x="686" y="1111"/>
      <point x="843" y="1001"/>
      <point x="843" y="905" type="qcurve" smooth="yes"/>
      <point x="843" y="783"/>
      <point x="634" y="649"/>
      <point x="463" y="649" type="qcurve" smooth="yes"/>
      <point x="366" y="649"/>
      <point x="154" y="697"/>
    </contour>
  </outline>
</glyph>
<glyph name="micro" format="2">
  <advance width="1379"/>
  <unicode hex="00B5"/>
  <outline>
    <contour>
      <point x="29" y="-317" type="line"/>
      <point x="71" y="-291" type="line"/>
      <point x="106" y="-133"/>
      <point x="164" y="112"/>
      <point x="177" y="181" type="qcurve" smooth="yes"/>
      <point x="290" y="822" type="line"/>
      <point x="147" y="819" type="line"/>
      <point x="149" y="915" type="line"/>
      <point x="350" y="1002" type="line"/>
      <point x="379" y="1002" type="line"/>
      <point x="404" y="954" type="line"/>
      <point x="282" y="312" type="line" smooth="yes"/>
      <point x="265" y="225"/>
      <point x="336" y="167"/>
      <point x="450" y="167" type="qcurve" smooth="yes"/>
      <point x="587" y="167"/>
      <point x="896" y="285"/>
      <point x="986" y="352" type="qcurve"/>
      <point x="1100" y="976" type="line"/>
      <point x="1091" y="1000" type="line"/>
      <point x="1169" y="1013" type="line"/>
      <point x="1195" y="964" type="line"/>
      <point x="1075" y="362" type="line"/>
      <point x="1049" y="134" type="line"/>
      <point x="1185" y="134" type="line"/>
      <point x="1187" y="47" type="line"/>
      <point x="1003" y="-15" type="line"/>
      <point x="961" y="76" type="line"/>
      <point x="969" y="215" type="line"/>
      <point x="858" y="136"/>
      <point x="525" y="23"/>
      <point x="383" y="23" type="qcurve" smooth="yes"/>
      <point x="336" y="23"/>
      <point x="266" y="35"/>
      <point x="228" y="48" type="qcurve"/>
      <point x="171" y="-274" type="line"/>
      <point x="317" y="-282" type="line"/>
      <point x="309" y="-371" type="line"/>
      <point x="52" y="-399" type="line"/>
    </contour>
  </outline>
</glyph>
<glyph name="paragraph" format="2">
  <advance width="1436"/>
  <unicode hex="00B6"/>
  <outline>
    <contour>
      <point x="1264" y="100" type="line"/>
      <point x="1264" y="0" type="line"/>
      <point x="511" y="0" type="line"/>
      <point x="511" y="100" type="line"/>
      <point x="989" y="132" type="line"/>
      <point x="991" y="787" type="line"/>
      <point x="941" y="781"/>
      <point x="698" y="773"/>
      <point x="622" y="773" type="qcurve" smooth="yes"/>
      <point x="376" y="773"/>
      <point x="76" y="989"/>
      <point x="76" y="1155" type="qcurve" smooth="yes"/>
      <point x="76" y="1326"/>
      <point x="360" y="1500"/>
      <point x="606" y="1500" type="qcurve" smooth="yes"/>
      <point x="1317" y="1500" type="line"/>
      <point x="1317" y="1386" type="line"/>
      <point x="1116" y="1352" type="line"/>
      <point x="1114" y="754" type="line"/>
      <point x="1116" y="137" type="line"/>
    </contour>
    <contour>
      <point x="836" y="46" type="line"/>
      <point x="699" y="46" type="line"/>
      <point x="701" y="907" type="line"/>
      <point x="834" y="907" type="line"/>
    </contour>
  </outline>
</glyph>
<glyph name="periodcentered" format="2">
  <advance width="559"/>
  <unicode hex="00B7"/>
  <outline>
    <contour>
      <point x="192" y="674" type="qcurve" smooth="yes"/>
      <point x="192" y="709"/>
      <point x="241" y="762"/>
      <point x="280" y="762" type="qcurve" smooth="yes"/>
      <point x="318" y="762"/>
      <point x="367" y="709"/>
      <point x="367" y="674" type="qcurve" smooth="yes"/>
      <point x="367" y="639"/>
      <point x="318" y="587"/>
      <point x="280" y="587" type="qcurve" smooth="yes"/>
      <point x="241" y="587"/>
      <point x="192" y="639"/>
    </contour>
  </outline>
</glyph>
<glyph name="ordmasculine" format="2">
  <advance width="1142"/>
  <unicode hex="00BA"/>
  <outline>
    <contour>
      <point x="116" y="1094" type="qcurve" smooth="yes"/>
      <point x="116" y="1280"/>
      <point x="361" y="1542"/>
      <point x="569" y="1542" type="qcurve" smooth="yes"/>
      <point x="778" y="1542"/>
      <point x="1026" y="1297"/>
      <point x="1026" y="1099" type="qcurve" smooth="yes"/>
      <point x="1026" y="914"/>
      <point x="783" y="646"/>
      <point x="574" y="646" type="qcurve" smooth="yes"/>
      <point x="365" y="646"/>
      <point x="116" y="894"/>
    </contour>
    <contour>
      <point x="294" y="1111" type="qcurve" smooth="yes"/>
      <point x="294" y="954"/>
      <point x="446" y="732"/>
      <point x="567" y="732" type="qcurve" smooth="yes"/>
      <point x="697" y="732"/>
      <point x="842" y="934"/>
      <point x="842" y="1098" type="qcurve" smooth="yes"/>
      <point x="842" y="1250"/>
      <point x="690" y="1450"/>
      <point x="569" y="1450" type="qcurve" smooth="yes"/>
      <point x="437" y="1450"/>
      <point x="293" y="1269"/>
    </contour>
  </outline>
</glyph>
<glyph name="questiondown" format="2">
  <advance width="1022"/>
  <unicode hex="00BF"/>
  <outline>
    <contour>
      <point x="747" y="1205" type="qcurve" smooth="yes"/>
      <point x="747" y="1147"/>
      <point x="666" y="1061"/>
      <point x="603" y="1061" type="qcurve" smooth="yes"/>
      <point x="540" y="1061"/>
      <point x="459" y="1147"/>
      <point x="459" y="1205" type="qcurve" smooth="yes"/>
      <point x="459" y="1262"/>
      <point x="540" y="1348"/>
      <point x="603" y="1348" type="qcurve" smooth="yes"/>
      <point x="666" y="1348"/>
      <point x="747" y="1262"/>
    </contour>
    <contour>
      <point x="945" y="92" type="qcurve" smooth="yes"/>
      <point x="945" y="-51"/>
      <point x="712" y="-214"/>
      <point x="508" y="-214" type="qcurve" smooth="yes"/>
      <point x="311" y="-214"/>
      <point x="64" y="-22"/>
      <point x="64" y="163" type="qcurve" smooth="yes"/>
      <point x="64" y="356"/>
      <point x="299" y="555"/>
      <point x="384" y="589" type="qcurve" smooth="yes"/>
      <point x="460" y="619"/>
      <point x="566" y="721"/>
      <point x="566" y="804" type="qcurve" smooth="yes"/>
      <point x="566" y="891" type="line"/>
      <point x="666" y="891" type="line"/>
      <point x="681" y="807" type="line" smooth="yes"/>
      <point x="694" y="732"/>
      <point x="595" y="570"/>
      <point x="483" y="506" type="qcurve" smooth="yes"/>
      <point x="393" y="454"/>
      <point x="252" y="326"/>
      <point x="252" y="185" type="qcurve" smooth="yes"/>
      <point x="252" y="50"/>
      <point x="411" y="-103"/>
      <point x="541" y="-103" type="qcurve" smooth="yes"/>
      <point x="663" y="-103"/>
      <point x="801" y="-16"/>
      <point x="801" y="37" type="qcurve" smooth="yes"/>
      <point x="801" y="66"/>
      <point x="680" y="122"/>
      <point x="678" y="171" type="qcurve" smooth="yes"/>
      <point x="675" y="211"/>
      <point x="736" y="275"/>
      <point x="796" y="275" type="qcurve" smooth="yes"/>
      <point x="862" y="275"/>
      <point x="945" y="182"/>
    </contour>
  </outline>
</glyph>
<glyph name="AE" format="2">
  <advance width="1971"/>
  <unicode hex="00C6"/>
  <anchor x="1080" y="1500" name="top"/>
  <outline>
    <contour>
      <point x="53" y="0" type="line"/>
      <point x="53" y="100" type="line"/>
      <point x="249" y="135" type="line"/>
      <point x="492" y="540" type="line"/>
      <point x="968" y="1367" type="line"/>
      <point x="851" y="1386" type="line"/>
      <point x="851" y="1500" type="line"/>
      <point x="1775" y="1500" type="line"/>
      <point x="1775" y="1193" type="line"/>
      <point x="1665" y="1193" type="line"/>
      <point x="1630" y="1474" type="line"/>
      <point x="1137" y="1474" type="line"/>
      <point x="1108" y="1454" type="line"/>
      <point x="1106" y="783" type="line"/>
      <point x="1108" y="48" type="line"/>
      <point x="1138" y="24" type="line"/>
      <point x="1693" y="24" type="line"/>
      <point x="1769" y="337" type="line"/>
      <point x="1879" y="337" type="line"/>
      <point x="1839" y="0" type="line"/>
      <point x="800" y="0" type="line"/>
      <point x="800" y="100" type="line"/>
      <point x="1008" y="137" type="line"/>
      <point x="1010" y="783" type="line"/>
      <point x="1008" y="1323" type="line"/>
      <point x="984" y="1349" type="line"/>
      <point x="501" y="503" type="line"/>
      <point x="291" y="130" type="line"/>
      <point x="478" y="100" type="line"/>
      <point x="478" y="0" type="line"/>
    </contour>
    <contour>
      <point x="494" y="518" type="line"/>
      <point x="506" y="548" type="line"/>
      <point x="746" y="541" type="line"/>
      <point x="746" y="518" type="line"/>
    </contour>
    <contour>
      <point x="746" y="541" type="line"/>
      <point x="1066" y="549" type="line"/>
      <point x="1066" y="518" type="line"/>
      <point x="746" y="518" type="line"/>
    </contour>
    <contour>
      <point x="1059" y="771" type="line"/>
      <point x="1059" y="793" type="line"/>
      <point x="1484" y="803" type="line"/>
      <point x="1519" y="987" type="line"/>
      <point x="1629" y="987" type="line"/>
      <point x="1629" y="585" type="line"/>
      <point x="1519" y="585" type="line"/>
      <point x="1484" y="761" type="line"/>
    </contour>
  </outline>
</glyph>
<glyph name="multiply" format="2">
  <advance width="1112"/>
  <unicode hex="00D7"/>
  <outline>
    <contour>
      <point x="301" y="276" type="line"/>
      <point x="200" y="377" type="line"/>
      <point x="811" y="988" type="line"/>
      <point x="912" y="887" type="line"/>
    </contour>
    <contour>
      <point x="806" y="271" type="line"/>
      <point x="195" y="882" type="line"/>
      <point x="306" y="993" type="line"/>
      <point x="917" y="382" type="line"/>
    </contour>
  </outline>
</glyph>
<glyph name="Thorn" format="2">
  <advance width="1452"/>
  <unicode hex="00DE"/>
  <outline>
    <contour>
      <point x="114" y="0" type="line"/>
      <point x="114" y="20" type="line"/>
      <point x="334" y="57" type="line"/>
      <point x="336" y="754" type="line"/>
      <point x="334" y="1438" type="line"/>
      <point x="114" y="1477" type="line"/>
      <point x="114" y="1500" type="line"/>
      <point x="675" y="1500" type="line"/>
      <point x="675" y="1480" type="line"/>
      <point x="436" y="1440" type="line"/>
      <point x="434" y="1214" type="line"/>
      <point x="771" y="1214" type="line" smooth="yes"/>
      <point x="1058" y="1214"/>
      <point x="1358" y="1030"/>
      <point x="1358" y="849" type="qcurve" smooth="yes"/>
      <point x="1358" y="674"/>
      <point x="1041" y="446"/>
      <point x="743" y="446" type="qcurve" smooth="yes"/>
      <point x="629" y="446"/>
      <point x="463" y="449"/>
      <point x="389" y="463" type="qcurve"/>
      <point x="397" y="489" type="line"/>
      <point x="474" y="478"/>
      <point x="633" y="472"/>
      <point x="773" y="472" type="qcurve" smooth="yes"/>
      <point x="1006" y="472"/>
      <point x="1251" y="676"/>
      <point x="1251" y="857" type="qcurve" smooth="yes"/>
      <point x="1251" y="1023"/>
      <point x="1010" y="1188"/>
      <point x="784" y="1188" type="qcurve" smooth="yes"/>
      <point x="435" y="1188" type="line"/>
      <point x="433" y="764" type="line"/>
      <point x="435" y="52" type="line"/>
      <point x="675" y="20" type="line"/>
      <point x="675" y="0" type="line"/>
    </contour>
  </outline>
</glyph>
<glyph name="germandbls" format="2">
  <advance width="1313"/>
  <unicode hex="00DF"/>
  <outline>
    <contour>
      <point x="1040" y="1222" type="qcurve" smooth="yes"/>
      <point x="1040" y="1080"/>
      <point x="907" y="957"/>
      <point x="819" y="925" type="qcurve" smooth="yes"/>
      <point x="759" y="904"/>
      <point x="655" y="844"/>
      <point x="655" y="781" type="qcurve" smooth="yes"/>
      <point x="655" y="712"/>
      <point x="770" y="631"/>
      <point x="896" y="593" type="qcurve" smooth="yes"/>
      <point x="1048" y="548"/>
      <point x="1221" y="413"/>
      <point x="1221" y="279" type="qcurve" smooth="yes"/>
      <point x="1221" y="160"/>
      <point x="1061" y="-23"/>
      <point x="920" y="-23" type="qcurve" smooth="yes"/>
      <point x="824" y="-23"/>
      <point x="698" y="31"/>
      <point x="643" y="73" type="qcurve"/>
      <point x="604" y="0" type="line"/>
      <point x="513" y="0" type="line"/>
      <point x="513" y="339" type="line"/>
      <point x="620" y="339" type="line"/>
      <point x="631" y="280" type="line" smooth="yes"/>
      <point x="647" y="194"/>
      <point x="798" y="88"/>
      <point x="896" y="88" type="qcurve" smooth="yes"/>
      <point x="986" y="88"/>
      <point x="1135" y="177"/>
      <point x="1135" y="265" type="qcurve" smooth="yes"/>
      <point x="1135" y="364"/>
      <point x="995" y="464"/>
      <point x="858" y="508" type="qcurve" smooth="yes"/>
      <point x="698" y="560"/>
      <point x="571" y="670"/>
      <point x="571" y="765" type="qcurve" smooth="yes"/>
      <point x="571" y="869"/>
      <point x="670" y="982"/>
      <point x="759" y="1020" type="qcurve" smooth="yes"/>
      <point x="837" y="1053"/>
      <point x="907" y="1138"/>
      <point x="907" y="1213" type="qcurve" smooth="yes"/>
      <point x="907" y="1296"/>
      <point x="796" y="1405"/>
      <point x="672" y="1405" type="qcurve" smooth="yes"/>
      <point x="522" y="1405"/>
      <point x="352" y="1244"/>
      <point x="354" y="1069" type="qcurve"/>
      <point x="358" y="527" type="line"/>
      <point x="371" y="45" type="line"/>
      <point x="342" y="0" type="line"/>
      <point x="98" y="0" type="line"/>
      <point x="98" y="80" type="line"/>
      <point x="266" y="115" type="line"/>
      <point x="267" y="527" type="line"/>
      <point x="268" y="1104" type="line" smooth="yes"/>
      <point x="269" y="1287"/>
      <point x="480" y="1518"/>
      <point x="677" y="1518" type="qcurve" smooth="yes"/>
      <point x="852" y="1518"/>
      <point x="1040" y="1355"/>
    </contour>
  </outline>
</glyph>
<glyph name="ae" format="2">
  <advance width="1553"/>
  <unicode hex="00E6"/>
  <anchor x="804" y="1000" name="top"/>
  <outline>
    <contour>
      <point x="126" y="247" type="qcurve" smooth="yes"/>
      <point x="126" y="384"/>
      <point x="396" y="542"/>
      <point x="730" y="591" type="qcurve"/>
      <point x="727" y="568" type="line"/>
      <point x="484" y="538"/>
      <point x="226" y="382"/>
      <point x="226" y="241" type="qcurve" smooth="yes"/>
      <point x="226" y="134"/>
      <point x="309" y="14"/>
      <point x="395" y="14" type="qcurve" smooth="yes"/>
      <point x="489" y="14"/>
      <point x="691" y="142"/>
      <point x="740" y="200" type="qcurve"/>
      <point x="714" y="247"/>
      <point x="682" y="390"/>
      <point x="682" y="486" type="qcurve" smooth="yes"/>
      <point x="682" y="617" type="line" smooth="yes"/>
      <point x="682" y="853"/>
      <point x="573" y="997"/>
      <point x="484" y="997" type="qcurve" smooth="yes"/>
      <point x="400" y="997"/>
      <point x="261" y="934"/>
      <point x="219" y="880" type="qcurve"/>
      <point x="240" y="856"/>
      <point x="293" y="789"/>
      <point x="297" y="765" type="qcurve" smooth="yes"/>
      <point x="300" y="739"/>
      <point x="273" y="703"/>
      <point x="248" y="703" type="qcurve" smooth="yes"/>
      <point x="222" y="703"/>
      <point x="190" y="754"/>
      <point x="190" y="796" type="qcurve" smooth="yes"/>
      <point x="190" y="887"/>
      <point x="357" y="1023"/>
      <point x="499" y="1023" type="qcurve" smooth="yes"/>
      <point x="609" y="1023"/>
      <point x="727" y="925"/>
      <point x="751" y="845" type="qcurve"/>
      <point x="757" y="845" type="line"/>
      <point x="792" y="912"/>
      <point x="954" y="1022"/>
      <point x="1064" y="1022" type="qcurve" smooth="yes"/>
      <point x="1232" y="1022"/>
      <point x="1426" y="797"/>
      <point x="1436" y="588" type="qcurve"/>
      <point x="1436" y="553" type="line"/>
      <point x="758" y="553" type="line"/>
      <point x="757" y="575" type="line"/>
      <point x="1343" y="575" type="line"/>
      <point x="1326" y="782"/>
      <point x="1178" y="995"/>
      <point x="1066" y="995" type="qcurve" smooth="yes"/>
      <point x="928" y="995"/>
      <point x="771" y="699"/>
      <point x="772" y="461" type="qcurve" smooth="yes"/>
      <point x="773" y="243"/>
      <point x="962" y="9"/>
      <point x="1116" y="9" type="qcurve" smooth="yes"/>
      <point x="1198" y="9"/>
      <point x="1343" y="78"/>
      <point x="1387" y="142" type="qcurve"/>
      <point x="1399" y="128" type="line"/>
      <point x="1359" y="65"/>
      <point x="1205" y="-22"/>
      <point x="1087" y="-22" type="qcurve" smooth="yes"/>
      <point x="952" y="-22"/>
      <point x="792" y="93"/>
      <point x="743" y="186" type="qcurve"/>
      <point x="702" y="128"/>
      <point x="503" y="-16"/>
      <point x="379" y="-16" type="qcurve" smooth="yes"/>
      <point x="254" y="-16"/>
      <point x="126" y="142"/>
    </contour>
  </outline>
</glyph>
<glyph name="eth" format="2">
  <advance width="1107"/>
  <unicode hex="00F0"/>
  <outline>
    <contour>
      <point x="108" y="490" type="qcurve" smooth="yes"/>
      <point x="108" y="707"/>
      <point x="350" y="1004"/>
      <point x="546" y="1004" type="qcurve" smooth="yes"/>
      <point x="744" y="1004"/>
      <point x="952" y="721"/>
      <point x="956" y="507" type="qcurve"/>
      <point x="890" y="507" type="line"/>
      <point x="910" y="699"/>
      <point x="723" y="978"/>
      <point x="546" y="978" type="qcurve" smooth="yes"/>
      <point x="382" y="978"/>
      <point x="207" y="734"/>
      <point x="208" y="510" type="qcurve" smooth="yes"/>
      <point x="209" y="244"/>
      <point x="393" y="2"/>
      <point x="544" y="3" type="qcurve" smooth="yes"/>
      <point x="717" y="4"/>
      <point x="895" y="278"/>
      <point x="895" y="621" type="qcurve" smooth="yes"/>
      <point x="895" y="981"/>
      <point x="540" y="1387"/>
      <point x="242" y="1486" type="qcurve"/>
      <point x="278" y="1584" type="line"/>
      <point x="664" y="1474"/>
      <point x="994" y="952"/>
      <point x="994" y="624" type="qcurve" smooth="yes"/>
      <point x="994" y="325"/>
      <point x="762" y="-22"/>
      <point x="551" y="-22" type="qcurve" smooth="yes"/>
      <point x="353" y="-22"/>
      <point x="108" y="257"/>
    </contour>
    <contour>
      <point x="386" y="1214" type="line"/>
      <point x="852" y="1534" type="line"/>
      <point x="919" y="1445" type="line"/>
      <point x="453" y="1125" type="line"/>
    </contour>
  </outline>
</glyph>
<glyph name="divide" format="2">
  <advance width="1565"/>
  <unicode hex="00F7"/>
  <outline>
    <contour>
      <point x="124" y="590" type="line"/>
      <point x="124" y="675" type="line"/>
      <point x="1441" y="675" type="line"/>
      <point x="1441" y="590" type="line"/>
    </contour>
    <contour>
      <point x="702" y="307" type="qcurve" smooth="yes"/>
      <point x="702" y="339"/>
      <point x="747" y="387"/>
      <point x="783" y="387" type="qcurve" smooth="yes"/>
      <point x="818" y="387"/>
      <point x="863" y="339"/>
      <point x="863" y="307" type="qcurve" smooth="yes"/>
      <point x="863" y="276"/>
      <point x="818" y="227"/>
      <point x="783" y="227" type="qcurve" smooth="yes"/>
      <point x="747" y="227"/>
      <point x="702" y="276"/>
    </contour>
    <contour>
      <point x="702" y="958" type="qcurve" smooth="yes"/>
      <point x="702" y="990"/>
      <point x="747" y="1039"/>
      <point x="783" y="1039" type="qcurve" smooth="yes"/>
      <point x="818" y="1039"/>
      <point x="863" y="990"/>
      <point x="863" y="958" type="qcurve" smooth="yes"/>
      <point x="863" y="927"/>
      <point x="818" y="879"/>
      <point x="783" y="879" type="qcurve" smooth="yes"/>
      <point x="747" y="879"/>
      <point x="702" y="927"/>
    </contour>
  </outline>
</glyph>
<glyph name="thorn" format="2">
  <advance width="1356"/>
  <unicode hex="00FE"/>
  <outline>
    <contour>
      <point x="63" y="-460" type="line"/>
      <point x="63" y="-440" type="line"/>
      <point x="206" y="-405" type="line"/>
      <point x="208" y="427" type="line"/>
      <point x="207" y="1413" type="line"/>
      <point x="41" y="1443" type="line"/>
      <point x="41" y="1466" type="line"/>
      <point x="242" y="1500" type="line"/>
      <point x="274" y="1500" type="line"/>
      <point x="302" y="1468" type="line"/>
      <point x="304" y="791" type="line"/>
      <point x="366" y="855"/>
      <point x="577" y="936"/>
      <point x="723" y="936" type="qcurve" smooth="yes"/>
      <point x="950" y="936"/>
      <point x="1244" y="692"/>
      <point x="1244" y="486" type="qcurve" smooth="yes"/>
      <point x="1244" y="262"/>
      <point x="938" y="-12"/>
      <point x="681" y="-12" type="qcurve" smooth="yes"/>
      <point x="554" y="-12"/>
      <point x="357" y="43"/>
      <point x="301" y="81" type="qcurve"/>
      <point x="301" y="-405" type="line"/>
      <point x="453" y="-440" type="line"/>
      <point x="453" y="-460" type="line"/>
    </contour>
    <contour>
      <point x="302" y="166" type="line"/>
      <point x="351" y="105"/>
      <point x="568" y="16"/>
      <point x="716" y="16" type="qcurve" smooth="yes"/>
      <point x="915" y="16"/>
      <point x="1144" y="260"/>
      <point x="1144" y="472" type="qcurve" smooth="yes"/>
      <point x="1144" y="674"/>
      <point x="917" y="899"/>
      <point x="723" y="899" type="qcurve" smooth="yes"/>
      <point x="578" y="899"/>
      <point x="367" y="820"/>
      <point x="304" y="759" type="qcurve"/>
      <point x="299" y="421" type="line"/>
    </contour>
  </outline>
</glyph>
<glyph name="idotless" format="2">
  <advance width="651"/>
  <unicode hex="0131"/>
  <anchor x="331" y="0" name="bottom"/>
  <anchor x="322" y="904" name="top"/>
  <anchor x="481" y="0" name="ogonek"/>
  <outline>
    <contour>
      <point x="81" y="0" type="line"/>
      <point x="81" y="20" type="line"/>
      <point x="289" y="55" type="line"/>
      <point x="290" y="527" type="line"/>
      <point x="286" y="834" type="line"/>
      <point x="76" y="864" type="line"/>
      <point x="76" y="887" type="line"/>
      <point x="316" y="921" type="line"/>
      <point x="363" y="921" type="line"/>
      <point x="386" y="882" type="line"/>
      <point x="382" y="527" type="line"/>
      <point x="383" y="55" type="line"/>
      <point x="591" y="20" type="line"/>
      <point x="591" y="0" type="line"/>
    </contour>
  </outline>
</glyph>
<glyph name="kgreenlandic" format="2">
  <advance width="1166"/>
  <unicode hex="0138"/>
  <outline>
    <contour>
      <point x="119" y="0" type="line"/>
      <point x="119" y="80" type="line"/>
      <point x="258" y="115" type="line"/>
      <point x="260" y="527" type="line"/>
      <point x="258" y="885" type="line"/>
      <point x="119" y="920" type="line"/>
      <point x="119" y="1000" type="line"/>
      <point x="492" y="1000" type="line"/>
      <point x="492" y="920" type="line"/>
      <point x="354" y="885" type="line"/>
      <point x="352" y="507" type="line"/>
      <point x="354" y="115" type="line"/>
      <point x="492" y="80" type="line"/>
      <point x="492" y="0" type="line"/>
    </contour>
    <contour>
      <point x="825" y="853" type="line"/>
      <point x="825" y="892" type="line"/>
      <point x="820" y="880" type="line"/>
      <point x="695" y="920" type="line"/>
      <point x="695" y="1000" type="line"/>
      <point x="985" y="1000" type="line"/>
      <point x="985" y="920" type="line"/>
      <point x="847" y="875" type="line"/>
    </contour>
    <contour>
      <point x="426" y="627" type="line"/>
      <point x="589" y="561" type="line"/>
      <point x="933" y="115" type="line"/>
      <point x="1051" y="80" type="line"/>
      <point x="1051" y="0" type="line"/>
      <point x="771" y="0" type="line"/>
      <point x="759" y="79" type="line"/>
      <point x="823" y="111" type="line"/>
    </contour>
  </outline>
</glyph>
<glyph name="OE" format="2">
  <advance width="1982"/>
  <unicode hex="0152"/>
  <outline>
    <contour>
      <point x="124" y="737" type="qcurve" smooth="yes"/>
      <point x="124" y="1068"/>
      <point x="478" y="1518"/>
      <point x="780" y="1518" type="qcurve" smooth="yes"/>
      <point x="834" y="1518"/>
      <point x="1108" y="1500"/>
      <point x="1168" y="1500" type="qcurve" smooth="yes"/>
      <point x="1786" y="1500" type="line"/>
      <point x="1786" y="1152" type="line"/>
      <point x="1676" y="1152" type="line"/>
      <point x="1641" y="1382" type="line"/>
      <point x="1178" y="1382" type="line"/>
      <point x="1149" y="1362" type="line"/>
      <point x="1147" y="783" type="line"/>
      <point x="1149" y="132" type="line"/>
      <point x="1179" y="108" type="line"/>
      <point x="1704" y="108" type="line"/>
      <point x="1780" y="378" type="line"/>
      <point x="1890" y="378" type="line"/>
      <point x="1850" y="0" type="line"/>
      <point x="1150" y="0" type="line" smooth="yes"/>
      <point x="1087" y="0"/>
      <point x="859" y="-26"/>
      <point x="783" y="-26" type="qcurve" smooth="yes"/>
      <point x="489" y="-26"/>
      <point x="124" y="396"/>
    </contour>
    <contour>
      <point x="229" y="771" type="qcurve" smooth="yes"/>
      <point x="229" y="478"/>
      <point x="522" y="97"/>
      <point x="772" y="97" type="qcurve" smooth="yes"/>
      <point x="850" y="97"/>
      <point x="990" y="112"/>
      <point x="1048" y="127" type="qcurve"/>
      <point x="1050" y="783" type="line"/>
      <point x="1048" y="1360" type="line"/>
      <point x="1010" y="1366"/>
      <point x="847" y="1388"/>
      <point x="772" y="1388" type="qcurve" smooth="yes"/>
      <point x="499" y="1388"/>
      <point x="229" y="1053"/>
    </contour>
    <contour>
      <point x="1098" y="738" type="line"/>
      <point x="1098" y="834" type="line"/>
      <point x="1495" y="844" type="line"/>
      <point x="1530" y="1004" type="line"/>
      <point x="1640" y="1004" type="line"/>
      <point x="1640" y="568" type="line"/>
      <point x="1530" y="568" type="line"/>
      <point x="1495" y="728" type="line"/>
    </contour>
  </outline>
</glyph>
<glyph name="oe" format="2">
  <advance width="1750"/>
  <unicode hex="0153"/>
  <outline>
    <contour>
      <point x="108" y="500" type="qcurve" smooth="yes"/>
      <point x="108" y="717"/>
      <point x="349" y="1022"/>
      <point x="546" y="1022" type="qcurve" smooth="yes"/>
      <point x="706" y="1022"/>
      <point x="905" y="848"/>
      <point x="932" y="733" type="qcurve"/>
      <point x="939" y="733" type="line"/>
      <point x="963" y="844"/>
      <point x="1132" y="1022"/>
      <point x="1278" y="1022" type="qcurve" smooth="yes"/>
      <point x="1433" y="1022"/>
      <point x="1622" y="798"/>
      <point x="1633" y="588" type="qcurve"/>
      <point x="1633" y="528" type="line"/>
      <point x="956" y="528" type="line"/>
      <point x="957" y="624" type="line"/>
      <point x="1540" y="624" type="line"/>
      <point x="1521" y="764"/>
      <point x="1375" y="908"/>
      <point x="1263" y="908" type="qcurve" smooth="yes"/>
      <point x="1125" y="908"/>
      <point x="973" y="700"/>
      <point x="974" y="520" type="qcurve" smooth="yes"/>
      <point x="975" y="320"/>
      <point x="1169" y="107"/>
      <point x="1311" y="107" type="qcurve" smooth="yes"/>
      <point x="1394" y="107"/>
      <point x="1509" y="151"/>
      <point x="1550" y="188" type="qcurve"/>
      <point x="1601" y="128" type="line"/>
      <point x="1558" y="65"/>
      <point x="1405" y="-22"/>
      <point x="1291" y="-22" type="qcurve" smooth="yes"/>
      <point x="1155" y="-22"/>
      <point x="954" y="155"/>
      <point x="923" y="293" type="qcurve"/>
      <point x="921" y="293" type="line"/>
      <point x="901" y="178"/>
      <point x="702" y="-22"/>
      <point x="563" y="-22" type="qcurve" smooth="yes"/>
      <point x="353" y="-22"/>
      <point x="108" y="267"/>
    </contour>
    <contour>
      <point x="208" y="520" type="qcurve" smooth="yes"/>
      <point x="209" y="339"/>
      <point x="393" y="88"/>
      <point x="544" y="88" type="qcurve" smooth="yes"/>
      <point x="706" y="88"/>
      <point x="882" y="317"/>
      <point x="882" y="506" type="qcurve" smooth="yes"/>
      <point x="882" y="680"/>
      <point x="698" y="906"/>
      <point x="546" y="906" type="qcurve" smooth="yes"/>
      <point x="382" y="906"/>
      <point x="207" y="700"/>
    </contour>
  </outline>
</glyph>
<glyph name="Schwa" format="2">
  <advance width="1791"/>
  <unicode hex="018F"/>
  <outline>
    <contour>
      <point x="108" y="1199" type="line"/>
      <point x="218" y="1337"/>
      <point x="582" y="1519"/>
      <point x="840" y="1519" type="qcurve" smooth="yes"/>
      <point x="1237" y="1519"/>
      <point x="1667" y="1094"/>
      <point x="1667" y="789" type="qcurve" smooth="yes"/>
      <point x="1667" y="445"/>
      <point x="1210" y="-30"/>
      <point x="864" y="-30" type="qcurve" smooth="yes"/>
      <point x="535" y="-30"/>
      <point x="162" y="281"/>
      <point x="162" y="578" type="qcurve" smooth="yes"/>
      <point x="162" y="672" type="line"/>
      <point x="1368" y="672" type="line"/>
      <point x="1469" y="637" type="line"/>
      <point x="835" y="645" type="line"/>
      <point x="271" y="639" type="line"/>
      <point x="271" y="445" type="line" smooth="yes"/>
      <point x="271" y="252"/>
      <point x="573" y="-2"/>
      <point x="865" y="-2" type="qcurve" smooth="yes"/>
      <point x="1174" y="-2"/>
      <point x="1565" y="422"/>
      <point x="1562" y="757" type="qcurve" smooth="yes"/>
      <point x="1560" y="1104"/>
      <point x="1146" y="1488"/>
      <point x="854" y="1488" type="qcurve" smooth="yes"/>
      <point x="592" y="1488"/>
      <point x="227" y="1311"/>
      <point x="133" y="1181" type="qcurve"/>
    </contour>
  </outline>
</glyph>
<glyph name="florin" format="2">
  <advance width="725"/>
  <unicode hex="0192"/>
  <outline>
    <contour>
      <point x="447" y="-75" type="line" smooth="yes"/>
      <point x="449" y="-174"/>
      <point x="316" y="-309"/>
      <point x="216" y="-309" type="qcurve" smooth="yes"/>
      <point x="183" y="-309"/>
      <point x="107" y="-302"/>
      <point x="78" y="-295" type="qcurve" smooth="yes"/>
      <point x="57" y="-290" type="line"/>
      <point x="73" y="-183" type="line"/>
      <point x="97" y="-190" type="line" smooth="yes"/>
      <point x="105" y="-192"/>
      <point x="136" y="-197"/>
      <point x="152" y="-197" type="qcurve" smooth="yes"/>
      <point x="221" y="-197"/>
      <point x="295" y="-113"/>
      <point x="293" y="-40" type="qcurve" smooth="yes"/>
      <point x="274" y="860" type="line"/>
      <point x="71" y="872" type="line"/>
      <point x="61" y="966" type="line"/>
      <point x="266" y="984" type="line"/>
      <point x="260" y="1304" type="line" smooth="yes"/>
      <point x="258" y="1403"/>
      <point x="393" y="1518"/>
      <point x="493" y="1518" type="qcurve" smooth="yes"/>
      <point x="526" y="1518"/>
      <point x="602" y="1509"/>
      <point x="631" y="1504" type="qcurve" smooth="yes"/>
      <point x="652" y="1499" type="line"/>
      <point x="636" y="1392" type="line"/>
      <point x="612" y="1399" type="line" smooth="yes"/>
      <point x="604" y="1401"/>
      <point x="573" y="1406"/>
      <point x="557" y="1406" type="qcurve" smooth="yes"/>
      <point x="488" y="1406"/>
      <point x="413" y="1342"/>
      <point x="416" y="1269" type="qcurve" smooth="yes"/>
      <point x="428" y="985" type="line"/>
      <point x="645" y="985" type="line"/>
      <point x="645" y="883" type="line"/>
      <point x="428" y="872" type="line"/>
    </contour>
  </outline>
</glyph>
<glyph name="schwa" format="2">
  <advance width="1250"/>
  <unicode hex="0259"/>
  <outline>
    <contour>
      <point x="1143" y="458" type="qcurve" smooth="yes"/>
      <point x="1143" y="257"/>
      <point x="844" y="-22"/>
      <point x="599" y="-22" type="qcurve" smooth="yes"/>
      <point x="388" y="-22"/>
      <point x="137" y="187"/>
      <point x="117" y="378" type="qcurve"/>
      <point x="117" y="405" type="line"/>
      <point x="1062" y="405" type="line"/>
      <point x="1059" y="383" type="line"/>
      <point x="210" y="383" type="line"/>
      <point x="242" y="199"/>
      <point x="453" y="3"/>
      <point x="618" y="3" type="qcurve" smooth="yes"/>
      <point x="821" y="3"/>
      <point x="1045" y="228"/>
      <point x="1043" y="438" type="qcurve" smooth="yes"/>
      <point x="1042" y="678"/>
      <point x="777" y="912"/>
      <point x="573" y="912" type="qcurve" smooth="yes"/>
      <point x="442" y="912"/>
      <point x="239" y="838"/>
      <point x="180" y="778" type="qcurve"/>
      <point x="168" y="793" type="line"/>
      <point x="223" y="857"/>
      <point x="433" y="943"/>
      <point x="564" y="943" type="qcurve" smooth="yes"/>
      <point x="844" y="943"/>
      <point x="1143" y="693"/>
    </contour>
  </outline>
</glyph>
<glyph name="primemod" format="2">
  <advance width="688"/>
  <unicode hex="02B9"/>
  <outline>
    <contour>
      <point x="268" y="1502" type="line"/>
      <point x="457" y="1502" type="line"/>
      <point x="338" y="991" type="line"/>
      <point x="216" y="996" type="line"/>
    </contour>
  </outline>
</glyph>
<glyph name="doubleprimemod" format="2">
  <advance width="876"/>
  <unicode hex="02BA"/>
  <outline>
    <contour>
      <point x="268" y="1502" type="line"/>
      <point x="457" y="1502" type="line"/>
      <point x="339" y="1004" type="line"/>
      <point x="217" y="1009" type="line"/>
    </contour>
    <contour>
      <point x="568" y="1502" type="line"/>
      <point x="757" y="1502" type="line"/>
      <point x="639" y="1004" type="line"/>
      <point x="517" y="1009" type="line"/>
    </contour>
  </outline>
</glyph>
<glyph name="apostrophemod" format="2">
  <advance width="688"/>
  <unicode hex="02BC"/>
  <outline>
    <contour>
      <point x="199" y="1062" type="line"/>
      <point x="239" y="1092"/>
      <point x="343" y="1210"/>
      <point x="358" y="1277" type="qcurve"/>
      <point x="287" y="1277"/>
      <point x="207" y="1352"/>
      <point x="207" y="1411" type="qcurve" smooth="yes"/>
      <point x="207" y="1469"/>
      <point x="288" y="1546"/>
      <point x="351" y="1546" type="qcurve" smooth="yes"/>
      <point x="410" y="1546"/>
      <point x="506" y="1450"/>
      <point x="506" y="1373" type="qcurve" smooth="yes"/>
      <point x="506" y="1251"/>
      <point x="347" y="1063"/>
      <point x="242" y="1013" type="qcurve"/>
    </contour>
  </outline>
</glyph>
<glyph name="gravecomb" format="2">
  <advance width="539"/>
  <unicode hex="0300"/>
  <anchor x="269" y="1000" name="_top"/>
  <anchor x="269" y="1497" name="top"/>
  <outline>
    <contour>
      <point x="-114" y="1461" type="qcurve" smooth="yes"/>
      <point x="-123" y="1483"/>
      <point x="-93" y="1525"/>
      <point x="-72" y="1532" type="qcurve" smooth="yes"/>
      <point x="-49" y="1541"/>
      <point x="19" y="1515"/>
      <point x="49" y="1507" type="qcurve" smooth="yes"/>
      <point x="507" y="1211" type="line"/>
      <point x="509" y="1176" type="line"/>
      <point x="-34" y="1406" type="line" smooth="yes"/>
      <point x="-69" y="1410"/>
      <point x="-102" y="1430"/>
    </contour>
  </outline>
</glyph>
<glyph name="acutecomb" format="2">
  <advance width="539"/>
  <unicode hex="0301"/>
  <anchor x="269" y="1000" name="_top"/>
  <anchor x="269" y="1524" name="top"/>
  <outline>
    <contour>
      <point x="504" y="1446" type="qcurve" smooth="yes"/>
      <point x="504" y="1399"/>
      <point x="464" y="1357"/>
      <point x="423" y="1329" type="qcurve" smooth="yes"/>
      <point x="151" y="1150" type="line"/>
      <point x="77" y="1226" type="line"/>
      <point x="257" y="1425" type="line" smooth="yes"/>
      <point x="291" y="1463"/>
      <point x="372" y="1524"/>
      <point x="409" y="1524" type="qcurve" smooth="yes"/>
      <point x="443" y="1524"/>
      <point x="504" y="1481"/>
    </contour>
  </outline>
</glyph>
<glyph name="circumflexcomb" format="2">
  <advance width="539"/>
  <unicode hex="0302"/>
  <anchor x="269" y="1000" name="_top"/>
  <anchor x="269" y="1539" name="top"/>
  <outline>
    <contour>
      <point x="269" y="1539" type="qcurve" smooth="yes"/>
      <point x="303" y="1539"/>
      <point x="348" y="1508"/>
      <point x="379" y="1466" type="qcurve" smooth="yes"/>
      <point x="582" y="1223" type="line"/>
      <point x="504" y="1150" type="line"/>
      <point x="269" y="1365" type="line"/>
      <point x="34" y="1150" type="line"/>
      <point x="-44" y="1223" type="line"/>
      <point x="159" y="1466" type="line" smooth="yes"/>
      <point x="200" y="1515"/>
      <point x="235" y="1539"/>
    </contour>
  </outline>
</glyph>
<glyph name="tildecomb" format="2">
  <advance width="539"/>
  <unicode hex="0303"/>
  <anchor x="271" y="1000" name="_top"/>
  <anchor x="271" y="1402" name="top"/>
  <outline>
    <contour>
      <point x="-206" y="1234" type="line"/>
      <point x="-159" y="1296"/>
      <point x="-7" y="1381"/>
      <point x="71" y="1381" type="qcurve" smooth="yes"/>
      <point x="128" y="1381"/>
      <point x="244" y="1334"/>
      <point x="293" y="1310" type="qcurve" smooth="yes"/>
      <point x="329" y="1294"/>
      <point x="443" y="1246"/>
      <point x="492" y="1246" type="qcurve" smooth="yes"/>
      <point x="550" y="1246"/>
      <point x="650" y="1321"/>
      <point x="686" y="1369" type="qcurve"/>
      <point x="750" y="1290" type="line"/>
      <point x="706" y="1225"/>
      <point x="566" y="1157"/>
      <point x="499" y="1156" type="qcurve" smooth="yes"/>
      <point x="435" y="1156"/>
      <point x="305" y="1206"/>
      <point x="263" y="1227" type="qcurve" smooth="yes"/>
      <point x="222" y="1246"/>
      <point x="119" y="1286"/>
      <point x="80" y="1286" type="qcurve" smooth="yes"/>
      <point x="15" y="1286"/>
      <point x="-105" y="1190"/>
      <point x="-136" y="1155" type="qcurve"/>
    </contour>
  </outline>
</glyph>
<glyph name="macroncomb" format="2">
  <advance width="539"/>
  <unicode hex="0304"/>
  <anchor x="270" y="1000" name="_top"/>
  <anchor x="270" y="1281" name="top"/>
  <outline>
    <contour>
      <point x="-27" y="1147" type="line"/>
      <point x="-27" y="1281" type="line"/>
      <point x="565" y="1281" type="line"/>
      <point x="565" y="1147" type="line"/>
    </contour>
  </outline>
</glyph>
<glyph name="brevecomb" format="2">
  <advance width="539"/>
  <unicode hex="0306"/>
  <anchor x="269" y="1000" name="_top"/>
  <anchor x="269" y="1464" name="top"/>
  <outline>
    <contour>
      <point x="545" y="1463" type="qcurve"/>
      <point x="623" y="1410" type="line"/>
      <point x="610" y="1317"/>
      <point x="399" y="1143"/>
      <point x="270" y="1143" type="qcurve" smooth="yes"/>
      <point x="141" y="1143"/>
      <point x="-63" y="1297"/>
      <point x="-85" y="1407" type="qcurve"/>
      <point x="-3" y="1464" type="line"/>
      <point x="29" y="1407"/>
      <point x="174" y="1301"/>
      <point x="271" y="1299" type="qcurve" smooth="yes"/>
      <point x="371" y="1301"/>
      <point x="518" y="1409"/>
    </contour>
  </outline>
</glyph>
<glyph name="dotaccentcomb" format="2">
  <advance width="539"/>
  <unicode hex="0307"/>
  <anchor x="269" y="1000" name="_top"/>
  <anchor x="269" y="1372" name="top"/>
  <outline>
    <contour>
      <point x="181" y="1254" type="qcurve" smooth="yes"/>
      <point x="181" y="1295"/>
      <point x="226" y="1340"/>
      <point x="269" y="1340" type="qcurve" smooth="yes"/>
      <point x="309" y="1340"/>
      <point x="358" y="1293"/>
      <point x="358" y="1254" type="qcurve" smooth="yes"/>
      <point x="358" y="1212"/>
      <point x="312" y="1168"/>
      <point x="269" y="1168" type="qcurve" smooth="yes"/>
      <point x="229" y="1168"/>
      <point x="181" y="1215"/>
    </contour>
  </outline>
</glyph>
<glyph name="dieresiscomb" format="2">
  <advance width="539"/>
  <unicode hex="0308"/>
  <anchor x="269" y="1000" name="_top"/>
  <anchor x="269" y="1327" name="top"/>
  <anchor x="269" y="1000" name="_GRKtop"/>
  <outline>
    <contour>
      <point x="478" y="1213" type="qcurve" smooth="yes"/>
      <point x="478" y="1253"/>
      <point x="522" y="1297"/>
      <point x="563" y="1297" type="qcurve" smooth="yes"/>
      <point x="602" y="1297"/>
      <point x="649" y="1251"/>
      <point x="649" y="1213" type="qcurve" smooth="yes"/>
      <point x="649" y="1173"/>
      <point x="605" y="1129"/>
      <point x="563" y="1129" type="qcurve" smooth="yes"/>
      <point x="524" y="1129"/>
      <point x="478" y="1175"/>
    </contour>
    <contour>
      <point x="-111" y="1213" type="qcurve" smooth="yes"/>
      <point x="-111" y="1253"/>
      <point x="-67" y="1297"/>
      <point x="-25" y="1297" type="qcurve" smooth="yes"/>
      <point x="14" y="1297"/>
      <point x="61" y="1251"/>
      <point x="61" y="1213" type="qcurve" smooth="yes"/>
      <point x="61" y="1173"/>
      <point x="17" y="1129"/>
      <point x="-25" y="1129" type="qcurve" smooth="yes"/>
      <point x="-64" y="1129"/>
      <point x="-111" y="1175"/>
    </contour>
  </outline>
</glyph>
<glyph name="hookabovecomb" format="2">
  <advance width="539"/>
  <unicode hex="0309"/>
  <anchor x="269" y="1000" name="_top"/>
  <anchor x="269" y="1597" name="top"/>
  <outline>
    <contour>
      <point x="153" y="1150" type="line"/>
      <point x="153" y="1233" type="line"/>
      <point x="232" y="1321" type="line"/>
      <point x="249" y="1315"/>
      <point x="281" y="1310"/>
      <point x="295" y="1310" type="qcurve" smooth="yes"/>
      <point x="336" y="1310"/>
      <point x="387" y="1354"/>
      <point x="387" y="1396" type="qcurve" smooth="yes"/>
      <point x="387" y="1436"/>
      <point x="332" y="1478"/>
      <point x="286" y="1478" type="qcurve" smooth="yes"/>
      <point x="239" y="1478"/>
      <point x="142" y="1454"/>
      <point x="103" y="1435" type="qcurve"/>
      <point x="59" y="1539" type="line"/>
      <point x="119" y="1565"/>
      <point x="232" y="1597"/>
      <point x="283" y="1597" type="qcurve" smooth="yes"/>
      <point x="391" y="1597"/>
      <point x="529" y="1492"/>
      <point x="529" y="1389" type="qcurve" smooth="yes"/>
      <point x="529" y="1304"/>
      <point x="435" y="1197"/>
      <point x="369" y="1197" type="qcurve" smooth="yes"/>
      <point x="344" y="1197"/>
      <point x="296" y="1206"/>
      <point x="280" y="1210" type="qcurve"/>
      <point x="280" y="1150" type="line"/>
    </contour>
  </outline>
</glyph>
<glyph name="ringcomb" format="2">
  <advance width="539"/>
  <unicode hex="030A"/>
  <anchor x="269" y="1000" name="_top"/>
  <anchor x="269" y="1565" name="top"/>
  <outline>
    <contour>
      <point x="42" y="1347" type="qcurve" smooth="yes"/>
      <point x="42" y="1438"/>
      <point x="174" y="1565"/>
      <point x="269" y="1565" type="qcurve" smooth="yes"/>
      <point x="364" y="1565"/>
      <point x="496" y="1438"/>
      <point x="496" y="1347" type="qcurve" smooth="yes"/>
      <point x="496" y="1256"/>
      <point x="364" y="1129"/>
      <point x="269" y="1129" type="qcurve" smooth="yes"/>
      <point x="174" y="1129"/>
      <point x="42" y="1256"/>
    </contour>
    <contour>
      <point x="166" y="1347" type="qcurve" smooth="yes"/>
      <point x="166" y="1301"/>
      <point x="222" y="1244"/>
      <point x="269" y="1244" type="qcurve" smooth="yes"/>
      <point x="319" y="1244"/>
      <point x="372" y="1297"/>
      <point x="372" y="1347" type="qcurve" smooth="yes"/>
      <point x="372" y="1393"/>
      <point x="316" y="1450"/>
      <point x="269" y="1450" type="qcurve" smooth="yes"/>
      <point x="219" y="1450"/>
      <point x="166" y="1397"/>
    </contour>
  </outline>
</glyph>
<glyph name="hungarumlautcomb" format="2">
  <advance width="539"/>
  <unicode hex="030B"/>
  <anchor x="301" y="1000" name="_top"/>
  <anchor x="301" y="1534" name="top"/>
  <outline>
    <contour>
      <point x="305" y="1474" type="qcurve" smooth="yes"/>
      <point x="305" y="1427"/>
      <point x="262" y="1390"/>
      <point x="224" y="1357" type="qcurve" smooth="yes"/>
      <point x="-19" y="1150" type="line"/>
      <point x="-93" y="1226" type="line"/>
      <point x="86" y="1453" type="line" smooth="yes"/>
      <point x="118" y="1493"/>
      <point x="173" y="1552"/>
      <point x="210" y="1552" type="qcurve" smooth="yes"/>
      <point x="244" y="1552"/>
      <point x="305" y="1509"/>
    </contour>
    <contour>
      <point x="695" y="1474" type="qcurve" smooth="yes"/>
      <point x="695" y="1427"/>
      <point x="652" y="1390"/>
      <point x="614" y="1357" type="qcurve" smooth="yes"/>
      <point x="371" y="1150" type="line"/>
      <point x="297" y="1226" type="line"/>
      <point x="477" y="1453" type="line" smooth="yes"/>
      <point x="509" y="1493"/>
      <point x="563" y="1552"/>
      <point x="600" y="1552" type="qcurve" smooth="yes"/>
      <point x="634" y="1552"/>
      <point x="695" y="1509"/>
    </contour>
  </outline>
</glyph>
<glyph name="caroncomb" format="2">
  <advance width="539"/>
  <unicode hex="030C"/>
  <anchor x="269" y="1000" name="_top"/>
  <anchor x="269" y="1511" name="top"/>
  <outline>
    <contour>
      <point x="269" y="1122" type="qcurve" smooth="yes"/>
      <point x="218" y="1122"/>
      <point x="149" y="1153"/>
      <point x="102" y="1195" type="qcurve" smooth="yes"/>
      <point x="-166" y="1438" type="line"/>
      <point x="-88" y="1511" type="line"/>
      <point x="269" y="1200" type="line"/>
      <point x="626" y="1511" type="line"/>
      <point x="704" y="1438" type="line"/>
      <point x="436" y="1195" type="line" smooth="yes"/>
      <point x="387" y="1151"/>
      <point x="321" y="1122"/>
    </contour>
  </outline>
</glyph>
<glyph name="breveinvertedcomb" format="2">
  <advance width="539"/>
  <unicode hex="030F"/>
  <anchor x="269" y="1000" name="_top"/>
  <anchor x="269" y="1470" name="top"/>
  <outline>
    <contour>
      <point x="-5" y="1150" type="qcurve"/>
      <point x="-83" y="1203" type="line"/>
      <point x="-68" y="1296"/>
      <point x="143" y="1470"/>
      <point x="268" y="1470" type="qcurve"/>
      <point x="397" y="1470"/>
      <point x="608" y="1296"/>
      <point x="621" y="1203" type="qcurve"/>
      <point x="543" y="1150" type="line"/>
      <point x="516" y="1204"/>
      <point x="368" y="1314"/>
      <point x="269" y="1314" type="qcurve"/>
      <point x="172" y="1314"/>
      <point x="24" y="1204"/>
    </contour>
  </outline>
</glyph>
<glyph name="dblgravecomb" format="2">
  <advance width="539"/>
  <unicode hex="0311"/>
  <anchor x="269" y="1000" name="_top"/>
  <anchor x="269" y="1585" name="top"/>
  <outline>
    <contour>
      <point x="-250" y="1492" type="qcurve"/>
      <point x="-250" y="1532"/>
      <point x="-193" y="1577"/>
      <point x="-157" y="1577" type="qcurve" smooth="yes"/>
      <point x="-115" y="1577"/>
      <point x="-58" y="1524"/>
      <point x="-24" y="1478" type="qcurve" smooth="yes"/>
      <point x="157" y="1230" type="line"/>
      <point x="70" y="1151" type="line"/>
      <point x="-157" y="1353" type="line" smooth="yes"/>
      <point x="-190" y="1383"/>
      <point x="-250" y="1454"/>
    </contour>
    <contour>
      <point x="147" y="1492" type="qcurve"/>
      <point x="147" y="1532"/>
      <point x="204" y="1577"/>
      <point x="240" y="1577" type="qcurve" smooth="yes"/>
      <point x="282" y="1577"/>
      <point x="340" y="1523"/>
      <point x="374" y="1477" type="qcurve" smooth="yes"/>
      <point x="554" y="1230" type="line"/>
      <point x="467" y="1151" type="line"/>
      <point x="240" y="1353" type="line" smooth="yes"/>
      <point x="207" y="1383"/>
      <point x="147" y="1454"/>
    </contour>
  </outline>
</glyph>
<glyph name="horncomb" format="2">
  <advance width="539"/>
  <unicode hex="031B"/>
  <anchor x="45" y="1000" name="_topright"/>
  <anchor x="44" y="1256" name="topright"/>
  <outline>
    <contour>
      <point x="44" y="1000" type="line"/>
      <point x="57" y="1000"/>
      <point x="87" y="1000"/>
      <point x="120" y="1000" type="qcurve" smooth="yes"/>
      <point x="186" y="1000"/>
      <point x="243" y="1033"/>
      <point x="243" y="1085" type="qcurve" smooth="yes"/>
      <point x="243" y="1120"/>
      <point x="231" y="1208"/>
      <point x="221" y="1256" type="qcurve"/>
      <point x="329" y="1256" type="line"/>
      <point x="353" y="1206"/>
      <point x="380" y="1106"/>
      <point x="380" y="1063" type="qcurve" smooth="yes"/>
      <point x="380" y="973"/>
      <point x="271" y="874"/>
      <point x="170" y="874" type="qcurve" smooth="yes"/>
      <point x="131" y="874"/>
      <point x="70" y="883"/>
      <point x="44" y="889" type="qcurve"/>
    </contour>
  </outline>
</glyph>
